<ttFont>
    <TTGlyph name=".notdef" xMin="193" yMin="0" xMax="1034" yMax="1462">
      <contour>
        <pt x="193" y="1462" on="1"/>
        <pt x="1034" y="1462" on="1"/>
        <pt x="1034" y="0" on="1"/>
        <pt x="193" y="0" on="1"/>
      </contour>
      <contour>
        <pt x="297" y="104" on="1"/>
        <pt x="930" y="104" on="1"/>
        <pt x="930" y="1358" on="1"/>
        <pt x="297" y="1358" on="1"/>
      </contour>
    </TTGlyph>
    <TTGlyph name="afii301" xMin="-299" yMin="-338" xMax="299" yMax="1613">
      <contour>
        <pt x="74" y="1323" on="1"/>
        <pt x="299" y="1103" on="1"/>
        <pt x="224" y="1030" on="1"/>
        <pt x="54" y="1199" on="1"/>
        <pt x="54" y="-338" on="1"/>
        <pt x="-54" y="-338" on="1"/>
        <pt x="-54" y="1199" on="1"/>
        <pt x="-224" y="1030" on="1"/>
        <pt x="-299" y="1103" on="1"/>
        <pt x="-74" y="1323" on="1"/>
        <pt x="-299" y="1540" on="1"/>
        <pt x="-224" y="1613" on="1"/>
        <pt x="0" y="1393" on="1"/>
        <pt x="224" y="1613" on="1"/>
        <pt x="299" y="1539" on="1"/>
      </contour>
    </TTGlyph>
    <TTGlyph name="afii61664" xMin="-54" yMin="-339" xMax="54" yMax="1613">
      <contour>
        <pt x="-54" y="-339" on="1"/>
        <pt x="-54" y="1613" on="1"/>
        <pt x="54" y="1613" on="1"/>
        <pt x="54" y="-339" on="1"/>
      </contour>
    </TTGlyph>
    <TTGlyph name="asciicircum" xMin="102" yMin="549" xMax="1110" yMax="1473">
      <contour>
        <pt x="102" y="549" on="1"/>
        <pt x="561" y="1473" on="1"/>
        <pt x="663" y="1473" on="1"/>
        <pt x="1110" y="549" on="1"/>
        <pt x="949" y="549" on="1"/>
        <pt x="612" y="1284" on="1"/>
        <pt x="263" y="549" on="1"/>
      </contour>
    </TTGlyph>
    <TTGlyph name="asciitilde" xMin="144" yMin="525" xMax="1068" yMax="797">
      <contour>
        <pt x="144" y="525" on="1"/>
        <pt x="144" y="687" on="1"/>
        <pt x="244" y="795" on="0"/>
        <pt x="392" y="795" on="1"/>
        <pt x="446" y="795" on="0"/>
        <pt x="537" y="776" on="0"/>
        <pt x="640" y="732" on="1"/>
        <pt x="720" y="698" on="0"/>
        <pt x="796" y="676" on="0"/>
        <pt x="841" y="676" on="1"/>
        <pt x="892" y="676" on="0"/>
        <pt x="1014" y="741" on="0"/>
        <pt x="1068" y="797" on="1"/>
        <pt x="1068" y="635" on="1"/>
        <pt x="969" y="527" on="0"/>
        <pt x="820" y="527" on="1"/>
        <pt x="761" y="527" on="0"/>
        <pt x="665" y="550" on="0"/>
        <pt x="572" y="590" on="1"/>
        <pt x="491" y="625" on="0"/>
        <pt x="418" y="646" on="0"/>
        <pt x="372" y="646" on="1"/>
        <pt x="322" y="646" on="0"/>
        <pt x="203" y="583" on="0"/>
      </contour>
    </TTGlyph>
    <TTGlyph name="asterisk" xMin="150" yMin="600" xMax="1112" yMax="1525">
      <contour>
        <pt x="732" y="1525" on="1"/>
        <pt x="689" y="1132" on="1"/>
        <pt x="1086" y="1243" on="1"/>
        <pt x="1112" y="1050" on="1"/>
        <pt x="734" y="1022" on="1"/>
        <pt x="979" y="696" on="1"/>
        <pt x="801" y="600" on="1"/>
        <pt x="625" y="958" on="1"/>
        <pt x="467" y="600" on="1"/>
        <pt x="283" y="696" on="1"/>
        <pt x="525" y="1022" on="1"/>
        <pt x="150" y="1050" on="1"/>
        <pt x="179" y="1243" on="1"/>
        <pt x="570" y="1132" on="1"/>
        <pt x="527" y="1525" on="1"/>
      </contour>
    </TTGlyph>
    <TTGlyph name="backslash" xMin="86" yMin="-339" xMax="793" yMax="1703">
      <contour>
        <pt x="254" y="1703" on="1"/>
        <pt x="793" y="-339" on="1"/>
        <pt x="625" y="-339" on="1"/>
        <pt x="86" y="1703" on="1"/>
      </contour>
    </TTGlyph>
    <TTGlyph name="bar" xMin="479" yMin="-339" xMax="626" yMax="1703">
      <contour>
        <pt x="479" y="1703" on="1"/>
        <pt x="626" y="1703" on="1"/>
        <pt x="626" y="-339" on="1"/>
        <pt x="479" y="-339" on="1"/>
      </contour>
    </TTGlyph>
    <TTGlyph name="braceleft" xMin="90" yMin="-339" xMax="691" yMax="1703">
      <contour>
        <pt x="507" y="-37" on="1"/>
        <pt x="507" y="-115" on="0"/>
        <pt x="585" y="-190" on="0"/>
        <pt x="691" y="-192" on="1"/>
        <pt x="691" y="-339" on="1"/>
        <pt x="519" y="-336" on="0"/>
        <pt x="341" y="-189" on="0"/>
        <pt x="341" y="-51" on="1"/>
        <pt x="341" y="421" on="1"/>
        <pt x="341" y="522" on="0"/>
        <pt x="212" y="606" on="0"/>
        <pt x="90" y="606" on="1"/>
        <pt x="90" y="758" on="1"/>
        <pt x="212" y="758" on="0"/>
        <pt x="341" y="842" on="0"/>
        <pt x="341" y="943" on="1"/>
        <pt x="341" y="1416" on="1"/>
        <pt x="341" y="1552" on="0"/>
        <pt x="519" y="1700" on="0"/>
        <pt x="691" y="1703" on="1"/>
        <pt x="691" y="1557" on="1"/>
        <pt x="585" y="1555" on="0"/>
        <pt x="507" y="1480" on="0"/>
        <pt x="507" y="1402" on="1"/>
        <pt x="507" y="931" on="1"/>
        <pt x="507" y="728" on="0"/>
        <pt x="291" y="687" on="1"/>
        <pt x="291" y="676" on="1"/>
        <pt x="507" y="635" on="0"/>
        <pt x="507" y="433" on="1"/>
      </contour>
    </TTGlyph>
    <TTGlyph name="braceright" xMin="110" yMin="-339" xMax="711" yMax="1703">
      <contour>
        <pt x="293" y="433" on="1"/>
        <pt x="293" y="635" on="0"/>
        <pt x="510" y="676" on="1"/>
        <pt x="510" y="687" on="1"/>
        <pt x="293" y="728" on="0"/>
        <pt x="293" y="931" on="1"/>
        <pt x="293" y="1402" on="1"/>
        <pt x="293" y="1481" on="0"/>
        <pt x="216" y="1555" on="0"/>
        <pt x="110" y="1557" on="1"/>
        <pt x="110" y="1703" on="1"/>
        <pt x="283" y="1700" on="0"/>
        <pt x="460" y="1552" on="0"/>
        <pt x="460" y="1416" on="1"/>
        <pt x="460" y="943" on="1"/>
        <pt x="460" y="845" on="0"/>
        <pt x="583" y="758" on="0"/>
        <pt x="711" y="758" on="1"/>
        <pt x="711" y="606" on="1"/>
        <pt x="588" y="606" on="0"/>
        <pt x="460" y="522" on="0"/>
        <pt x="460" y="421" on="1"/>
        <pt x="460" y="-51" on="1"/>
        <pt x="460" y="-188" on="0"/>
        <pt x="282" y="-336" on="0"/>
        <pt x="110" y="-339" on="1"/>
        <pt x="110" y="-192" on="1"/>
        <pt x="216" y="-190" on="0"/>
        <pt x="293" y="-116" on="0"/>
        <pt x="293" y="-37" on="1"/>
      </contour>
    </TTGlyph>
    <TTGlyph name="bracketleft" xMin="221" yMin="-339" xMax="618" yMax="1704">
      <contour>
        <pt x="618" y="-339" on="1"/>
        <pt x="221" y="-339" on="1"/>
        <pt x="221" y="1704" on="1"/>
        <pt x="618" y="1704" on="1"/>
        <pt x="618" y="1561" on="1"/>
        <pt x="386" y="1561" on="1"/>
        <pt x="386" y="-196" on="1"/>
        <pt x="618" y="-196" on="1"/>
      </contour>
    </TTGlyph>
    <TTGlyph name="bracketright" xMin="110" yMin="-339" xMax="508" yMax="1703">
      <contour>
        <pt x="110" y="-196" on="1"/>
        <pt x="341" y="-196" on="1"/>
        <pt x="341" y="1560" on="1"/>
        <pt x="110" y="1560" on="1"/>
        <pt x="110" y="1703" on="1"/>
        <pt x="508" y="1703" on="1"/>
        <pt x="508" y="-339" on="1"/>
        <pt x="110" y="-339" on="1"/>
      </contour>
    </TTGlyph>
    <TTGlyph name="colon" xMin="175" yMin="-29" xMax="429" yMax="1126">
      <contour>
        <pt x="302" y="1126" on="1"/>
        <pt x="365" y="1126" on="0"/>
        <pt x="429" y="1054" on="0"/>
        <pt x="429" y="987" on="1"/>
        <pt x="429" y="921" on="0"/>
        <pt x="361" y="848" on="0"/>
        <pt x="302" y="848" on="1"/>
        <pt x="242" y="848" on="0"/>
        <pt x="175" y="921" on="0"/>
        <pt x="175" y="987" on="1"/>
        <pt x="175" y="1054" on="0"/>
        <pt x="238" y="1126" on="0"/>
      </contour>
      <contour>
        <pt x="302" y="250" on="1"/>
        <pt x="363" y="250" on="0"/>
        <pt x="429" y="179" on="0"/>
        <pt x="429" y="111" on="1"/>
        <pt x="429" y="44" on="0"/>
        <pt x="362" y="-29" on="0"/>
        <pt x="302" y="-29" on="1"/>
        <pt x="242" y="-29" on="0"/>
        <pt x="175" y="45" on="0"/>
        <pt x="175" y="111" on="1"/>
        <pt x="175" y="178" on="0"/>
        <pt x="241" y="250" on="0"/>
      </contour>
    </TTGlyph>
    <TTGlyph name="comma" xMin="63" yMin="-264" xMax="377" yMax="238">
      <contour>
        <pt x="362" y="238" on="1"/>
        <pt x="377" y="215" on="1"/>
        <pt x="326" y="18" on="0"/>
        <pt x="201" y="-264" on="1"/>
        <pt x="63" y="-264" on="1"/>
        <pt x="130" y="15" on="0"/>
        <pt x="164" y="238" on="1"/>
      </contour>
    </TTGlyph>
    <TTGlyph name="divide" xMin="144" yMin="195" xMax="1068" yMax="1143">
      <contour>
        <pt x="605" y="1143" on="1"/>
        <pt x="660" y="1143" on="0"/>
        <pt x="720" y="1079" on="0"/>
        <pt x="720" y="1018" on="1"/>
        <pt x="720" y="958" on="0"/>
        <pt x="658" y="893" on="0"/>
        <pt x="605" y="893" on="1"/>
        <pt x="551" y="893" on="0"/>
        <pt x="491" y="960" on="0"/>
        <pt x="491" y="1018" on="1"/>
        <pt x="491" y="1079" on="0"/>
        <pt x="550" y="1143" on="0"/>
      </contour>
      <contour>
        <pt x="144" y="585" on="1"/>
        <pt x="144" y="735" on="1"/>
        <pt x="1068" y="735" on="1"/>
        <pt x="1068" y="585" on="1"/>
      </contour>
      <contour>
        <pt x="605" y="445" on="1"/>
        <pt x="660" y="445" on="0"/>
        <pt x="720" y="381" on="0"/>
        <pt x="720" y="320" on="1"/>
        <pt x="720" y="260" on="0"/>
        <pt x="658" y="195" on="0"/>
        <pt x="605" y="195" on="1"/>
        <pt x="551" y="195" on="0"/>
        <pt x="491" y="262" on="0"/>
        <pt x="491" y="320" on="1"/>
        <pt x="491" y="381" on="0"/>
        <pt x="550" y="445" on="0"/>
      </contour>
    </TTGlyph>
    <TTGlyph name="eight" xMin="106" yMin="-20" xMax="1024" yMax="1485">
      <contour>
        <pt x="715" y="774" on="1"/>
        <pt x="877" y="688" on="0"/>
        <pt x="1024" y="497" on="0"/>
        <pt x="1024" y="381" on="1"/>
        <pt x="1024" y="200" on="0"/>
        <pt x="772" y="-20" on="0"/>
        <pt x="565" y="-20" on="1"/>
        <pt x="348" y="-20" on="0"/>
        <pt x="106" y="187" on="0"/>
        <pt x="106" y="373" on="1"/>
        <pt x="106" y="630" on="0"/>
        <pt x="389" y="766" on="1"/>
        <pt x="263" y="845" on="0"/>
        <pt x="154" y="1027" on="0"/>
        <pt x="154" y="1135" on="1"/>
        <pt x="154" y="1296" on="0"/>
        <pt x="387" y="1485" on="0"/>
        <pt x="565" y="1485" on="1"/>
        <pt x="747" y="1485" on="0"/>
        <pt x="977" y="1296" on="0"/>
        <pt x="977" y="1133" on="1"/>
        <pt x="977" y="1019" on="0"/>
        <pt x="851" y="842" on="0"/>
      </contour>
      <contour>
        <pt x="567" y="848" on="1"/>
        <pt x="693" y="905" on="0"/>
        <pt x="799" y="1037" on="0"/>
        <pt x="799" y="1126" on="1"/>
        <pt x="799" y="1227" on="0"/>
        <pt x="673" y="1333" on="0"/>
        <pt x="563" y="1333" on="1"/>
        <pt x="457" y="1333" on="0"/>
        <pt x="332" y="1227" on="0"/>
        <pt x="332" y="1126" on="1"/>
        <pt x="332" y="1036" on="0"/>
        <pt x="431" y="911" on="0"/>
      </contour>
      <contour>
        <pt x="539" y="696" on="1"/>
        <pt x="413" y="636" on="0"/>
        <pt x="285" y="481" on="0"/>
        <pt x="285" y="371" on="1"/>
        <pt x="285" y="255" on="0"/>
        <pt x="428" y="131" on="0"/>
        <pt x="561" y="131" on="1"/>
        <pt x="697" y="131" on="0"/>
        <pt x="846" y="262" on="0"/>
        <pt x="846" y="379" on="1"/>
        <pt x="846" y="469" on="0"/>
        <pt x="720" y="608" on="0"/>
        <pt x="569" y="682" on="1"/>
      </contour>
    </TTGlyph>
    <TTGlyph name="ellipsis" xMin="147" yMin="-29" xMax="1499" yMax="250">
      <contour>
        <pt x="274" y="250" on="1"/>
        <pt x="335" y="250" on="0"/>
        <pt x="401" y="179" on="0"/>
        <pt x="401" y="111" on="1"/>
        <pt x="401" y="44" on="0"/>
        <pt x="334" y="-29" on="0"/>
        <pt x="274" y="-29" on="1"/>
        <pt x="214" y="-29" on="0"/>
        <pt x="147" y="45" on="0"/>
        <pt x="147" y="111" on="1"/>
        <pt x="147" y="178" on="0"/>
        <pt x="213" y="250" on="0"/>
      </contour>
      <contour>
        <pt x="823" y="250" on="1"/>
        <pt x="884" y="250" on="0"/>
        <pt x="950" y="179" on="0"/>
        <pt x="950" y="111" on="1"/>
        <pt x="950" y="44" on="0"/>
        <pt x="883" y="-29" on="0"/>
        <pt x="823" y="-29" on="1"/>
        <pt x="763" y="-29" on="0"/>
        <pt x="696" y="45" on="0"/>
        <pt x="696" y="111" on="1"/>
        <pt x="696" y="178" on="0"/>
        <pt x="762" y="250" on="0"/>
      </contour>
      <contour>
        <pt x="1372" y="250" on="1"/>
        <pt x="1433" y="250" on="0"/>
        <pt x="1499" y="179" on="0"/>
        <pt x="1499" y="111" on="1"/>
        <pt x="1499" y="44" on="0"/>
        <pt x="1432" y="-29" on="0"/>
        <pt x="1372" y="-29" on="1"/>
        <pt x="1318" y="-29" on="0"/>
        <pt x="1245" y="37" on="0"/>
        <pt x="1245" y="111" on="1"/>
        <pt x="1245" y="181" on="0"/>
        <pt x="1312" y="250" on="0"/>
      </contour>
    </TTGlyph>
    <TTGlyph name="emdash" xMin="82" yMin="535" xMax="1966" yMax="703">
      <contour>
        <pt x="82" y="535" on="1"/>
        <pt x="82" y="703" on="1"/>
        <pt x="1966" y="703" on="1"/>
        <pt x="1966" y="535" on="1"/>
      </contour>
    </TTGlyph>
    <TTGlyph name="endash" xMin="82" yMin="535" xMax="942" yMax="703">
      <contour>
        <pt x="82" y="535" on="1"/>
        <pt x="82" y="703" on="1"/>
        <pt x="942" y="703" on="1"/>
        <pt x="942" y="535" on="1"/>
      </contour>
    </TTGlyph>
    <TTGlyph name="equal" xMin="144" yMin="381" xMax="1068" yMax="940">
      <contour>
        <pt x="144" y="791" on="1"/>
        <pt x="144" y="940" on="1"/>
        <pt x="1068" y="940" on="1"/>
        <pt x="1068" y="791" on="1"/>
      </contour>
      <contour>
        <pt x="144" y="381" on="1"/>
        <pt x="144" y="531" on="1"/>
        <pt x="1068" y="531" on="1"/>
        <pt x="1068" y="381" on="1"/>
      </contour>
    </TTGlyph>
    <TTGlyph name="exclam" xMin="299" yMin="-29" xMax="553" yMax="1462">
      <contour>
        <pt x="488" y="414" on="1"/>
        <pt x="367" y="414" on="1"/>
        <pt x="316" y="1462" on="1"/>
        <pt x="539" y="1462" on="1"/>
      </contour>
      <contour>
        <pt x="426" y="250" on="1"/>
        <pt x="487" y="250" on="0"/>
        <pt x="553" y="179" on="0"/>
        <pt x="553" y="111" on="1"/>
        <pt x="553" y="44" on="0"/>
        <pt x="486" y="-29" on="0"/>
        <pt x="426" y="-29" on="1"/>
        <pt x="366" y="-29" on="0"/>
        <pt x="299" y="45" on="0"/>
        <pt x="299" y="111" on="1"/>
        <pt x="299" y="178" on="0"/>
        <pt x="365" y="250" on="0"/>
      </contour>
    </TTGlyph>
    <TTGlyph name="five" xMin="131" yMin="-20" xMax="1014" yMax="1462">
      <contour>
        <pt x="131" y="59" on="1"/>
        <pt x="131" y="231" on="1"/>
        <pt x="196" y="186" on="0"/>
        <pt x="404" y="135" on="0"/>
        <pt x="492" y="135" on="1"/>
        <pt x="659" y="135" on="0"/>
        <pt x="827" y="297" on="0"/>
        <pt x="827" y="449" on="1"/>
        <pt x="827" y="592" on="0"/>
        <pt x="651" y="743" on="0"/>
        <pt x="483" y="743" on="1"/>
        <pt x="394" y="743" on="0"/>
        <pt x="252" y="717" on="1"/>
        <pt x="162" y="774" on="1"/>
        <pt x="217" y="1462" on="1"/>
        <pt x="907" y="1462" on="1"/>
        <pt x="907" y="1296" on="1"/>
        <pt x="375" y="1296" on="1"/>
        <pt x="336" y="877" on="1"/>
        <pt x="443" y="897" on="0"/>
        <pt x="545" y="897" on="1"/>
        <pt x="755" y="897" on="0"/>
        <pt x="1014" y="668" on="0"/>
        <pt x="1014" y="469" on="1"/>
        <pt x="1014" y="235" on="0"/>
        <pt x="738" y="-20" on="0"/>
        <pt x="487" y="-20" on="1"/>
        <pt x="384" y="-20" on="0"/>
        <pt x="196" y="20" on="0"/>
      </contour>
    </TTGlyph>
    <TTGlyph name="four" xMin="23" yMin="0" xMax="1087" yMax="1470">
      <contour>
        <pt x="1087" y="328" on="1"/>
        <pt x="874" y="328" on="1"/>
        <pt x="874" y="0" on="1"/>
        <pt x="698" y="0" on="1"/>
        <pt x="698" y="328" on="1"/>
        <pt x="23" y="328" on="1"/>
        <pt x="23" y="487" on="1"/>
        <pt x="686" y="1470" on="1"/>
        <pt x="874" y="1470" on="1"/>
        <pt x="874" y="494" on="1"/>
        <pt x="1087" y="494" on="1"/>
      </contour>
      <contour>
        <pt x="698" y="494" on="1"/>
        <pt x="698" y="850" on="1"/>
        <pt x="698" y="1003" on="0"/>
        <pt x="708" y="1197" on="1"/>
        <pt x="711" y="1282" on="1"/>
        <pt x="702" y="1282" on="1"/>
        <pt x="685" y="1233" on="0"/>
        <pt x="631" y="1130" on="0"/>
        <pt x="612" y="1102" on="1"/>
        <pt x="201" y="494" on="1"/>
      </contour>
    </TTGlyph>
    <TTGlyph name="glyph00096" xMin="-21" yMin="-12" xMax="1674" yMax="1274">
      <component glyphName="uni0995" x="0" y="0" flags="0x204"/>
      <component glyphName="uni09BC" x="1033" y="363" flags="0x4"/>
    </TTGlyph>
    <TTGlyph name="glyph00097" xMin="100" yMin="-12" xMax="1446" yMax="1409">
      <component glyphName="uni0996" x="0" y="0" flags="0x204"/>
      <component glyphName="uni09BC" x="1188" y="363" flags="0x4"/>
    </TTGlyph>
    <TTGlyph name="glyph00098" xMin="46" yMin="-60" xMax="1365" yMax="1409">
      <component glyphName="uni0997" x="0" y="0" flags="0x204"/>
      <component glyphName="uni09BC" x="1146" y="315" flags="0x4"/>
    </TTGlyph>
    <TTGlyph name="glyph00099" xMin="-21" yMin="-12" xMax="1314" yMax="1274">
      <component glyphName="uni0998" x="0" y="0" flags="0x204"/>
      <component glyphName="uni09BC" x="1043" y="363" flags="0x4"/>
    </TTGlyph>
    <TTGlyph name="glyph00100" xMin="59" yMin="-375" xMax="1366" yMax="1288">
      <component glyphName="uni0999" x="0" y="0" flags="0x204"/>
      <component glyphName="uni09BC" x="1403" y="0" flags="0x4"/>
    </TTGlyph>
    <TTGlyph name="glyph00101" xMin="-21" yMin="-375" xMax="1184" yMax="1274">
      <component glyphName="uni099A" x="0" y="0" flags="0x204"/>
      <component glyphName="uni09BC" x="1239" y="0" flags="0x4"/>
    </TTGlyph>
    <TTGlyph name="glyph00102" xMin="-21" yMin="-303" xMax="1427" yMax="1274">
      <component glyphName="uni099B" x="0" y="0" flags="0x204"/>
      <component glyphName="uni09BC" x="1357" y="72" flags="0x4"/>
    </TTGlyph>
    <TTGlyph name="glyph00103" xMin="-21" yMin="-295" xMax="1898" yMax="1274">
      <component glyphName="uni099C" x="0" y="0" flags="0x204"/>
      <component glyphName="uni09BC" x="1601" y="80" flags="0x4"/>
    </TTGlyph>
    <TTGlyph name="glyph00104" xMin="-21" yMin="-12" xMax="1647" yMax="1409">
      <component glyphName="uni099D" x="0" y="0" flags="0x204"/>
      <component glyphName="uni09BC" x="1043" y="363" flags="0x4"/>
    </TTGlyph>
    <TTGlyph name="glyph00105" xMin="94" yMin="-295" xMax="1976" yMax="1286">
      <component glyphName="uni099E" x="0" y="0" flags="0x204"/>
      <component glyphName="uni09BC" x="1469" y="80" flags="0x4"/>
    </TTGlyph>
    <TTGlyph name="glyph00106" xMin="-21" yMin="-375" xMax="1184" yMax="1868">
      <component glyphName="uni099F" x="0" y="0" flags="0x204"/>
      <component glyphName="uni09BC" x="1239" y="0" flags="0x4"/>
    </TTGlyph>
    <TTGlyph name="glyph00107" xMin="-21" yMin="-375" xMax="1231" yMax="1878">
      <component glyphName="uni09A0" x="0" y="0" flags="0x204"/>
      <component glyphName="uni09BC" x="1268" y="0" flags="0x4"/>
    </TTGlyph>
    <TTGlyph name="glyph00108" xMin="92" yMin="-10" xMax="1255" yMax="1409">
      <component glyphName="uni09A3" x="0" y="0" flags="0x204"/>
      <component glyphName="uni09BC" x="1112" y="365" flags="0x4"/>
    </TTGlyph>
    <TTGlyph name="glyph00109" xMin="-21" yMin="-325" xMax="1468" yMax="1274">
      <component glyphName="uni09A4" x="0" y="0" flags="0x204"/>
      <component glyphName="uni09BC" x="1391" y="50" flags="0x4"/>
    </TTGlyph>
    <TTGlyph name="glyph00110" xMin="78" yMin="-12" xMax="1341" yMax="1409">
      <component glyphName="uni09A5" x="0" y="0" flags="0x204"/>
      <component glyphName="uni09BC" x="1096" y="363" flags="0x4"/>
    </TTGlyph>
    <TTGlyph name="glyph00111" xMin="-21" yMin="-253" xMax="1256" yMax="1274">
      <component glyphName="uni09A6" x="0" y="0" flags="0x204"/>
      <component glyphName="uni09BC" x="1205" y="122" flags="0x4"/>
    </TTGlyph>
    <TTGlyph name="glyph00112" xMin="75" yMin="-12" xMax="1242" yMax="1288">
      <component glyphName="uni09A7" x="0" y="0" flags="0x204"/>
      <component glyphName="uni09BC" x="1043" y="363" flags="0x4"/>
    </TTGlyph>
    <TTGlyph name="glyph00113" xMin="-21" yMin="-187" xMax="1257" yMax="1274">
      <component glyphName="uni09A8" x="0" y="0" flags="0x204"/>
      <component glyphName="uni09BC" x="1124" y="188" flags="0x4"/>
    </TTGlyph>
    <TTGlyph name="glyph00114" xMin="45" yMin="-12" xMax="1488" yMax="1409">
      <component glyphName="uni09AA" x="0" y="0" flags="0x204"/>
      <component glyphName="uni09BC" x="1201" y="363" flags="0x4"/>
    </TTGlyph>
    <TTGlyph name="glyph00115" xMin="-21" yMin="-12" xMax="1737" yMax="1274">
      <component glyphName="uni09AB" x="0" y="0" flags="0x204"/>
      <component glyphName="uni09BC" x="1031" y="363" flags="0x4"/>
    </TTGlyph>
    <TTGlyph name="glyph00116" xMin="-21" yMin="-325" xMax="1497" yMax="1274">
      <component glyphName="uni09AD" x="0" y="0" flags="0x204"/>
      <component glyphName="uni09BC" x="1402" y="50" flags="0x4"/>
    </TTGlyph>
    <TTGlyph name="glyph00117" xMin="-21" yMin="-257" xMax="1294" yMax="1274">
      <component glyphName="uni09AE" x="0" y="0" flags="0x204"/>
      <component glyphName="uni09BC" x="1124" y="118" flags="0x4"/>
    </TTGlyph>
    <TTGlyph name="glyph00118" xMin="-21" yMin="-12" xMax="1519" yMax="1274">
      <component glyphName="uni09B2" x="0" y="0" flags="0x204"/>
      <component glyphName="uni09BC" x="1343" y="363" flags="0x4"/>
    </TTGlyph>
    <TTGlyph name="glyph00119" xMin="-18" yMin="-12" xMax="1407" yMax="1409">
      <component glyphName="uni09B6" x="0" y="0" flags="0x204"/>
      <component glyphName="uni09BC" x="1164" y="363" flags="0x4"/>
    </TTGlyph>
    <TTGlyph name="glyph00120" xMin="-21" yMin="-12" xMax="1317" yMax="1274">
      <component glyphName="uni09B7" x="0" y="0" flags="0x204"/>
      <component glyphName="uni09BC" x="1032" y="363" flags="0x4"/>
    </TTGlyph>
    <TTGlyph name="glyph00121" xMin="-21" yMin="-124" xMax="1418" yMax="1274">
      <component glyphName="uni09B8" x="0" y="0" flags="0x204"/>
      <component glyphName="uni09BC" x="1126" y="251" flags="0x4"/>
    </TTGlyph>
    <TTGlyph name="glyph00122" xMin="-21" yMin="-223" xMax="1107" yMax="1274">
      <component glyphName="uni09B9" x="0" y="0" flags="0x204"/>
      <component glyphName="uni09BC" x="1099" y="152" flags="0x4"/>
    </TTGlyph>
    <TTGlyph name="glyph00123" xMin="-21" yMin="-12" xMax="1242" yMax="1274">
      <component glyphName="uni09F0" x="0" y="0" flags="0x204"/>
      <component glyphName="uni09BC" x="1043" y="363" flags="0x4"/>
    </TTGlyph>
    <TTGlyph name="glyph00124" xMin="-21" yMin="-177" xMax="1242" yMax="1274">
      <component glyphName="uni09F1" x="0" y="0" flags="0x204"/>
      <component glyphName="uni09BC" x="952" y="198" flags="0x4"/>
    </TTGlyph>
    <TTGlyph name="glyph00125" xMin="-20" yMin="0" xMax="1967" yMax="1274">
      <contour>
        <pt x="1163" y="0" on="1"/>
        <pt x="1163" y="168" on="1"/>
        <pt x="1052" y="328" on="0"/>
        <pt x="860" y="470" on="0"/>
        <pt x="762" y="470" on="1"/>
        <pt x="691" y="470" on="0"/>
        <pt x="618" y="407" on="0"/>
        <pt x="618" y="353" on="1"/>
        <pt x="618" y="297" on="0"/>
        <pt x="654" y="248" on="1"/>
        <pt x="502" y="186" on="1"/>
        <pt x="450" y="272" on="0"/>
        <pt x="450" y="370" on="1"/>
        <pt x="450" y="468" on="0"/>
        <pt x="590" y="596" on="0"/>
        <pt x="709" y="611" on="1"/>
        <pt x="672" y="723" on="0"/>
        <pt x="507" y="851" on="0"/>
        <pt x="406" y="851" on="1"/>
        <pt x="335" y="851" on="0"/>
        <pt x="262" y="788" on="0"/>
        <pt x="262" y="734" on="1"/>
        <pt x="262" y="680" on="0"/>
        <pt x="297" y="629" on="1"/>
        <pt x="146" y="567" on="1"/>
        <pt x="94" y="654" on="0"/>
        <pt x="94" y="751" on="1"/>
        <pt x="94" y="851" on="0"/>
        <pt x="241" y="978" on="0"/>
        <pt x="364" y="992" on="1"/>
        <pt x="342" y="1071" on="0"/>
        <pt x="285" y="1128" on="1"/>
        <pt x="-20" y="1128" on="1"/>
        <pt x="-20" y="1274" on="1"/>
        <pt x="1967" y="1274" on="1"/>
        <pt x="1967" y="1128" on="1"/>
        <pt x="1320" y="1128" on="1"/>
        <pt x="1320" y="903" on="1"/>
        <pt x="1601" y="897" on="0"/>
        <pt x="1859" y="705" on="0"/>
        <pt x="1859" y="556" on="1"/>
        <pt x="1859" y="443" on="0"/>
        <pt x="1718" y="303" on="0"/>
        <pt x="1590" y="303" on="1"/>
        <pt x="1517" y="303" on="0"/>
        <pt x="1475" y="313" on="1"/>
        <pt x="1486" y="460" on="1"/>
        <pt x="1520" y="456" on="0"/>
        <pt x="1555" y="456" on="1"/>
        <pt x="1700" y="456" on="0"/>
        <pt x="1700" y="562" on="1"/>
        <pt x="1700" y="656" on="0"/>
        <pt x="1522" y="757" on="0"/>
        <pt x="1320" y="761" on="1"/>
        <pt x="1320" y="0" on="1"/>
      </contour>
      <contour>
        <pt x="1163" y="762" on="1"/>
        <pt x="977" y="767" on="0"/>
        <pt x="791" y="936" on="0"/>
        <pt x="791" y="1087" on="1"/>
        <pt x="791" y="1114" on="0"/>
        <pt x="793" y="1128" on="1"/>
        <pt x="465" y="1128" on="1"/>
        <pt x="510" y="1057" on="0"/>
        <pt x="514" y="980" on="1"/>
        <pt x="654" y="942" on="0"/>
        <pt x="851" y="727" on="0"/>
        <pt x="860" y="600" on="1"/>
        <pt x="946" y="577" on="0"/>
        <pt x="1100" y="460" on="0"/>
        <pt x="1167" y="365" on="1"/>
        <pt x="1163" y="396" on="0"/>
        <pt x="1163" y="501" on="1"/>
      </contour>
      <contour>
        <pt x="948" y="1128" on="1"/>
        <pt x="947" y="1112" on="1"/>
        <pt x="942" y="1028" on="0"/>
        <pt x="1028" y="911" on="0"/>
        <pt x="1163" y="905" on="1"/>
        <pt x="1163" y="1128" on="1"/>
      </contour>
      <contour>
        <pt x="1163" y="1274" on="1"/>
      </contour>
    </TTGlyph>
    <TTGlyph name="glyph00126" xMin="-21" yMin="0" xMax="2015" yMax="1274">
      <contour>
        <pt x="1082" y="1128" on="1"/>
        <pt x="1082" y="1107" on="1"/>
        <pt x="1082" y="1041" on="0"/>
        <pt x="1146" y="896" on="0"/>
        <pt x="1203" y="830" on="1"/>
        <pt x="1297" y="956" on="0"/>
        <pt x="1483" y="1063" on="0"/>
        <pt x="1600" y="1063" on="1"/>
        <pt x="1725" y="1063" on="0"/>
        <pt x="1877" y="933" on="0"/>
        <pt x="1877" y="830" on="1"/>
        <pt x="1877" y="701" on="0"/>
        <pt x="1780" y="620" on="1"/>
        <pt x="1887" y="541" on="0"/>
        <pt x="1887" y="416" on="1"/>
        <pt x="1887" y="304" on="0"/>
        <pt x="1728" y="164" on="0"/>
        <pt x="1588" y="164" on="1"/>
        <pt x="1372" y="164" on="0"/>
        <pt x="1250" y="372" on="1"/>
        <pt x="1207" y="250" on="0"/>
        <pt x="988" y="129" on="0"/>
        <pt x="822" y="129" on="1"/>
        <pt x="543" y="129" on="0"/>
        <pt x="169" y="545" on="0"/>
        <pt x="59" y="951" on="1"/>
        <pt x="215" y="996" on="1"/>
        <pt x="314" y="628" on="0"/>
        <pt x="604" y="284" on="0"/>
        <pt x="834" y="284" on="1"/>
        <pt x="980" y="284" on="0"/>
        <pt x="1134" y="416" on="0"/>
        <pt x="1134" y="548" on="1"/>
        <pt x="1134" y="603" on="0"/>
        <pt x="1116" y="661" on="1"/>
        <pt x="1034" y="590" on="0"/>
        <pt x="885" y="526" on="0"/>
        <pt x="800" y="526" on="1"/>
        <pt x="676" y="526" on="0"/>
        <pt x="529" y="667" on="0"/>
        <pt x="529" y="786" on="1"/>
        <pt x="529" y="889" on="0"/>
        <pt x="671" y="1069" on="0"/>
        <pt x="804" y="1131" on="1"/>
        <pt x="747" y="1128" on="0"/>
        <pt x="610" y="1128" on="1"/>
        <pt x="-21" y="1128" on="1"/>
        <pt x="-21" y="1274" on="1"/>
        <pt x="2015" y="1274" on="1"/>
        <pt x="2015" y="1128" on="1"/>
      </contour>
      <contour>
        <pt x="1045" y="785" on="1"/>
        <pt x="951" y="921" on="0"/>
        <pt x="935" y="1058" on="1"/>
        <pt x="813" y="992" on="0"/>
        <pt x="686" y="855" on="0"/>
        <pt x="686" y="778" on="1"/>
        <pt x="686" y="727" on="0"/>
        <pt x="743" y="672" on="0"/>
        <pt x="793" y="672" on="1"/>
        <pt x="859" y="672" on="0"/>
        <pt x="967" y="720" on="0"/>
      </contour>
      <contour>
        <pt x="1520" y="663" on="1"/>
        <pt x="1722" y="696" on="0"/>
        <pt x="1722" y="813" on="1"/>
        <pt x="1722" y="863" on="0"/>
        <pt x="1651" y="921" on="0"/>
        <pt x="1589" y="921" on="1"/>
        <pt x="1499" y="921" on="0"/>
        <pt x="1336" y="791" on="0"/>
        <pt x="1263" y="662" on="1"/>
        <pt x="1265" y="649" on="1"/>
        <pt x="1269" y="625" on="0"/>
        <pt x="1322" y="482" on="0"/>
        <pt x="1409" y="366" on="0"/>
        <pt x="1524" y="304" on="0"/>
        <pt x="1592" y="304" on="1"/>
        <pt x="1656" y="304" on="0"/>
        <pt x="1732" y="367" on="0"/>
        <pt x="1732" y="422" on="1"/>
        <pt x="1732" y="504" on="0"/>
        <pt x="1655" y="552" on="1"/>
        <pt x="1616" y="537" on="0"/>
        <pt x="1554" y="524" on="1"/>
      </contour>
      <contour>
        <pt x="1120" y="1274" on="1"/>
      </contour>
      <contour>
        <pt x="1494" y="0" on="1"/>
      </contour>
    </TTGlyph>
    <TTGlyph name="glyph00127" xMin="-519" yMin="1274" xMax="228" yMax="1878">
      <contour>
        <pt x="-519" y="1448" on="1"/>
        <pt x="149" y="1878" on="1"/>
        <pt x="228" y="1762" on="1"/>
        <pt x="-427" y="1318" on="1"/>
      </contour>
      <contour>
        <pt x="-351" y="1274" on="1"/>
      </contour>
    </TTGlyph>
    <TTGlyph name="glyph00128" xMin="-1433" yMin="-478" xMax="-204" yMax="376">
      <contour>
        <pt x="-204" y="-478" on="1"/>
        <pt x="-357" y="-478" on="1"/>
        <pt x="-382" y="-387" on="0"/>
        <pt x="-491" y="-300" on="0"/>
        <pt x="-582" y="-300" on="1"/>
        <pt x="-658" y="-300" on="0"/>
        <pt x="-782" y="-317" on="1"/>
        <pt x="-905" y="-335" on="0"/>
        <pt x="-996" y="-335" on="1"/>
        <pt x="-1208" y="-335" on="0"/>
        <pt x="-1433" y="-168" on="0"/>
        <pt x="-1433" y="-5" on="1"/>
        <pt x="-1433" y="60" on="0"/>
        <pt x="-1414" y="118" on="1"/>
        <pt x="-1257" y="99" on="1"/>
        <pt x="-1273" y="45" on="0"/>
        <pt x="-1273" y="1" on="1"/>
        <pt x="-1273" y="-93" on="0"/>
        <pt x="-1136" y="-188" on="0"/>
        <pt x="-994" y="-188" on="1"/>
        <pt x="-926" y="-188" on="0"/>
        <pt x="-811" y="-170" on="1"/>
        <pt x="-696" y="-153" on="0"/>
        <pt x="-624" y="-153" on="1"/>
        <pt x="-440" y="-153" on="0"/>
        <pt x="-361" y="-264" on="1"/>
        <pt x="-361" y="247" on="1"/>
        <pt x="-204" y="376" on="1"/>
      </contour>
    </TTGlyph>
    <TTGlyph name="glyph00129" xMin="-946" yMin="-548" xMax="-204" yMax="137">
      <contour>
        <pt x="-204" y="137" on="1"/>
        <pt x="-204" y="-548" on="1"/>
        <pt x="-361" y="-548" on="1"/>
        <pt x="-458" y="-449" on="0"/>
        <pt x="-698" y="-325" on="0"/>
        <pt x="-873" y="-297" on="1"/>
        <pt x="-946" y="-133" on="1"/>
        <pt x="-802" y="-51" on="0"/>
        <pt x="-481" y="97" on="0"/>
        <pt x="-361" y="137" on="1"/>
      </contour>
      <contour>
        <pt x="-361" y="-10" on="1"/>
        <pt x="-577" y="-93" on="0"/>
        <pt x="-758" y="-187" on="1"/>
        <pt x="-511" y="-244" on="0"/>
        <pt x="-354" y="-383" on="1"/>
        <pt x="-361" y="-299" on="0"/>
        <pt x="-361" y="-231" on="1"/>
      </contour>
    </TTGlyph>
    <TTGlyph name="glyph00130" xMin="-21" yMin="255" xMax="1418" yMax="1274">
      <contour>
        <pt x="898" y="1128" on="1"/>
        <pt x="898" y="1059" on="1"/>
        <pt x="1124" y="1019" on="0"/>
        <pt x="1378" y="814" on="0"/>
        <pt x="1378" y="666" on="1"/>
        <pt x="1378" y="560" on="0"/>
        <pt x="1244" y="431" on="0"/>
        <pt x="1125" y="431" on="1"/>
        <pt x="1062" y="431" on="0"/>
        <pt x="1018" y="441" on="1"/>
        <pt x="1027" y="584" on="1"/>
        <pt x="1058" y="580" on="0"/>
        <pt x="1085" y="580" on="1"/>
        <pt x="1152" y="580" on="0"/>
        <pt x="1221" y="625" on="0"/>
        <pt x="1221" y="681" on="1"/>
        <pt x="1221" y="763" on="0"/>
        <pt x="1053" y="886" on="0"/>
        <pt x="898" y="912" on="1"/>
        <pt x="898" y="255" on="1"/>
        <pt x="741" y="255" on="1"/>
        <pt x="647" y="401" on="0"/>
        <pt x="353" y="573" on="0"/>
        <pt x="152" y="599" on="1"/>
        <pt x="75" y="783" on="1"/>
        <pt x="239" y="866" on="0"/>
        <pt x="572" y="1001" on="0"/>
        <pt x="741" y="1052" on="1"/>
        <pt x="741" y="1128" on="1"/>
        <pt x="-21" y="1128" on="1"/>
        <pt x="-21" y="1274" on="1"/>
        <pt x="1418" y="1274" on="1"/>
        <pt x="1418" y="1128" on="1"/>
      </contour>
      <contour>
        <pt x="741" y="900" on="1"/>
        <pt x="623" y="863" on="0"/>
        <pt x="393" y="772" on="0"/>
        <pt x="282" y="719" on="1"/>
        <pt x="420" y="689" on="0"/>
        <pt x="653" y="556" on="0"/>
        <pt x="748" y="454" on="1"/>
        <pt x="741" y="584" on="0"/>
        <pt x="741" y="625" on="1"/>
      </contour>
    </TTGlyph>
    <TTGlyph name="glyph00131" xMin="100" yMin="-549" xMax="1657" yMax="1409">
      <component glyphName="uni0996" x="0" y="0" flags="0x204"/>
      <component glyphName="uni09CD" x="1425" y="0" flags="0x4"/>
    </TTGlyph>
    <TTGlyph name="glyph00132" xMin="46" yMin="484" xMax="1113" yMax="1288">
      <contour>
        <pt x="242" y="627" on="1"/>
        <pt x="376" y="675" on="0"/>
        <pt x="497" y="770" on="0"/>
        <pt x="497" y="824" on="1"/>
        <pt x="497" y="860" on="0"/>
        <pt x="437" y="901" on="0"/>
        <pt x="389" y="901" on="1"/>
        <pt x="340" y="901" on="0"/>
        <pt x="253" y="880" on="0"/>
        <pt x="190" y="851" on="1"/>
        <pt x="46" y="968" on="1"/>
        <pt x="151" y="1128" on="0"/>
        <pt x="390" y="1288" on="0"/>
        <pt x="523" y="1288" on="1"/>
        <pt x="680" y="1288" on="0"/>
        <pt x="945" y="1117" on="0"/>
        <pt x="1113" y="895" on="1"/>
        <pt x="993" y="800" on="1"/>
        <pt x="854" y="991" on="0"/>
        <pt x="650" y="1138" on="0"/>
        <pt x="532" y="1138" on="1"/>
        <pt x="455" y="1138" on="0"/>
        <pt x="331" y="1080" on="0"/>
        <pt x="268" y="1012" on="1"/>
        <pt x="341" y="1038" on="0"/>
        <pt x="412" y="1038" on="1"/>
        <pt x="529" y="1038" on="0"/>
        <pt x="661" y="919" on="0"/>
        <pt x="661" y="836" on="1"/>
        <pt x="661" y="725" on="0"/>
        <pt x="493" y="557" on="0"/>
        <pt x="334" y="484" on="1"/>
      </contour>
    </TTGlyph>
    <TTGlyph name="glyph00133" xMin="-21" yMin="-549" xMax="1525" yMax="1274">
      <component glyphName="uni0998" x="0" y="0" flags="0x204"/>
      <component glyphName="uni09CD" x="1293" y="0" flags="0x4"/>
    </TTGlyph>
    <TTGlyph name="glyph00134" xMin="-21" yMin="255" xMax="1300" yMax="1274">
      <contour>
        <pt x="1062" y="1128" on="1"/>
        <pt x="1070" y="1102" on="0"/>
        <pt x="1070" y="1072" on="1"/>
        <pt x="1070" y="972" on="0"/>
        <pt x="920" y="856" on="0"/>
        <pt x="785" y="856" on="1"/>
        <pt x="702" y="856" on="0"/>
        <pt x="622" y="879" on="1"/>
        <pt x="620" y="853" on="0"/>
        <pt x="620" y="828" on="1"/>
        <pt x="620" y="767" on="0"/>
        <pt x="672" y="710" on="0"/>
        <pt x="729" y="710" on="1"/>
        <pt x="799" y="710" on="0"/>
        <pt x="945" y="786" on="0"/>
        <pt x="1039" y="868" on="1"/>
        <pt x="1151" y="863" on="1"/>
        <pt x="1217" y="737" on="0"/>
        <pt x="1217" y="609" on="1"/>
        <pt x="1217" y="445" on="0"/>
        <pt x="965" y="255" on="0"/>
        <pt x="745" y="255" on="1"/>
        <pt x="501" y="255" on="0"/>
        <pt x="158" y="591" on="0"/>
        <pt x="59" y="927" on="1"/>
        <pt x="210" y="970" on="1"/>
        <pt x="291" y="681" on="0"/>
        <pt x="546" y="405" on="0"/>
        <pt x="750" y="405" on="1"/>
        <pt x="899" y="405" on="0"/>
        <pt x="1065" y="515" on="0"/>
        <pt x="1065" y="617" on="1"/>
        <pt x="1065" y="657" on="0"/>
        <pt x="1052" y="703" on="1"/>
        <pt x="982" y="642" on="0"/>
        <pt x="828" y="569" on="0"/>
        <pt x="727" y="569" on="1"/>
        <pt x="610" y="569" on="0"/>
        <pt x="473" y="723" on="0"/>
        <pt x="473" y="848" on="1"/>
        <pt x="473" y="1018" on="0"/>
        <pt x="562" y="1131" on="1"/>
        <pt x="504" y="1128" on="0"/>
        <pt x="447" y="1128" on="1"/>
        <pt x="-21" y="1128" on="1"/>
        <pt x="-21" y="1274" on="1"/>
        <pt x="1300" y="1274" on="1"/>
        <pt x="1300" y="1128" on="1"/>
      </contour>
      <contour>
        <pt x="649" y="999" on="1"/>
        <pt x="717" y="979" on="0"/>
        <pt x="787" y="979" on="1"/>
        <pt x="856" y="979" on="0"/>
        <pt x="930" y="1032" on="0"/>
        <pt x="930" y="1079" on="1"/>
        <pt x="930" y="1118" on="0"/>
        <pt x="878" y="1158" on="0"/>
        <pt x="833" y="1158" on="1"/>
        <pt x="774" y="1158" on="0"/>
        <pt x="677" y="1074" on="0"/>
      </contour>
    </TTGlyph>
    <TTGlyph name="glyph00135" xMin="-21" yMin="255" xMax="1034" yMax="1274">
      <contour>
        <pt x="325" y="1090" on="1"/>
        <pt x="386" y="1012" on="0"/>
        <pt x="531" y="953" on="0"/>
        <pt x="644" y="953" on="1"/>
        <pt x="705" y="953" on="1"/>
        <pt x="788" y="953" on="0"/>
        <pt x="875" y="924" on="0"/>
        <pt x="933" y="870" on="0"/>
        <pt x="962" y="787" on="0"/>
        <pt x="962" y="733" on="1"/>
        <pt x="962" y="627" on="0"/>
        <pt x="825" y="404" on="0"/>
        <pt x="581" y="255" on="0"/>
        <pt x="438" y="255" on="1"/>
        <pt x="341" y="255" on="0"/>
        <pt x="224" y="323" on="0"/>
        <pt x="168" y="434" on="0"/>
        <pt x="168" y="556" on="1"/>
        <pt x="168" y="1128" on="1"/>
        <pt x="-21" y="1128" on="1"/>
        <pt x="-21" y="1274" on="1"/>
        <pt x="1034" y="1274" on="1"/>
        <pt x="1034" y="1128" on="1"/>
        <pt x="325" y="1128" on="1"/>
      </contour>
      <contour>
        <pt x="321" y="929" on="1"/>
        <pt x="325" y="874" on="0"/>
        <pt x="325" y="824" on="1"/>
        <pt x="325" y="562" on="1"/>
        <pt x="325" y="490" on="0"/>
        <pt x="348" y="428" on="0"/>
        <pt x="402" y="396" on="0"/>
        <pt x="451" y="396" on="1"/>
        <pt x="541" y="396" on="0"/>
        <pt x="705" y="497" on="0"/>
        <pt x="799" y="645" on="0"/>
        <pt x="799" y="710" on="1"/>
        <pt x="799" y="746" on="0"/>
        <pt x="774" y="787" on="0"/>
        <pt x="727" y="807" on="0"/>
        <pt x="675" y="807" on="1"/>
        <pt x="663" y="807" on="1"/>
        <pt x="572" y="807" on="0"/>
        <pt x="469" y="829" on="0"/>
        <pt x="359" y="889" on="0"/>
      </contour>
    </TTGlyph>
    <TTGlyph name="glyph00136" xMin="-21" yMin="-549" xMax="1427" yMax="1274">
      <component glyphName="uni099B" x="0" y="0" flags="0x204"/>
      <component glyphName="uni09CD" x="1143" y="0" flags="0x4"/>
    </TTGlyph>
    <TTGlyph name="glyph00137" xMin="-21" yMin="-549" xMax="1898" yMax="1274">
      <component glyphName="uni099C" x="0" y="0" flags="0x204"/>
      <component glyphName="uni09CD" x="1522" y="0" flags="0x4"/>
    </TTGlyph>
    <TTGlyph name="glyph00138" xMin="-21" yMin="-549" xMax="1647" yMax="1409">
      <component glyphName="uni099D" x="0" y="0" flags="0x204"/>
      <component glyphName="uni09CD" x="1199" y="0" flags="0x4"/>
    </TTGlyph>
    <TTGlyph name="glyph00139" xMin="94" yMin="-549" xMax="1976" yMax="1286">
      <component glyphName="uni099E" x="0" y="0" flags="0x204"/>
      <component glyphName="uni09CD" x="1573" y="0" flags="0x4"/>
    </TTGlyph>
    <TTGlyph name="glyph00140" xMin="-21" yMin="255" xMax="1034" yMax="1868">
      <contour>
        <pt x="1034" y="1274" on="1"/>
        <pt x="1034" y="1128" on="1"/>
        <pt x="325" y="1128" on="1"/>
        <pt x="325" y="562" on="1"/>
        <pt x="325" y="501" on="0"/>
        <pt x="343" y="433" on="0"/>
        <pt x="398" y="396" on="0"/>
        <pt x="453" y="396" on="1"/>
        <pt x="532" y="396" on="0"/>
        <pt x="686" y="479" on="0"/>
        <pt x="802" y="636" on="0"/>
        <pt x="802" y="718" on="1"/>
        <pt x="802" y="820" on="0"/>
        <pt x="684" y="820" on="1"/>
        <pt x="626" y="820" on="0"/>
        <pt x="582" y="809" on="1"/>
        <pt x="561" y="948" on="1"/>
        <pt x="640" y="968" on="0"/>
        <pt x="718" y="968" on="1"/>
        <pt x="836" y="968" on="0"/>
        <pt x="962" y="847" on="0"/>
        <pt x="962" y="735" on="1"/>
        <pt x="962" y="629" on="0"/>
        <pt x="831" y="411" on="0"/>
        <pt x="585" y="255" on="0"/>
        <pt x="439" y="255" on="1"/>
        <pt x="341" y="255" on="0"/>
        <pt x="219" y="327" on="0"/>
        <pt x="168" y="442" on="0"/>
        <pt x="168" y="555" on="1"/>
        <pt x="168" y="1128" on="1"/>
        <pt x="-21" y="1128" on="1"/>
        <pt x="-21" y="1274" on="1"/>
        <pt x="769" y="1274" on="1"/>
        <pt x="765" y="1361" on="0"/>
        <pt x="690" y="1432" on="0"/>
        <pt x="606" y="1432" on="1"/>
        <pt x="453" y="1432" on="1"/>
        <pt x="262" y="1432" on="0"/>
        <pt x="91" y="1517" on="0"/>
        <pt x="12" y="1659" on="0"/>
        <pt x="12" y="1759" on="1"/>
        <pt x="12" y="1806" on="0"/>
        <pt x="23" y="1868" on="1"/>
        <pt x="174" y="1858" on="1"/>
        <pt x="165" y="1812" on="0"/>
        <pt x="165" y="1780" on="1"/>
        <pt x="165" y="1706" on="0"/>
        <pt x="220" y="1616" on="0"/>
        <pt x="332" y="1579" on="0"/>
        <pt x="442" y="1579" on="1"/>
        <pt x="562" y="1579" on="1"/>
        <pt x="685" y="1579" on="0"/>
        <pt x="831" y="1532" on="0"/>
        <pt x="912" y="1401" on="0"/>
        <pt x="917" y="1274" on="1"/>
      </contour>
    </TTGlyph>
    <TTGlyph name="glyph00141" xMin="-21" yMin="-549" xMax="1231" yMax="1878">
      <component glyphName="uni09A0" x="0" y="0" flags="0x204"/>
      <component glyphName="uni09CD" x="974" y="0" flags="0x4"/>
    </TTGlyph>
    <TTGlyph name="glyph00142" xMin="-21" yMin="280" xMax="1279" yMax="1274">
      <contour>
        <pt x="655" y="868" on="1"/>
        <pt x="655" y="816" on="0"/>
        <pt x="693" y="783" on="0"/>
        <pt x="719" y="783" on="1"/>
        <pt x="772" y="783" on="0"/>
        <pt x="882" y="876" on="0"/>
        <pt x="957" y="979" on="1"/>
        <pt x="1074" y="998" on="1"/>
        <pt x="1199" y="825" on="0"/>
        <pt x="1199" y="656" on="1"/>
        <pt x="1199" y="488" on="0"/>
        <pt x="958" y="280" on="0"/>
        <pt x="751" y="280" on="1"/>
        <pt x="493" y="280" on="0"/>
        <pt x="158" y="628" on="0"/>
        <pt x="59" y="972" on="1"/>
        <pt x="210" y="1014" on="1"/>
        <pt x="291" y="715" on="0"/>
        <pt x="546" y="431" on="0"/>
        <pt x="746" y="431" on="1"/>
        <pt x="885" y="431" on="0"/>
        <pt x="1044" y="551" on="0"/>
        <pt x="1044" y="659" on="1"/>
        <pt x="1044" y="747" on="0"/>
        <pt x="1004" y="820" on="1"/>
        <pt x="932" y="729" on="0"/>
        <pt x="780" y="638" on="0"/>
        <pt x="699" y="638" on="1"/>
        <pt x="629" y="638" on="0"/>
        <pt x="537" y="701" on="0"/>
        <pt x="498" y="798" on="0"/>
        <pt x="498" y="881" on="1"/>
        <pt x="498" y="1128" on="1"/>
        <pt x="-21" y="1128" on="1"/>
        <pt x="-21" y="1274" on="1"/>
        <pt x="1279" y="1274" on="1"/>
        <pt x="1279" y="1128" on="1"/>
        <pt x="655" y="1128" on="1"/>
      </contour>
    </TTGlyph>
    <TTGlyph name="glyph00143" xMin="-21" yMin="255" xMax="1034" yMax="1274">
      <contour>
        <pt x="582" y="809" on="1"/>
        <pt x="561" y="948" on="1"/>
        <pt x="640" y="968" on="0"/>
        <pt x="718" y="968" on="1"/>
        <pt x="836" y="968" on="0"/>
        <pt x="962" y="847" on="0"/>
        <pt x="962" y="735" on="1"/>
        <pt x="962" y="629" on="0"/>
        <pt x="831" y="411" on="0"/>
        <pt x="585" y="255" on="0"/>
        <pt x="439" y="255" on="1"/>
        <pt x="341" y="255" on="0"/>
        <pt x="219" y="327" on="0"/>
        <pt x="168" y="442" on="0"/>
        <pt x="168" y="555" on="1"/>
        <pt x="168" y="1128" on="1"/>
        <pt x="-21" y="1128" on="1"/>
        <pt x="-21" y="1274" on="1"/>
        <pt x="1034" y="1274" on="1"/>
        <pt x="1034" y="1128" on="1"/>
        <pt x="325" y="1128" on="1"/>
        <pt x="325" y="562" on="1"/>
        <pt x="325" y="501" on="0"/>
        <pt x="343" y="433" on="0"/>
        <pt x="398" y="396" on="0"/>
        <pt x="453" y="396" on="1"/>
        <pt x="532" y="396" on="0"/>
        <pt x="686" y="479" on="0"/>
        <pt x="802" y="636" on="0"/>
        <pt x="802" y="718" on="1"/>
        <pt x="802" y="820" on="0"/>
        <pt x="684" y="820" on="1"/>
        <pt x="626" y="820" on="0"/>
      </contour>
    </TTGlyph>
    <TTGlyph name="glyph00144" xMin="92" yMin="688" xMax="930" yMax="1287">
      <contour>
        <pt x="930" y="958" on="1"/>
        <pt x="816" y="857" on="1"/>
        <pt x="708" y="1000" on="0"/>
        <pt x="515" y="1138" on="0"/>
        <pt x="422" y="1138" on="1"/>
        <pt x="349" y="1138" on="0"/>
        <pt x="260" y="1065" on="0"/>
        <pt x="260" y="999" on="1"/>
        <pt x="260" y="944" on="0"/>
        <pt x="332" y="866" on="0"/>
        <pt x="409" y="834" on="1"/>
        <pt x="330" y="688" on="1"/>
        <pt x="213" y="740" on="0"/>
        <pt x="92" y="906" on="0"/>
        <pt x="92" y="1006" on="1"/>
        <pt x="92" y="1134" on="0"/>
        <pt x="267" y="1287" on="0"/>
        <pt x="389" y="1287" on="1"/>
        <pt x="531" y="1287" on="0"/>
        <pt x="750" y="1158" on="0"/>
      </contour>
    </TTGlyph>
    <TTGlyph name="glyph00145" xMin="-21" yMin="-549" xMax="1468" yMax="1274">
      <component glyphName="uni09A4" x="0" y="0" flags="0x200"/>
      <component glyphName="uni09CD" x="1218" y="0" flags="0x4"/>
    </TTGlyph>
    <TTGlyph name="glyph00146" xMin="78" yMin="-549" xMax="1552" yMax="1409">
      <component glyphName="uni09A5" x="0" y="0" flags="0x204"/>
      <component glyphName="uni09CD" x="1320" y="0" flags="0x4"/>
    </TTGlyph>
    <TTGlyph name="glyph00147" xMin="-21" yMin="241" xMax="1105" yMax="1274">
      <contour>
        <pt x="-21" y="1128" on="1"/>
        <pt x="-21" y="1274" on="1"/>
        <pt x="1105" y="1274" on="1"/>
        <pt x="1105" y="1128" on="1"/>
        <pt x="325" y="1128" on="1"/>
        <pt x="325" y="755" on="1"/>
        <pt x="455" y="852" on="0"/>
        <pt x="738" y="992" on="0"/>
        <pt x="892" y="1036" on="1"/>
        <pt x="1011" y="917" on="1"/>
        <pt x="932" y="783" on="0"/>
        <pt x="932" y="587" on="1"/>
        <pt x="932" y="433" on="0"/>
        <pt x="987" y="274" on="1"/>
        <pt x="835" y="241" on="1"/>
        <pt x="806" y="326" on="0"/>
        <pt x="772" y="515" on="0"/>
        <pt x="772" y="593" on="1"/>
        <pt x="772" y="768" on="0"/>
        <pt x="817" y="860" on="1"/>
        <pt x="684" y="812" on="0"/>
        <pt x="414" y="647" on="0"/>
        <pt x="278" y="530" on="1"/>
        <pt x="168" y="600" on="1"/>
        <pt x="168" y="1128" on="1"/>
      </contour>
    </TTGlyph>
    <TTGlyph name="glyph00148" xMin="75" yMin="-549" xMax="1453" yMax="1288">
      <component glyphName="uni09A7" x="0" y="0" flags="0x204"/>
      <component glyphName="uni09CD" x="1221" y="0" flags="0x4"/>
    </TTGlyph>
    <TTGlyph name="glyph00149" xMin="-21" yMin="405" xMax="877" yMax="1274">
      <contour>
        <pt x="-21" y="1128" on="1"/>
        <pt x="-21" y="1274" on="1"/>
        <pt x="775" y="1274" on="1"/>
        <pt x="775" y="1128" on="1"/>
      </contour>
      <contour>
        <pt x="769" y="647" on="1"/>
        <pt x="676" y="751" on="0"/>
        <pt x="501" y="856" on="0"/>
        <pt x="424" y="856" on="1"/>
        <pt x="350" y="856" on="0"/>
        <pt x="262" y="781" on="0"/>
        <pt x="262" y="716" on="1"/>
        <pt x="262" y="661" on="0"/>
        <pt x="334" y="583" on="0"/>
        <pt x="411" y="551" on="1"/>
        <pt x="338" y="405" on="1"/>
        <pt x="220" y="456" on="0"/>
        <pt x="94" y="621" on="0"/>
        <pt x="94" y="723" on="1"/>
        <pt x="94" y="850" on="0"/>
        <pt x="270" y="1004" on="0"/>
        <pt x="400" y="1004" on="1"/>
        <pt x="517" y="1004" on="0"/>
        <pt x="729" y="897" on="0"/>
        <pt x="877" y="756" on="1"/>
      </contour>
    </TTGlyph>
    <TTGlyph name="glyph00150" xMin="45" yMin="500" xMax="1236" yMax="1288">
      <contour>
        <pt x="1116" y="741" on="1"/>
        <pt x="1029" y="862" on="0"/>
        <pt x="970" y="930" on="1"/>
        <pt x="429" y="500" on="1"/>
        <pt x="322" y="623" on="1"/>
        <pt x="384" y="668" on="1"/>
        <pt x="438" y="722" on="0"/>
        <pt x="438" y="785" on="1"/>
        <pt x="438" y="833" on="0"/>
        <pt x="385" y="888" on="0"/>
        <pt x="335" y="888" on="1"/>
        <pt x="258" y="888" on="0"/>
        <pt x="191" y="848" on="1"/>
        <pt x="45" y="993" on="1"/>
        <pt x="191" y="1148" on="0"/>
        <pt x="454" y="1288" on="0"/>
        <pt x="595" y="1288" on="1"/>
        <pt x="759" y="1288" on="0"/>
        <pt x="1029" y="1104" on="0"/>
        <pt x="1236" y="836" on="1"/>
      </contour>
      <contour>
        <pt x="572" y="824" on="1"/>
        <pt x="572" y="810" on="1"/>
        <pt x="572" y="803" on="0"/>
        <pt x="571" y="797" on="1"/>
        <pt x="869" y="1033" on="1"/>
        <pt x="748" y="1138" on="0"/>
        <pt x="604" y="1138" on="1"/>
        <pt x="419" y="1138" on="0"/>
        <pt x="241" y="985" on="1"/>
        <pt x="304" y="1016" on="0"/>
        <pt x="372" y="1016" on="1"/>
        <pt x="468" y="1016" on="0"/>
        <pt x="572" y="912" on="0"/>
      </contour>
    </TTGlyph>
    <TTGlyph name="glyph00151" xMin="-21" yMin="-549" xMax="1737" yMax="1274">
      <component glyphName="uni09AB" x="0" y="0" flags="0x204"/>
      <component glyphName="uni09CD" x="1275" y="0" flags="0x4"/>
    </TTGlyph>
    <TTGlyph name="glyph00152" xMin="-21" yMin="255" xMax="1066" yMax="1274">
      <contour>
        <pt x="921" y="1128" on="1"/>
        <pt x="921" y="255" on="1"/>
        <pt x="764" y="255" on="1"/>
        <pt x="666" y="401" on="0"/>
        <pt x="360" y="573" on="0"/>
        <pt x="152" y="599" on="1"/>
        <pt x="75" y="783" on="1"/>
        <pt x="250" y="869" on="0"/>
        <pt x="595" y="1003" on="0"/>
        <pt x="764" y="1052" on="1"/>
        <pt x="764" y="1128" on="1"/>
        <pt x="-21" y="1128" on="1"/>
        <pt x="-21" y="1274" on="1"/>
        <pt x="1066" y="1274" on="1"/>
        <pt x="1066" y="1128" on="1"/>
      </contour>
      <contour>
        <pt x="764" y="900" on="1"/>
        <pt x="641" y="863" on="0"/>
        <pt x="399" y="773" on="0"/>
        <pt x="280" y="719" on="1"/>
        <pt x="425" y="689" on="0"/>
        <pt x="671" y="556" on="0"/>
        <pt x="771" y="454" on="1"/>
        <pt x="764" y="584" on="0"/>
        <pt x="764" y="625" on="1"/>
      </contour>
    </TTGlyph>
    <TTGlyph name="glyph00153" xMin="-21" yMin="-549" xMax="1497" yMax="1274">
      <component glyphName="uni09AD" x="0" y="0" flags="0x204"/>
      <component glyphName="uni09CD" x="1088" y="0" flags="0x4"/>
    </TTGlyph>
    <TTGlyph name="glyph00154" xMin="-20" yMin="519" xMax="1189" yMax="1274">
      <contour>
        <pt x="1037" y="1128" on="1"/>
        <pt x="1106" y="1021" on="0"/>
        <pt x="1106" y="905" on="1"/>
        <pt x="1106" y="764" on="0"/>
        <pt x="954" y="614" on="0"/>
        <pt x="810" y="614" on="1"/>
        <pt x="724" y="614" on="0"/>
        <pt x="578" y="673" on="0"/>
        <pt x="480" y="748" on="1"/>
        <pt x="417" y="795" on="0"/>
        <pt x="366" y="817" on="0"/>
        <pt x="336" y="817" on="1"/>
        <pt x="299" y="817" on="0"/>
        <pt x="254" y="780" on="0"/>
        <pt x="254" y="743" on="1"/>
        <pt x="254" y="688" on="0"/>
        <pt x="328" y="631" on="1"/>
        <pt x="216" y="519" on="1"/>
        <pt x="86" y="624" on="0"/>
        <pt x="86" y="756" on="1"/>
        <pt x="86" y="852" on="0"/>
        <pt x="220" y="963" on="0"/>
        <pt x="322" y="963" on="1"/>
        <pt x="331" y="963" on="1"/>
        <pt x="335" y="963" on="0"/>
        <pt x="339" y="962" on="1"/>
        <pt x="312" y="1084" on="0"/>
        <pt x="174" y="1128" on="1"/>
        <pt x="-20" y="1128" on="1"/>
        <pt x="-20" y="1274" on="1"/>
        <pt x="1189" y="1274" on="1"/>
        <pt x="1189" y="1128" on="1"/>
      </contour>
      <contour>
        <pt x="853" y="1128" on="1"/>
        <pt x="412" y="1128" on="1"/>
        <pt x="458" y="1089" on="0"/>
        <pt x="502" y="985" on="0"/>
        <pt x="502" y="905" on="1"/>
        <pt x="502" y="902" on="1"/>
        <pt x="570" y="856" on="1"/>
        <pt x="654" y="795" on="0"/>
        <pt x="746" y="760" on="0"/>
        <pt x="796" y="760" on="1"/>
        <pt x="950" y="760" on="0"/>
        <pt x="950" y="905" on="1"/>
        <pt x="950" y="1014" on="0"/>
      </contour>
    </TTGlyph>
    <TTGlyph name="glyph00155" xMin="-21" yMin="-549" xMax="1514" yMax="1274">
      <component glyphName="uni09AF" x="0" y="0" flags="0x204"/>
      <component glyphName="uni09CD" x="1282" y="0" flags="0x4"/>
    </TTGlyph>
    <TTGlyph name="glyph00156" xMin="-21" yMin="356" xMax="1218" yMax="1274">
      <contour>
        <pt x="-21" y="1128" on="1"/>
        <pt x="-21" y="1274" on="1"/>
        <pt x="1120" y="1274" on="1"/>
        <pt x="1120" y="1128" on="1"/>
      </contour>
      <contour>
        <pt x="1099" y="689" on="1"/>
        <pt x="1011" y="819" on="0"/>
        <pt x="903" y="819" on="1"/>
        <pt x="851" y="819" on="0"/>
        <pt x="780" y="754" on="0"/>
        <pt x="780" y="693" on="1"/>
        <pt x="780" y="671" on="0"/>
        <pt x="785" y="644" on="1"/>
        <pt x="652" y="637" on="1"/>
        <pt x="633" y="734" on="0"/>
        <pt x="505" y="848" on="0"/>
        <pt x="423" y="848" on="1"/>
        <pt x="349" y="848" on="0"/>
        <pt x="261" y="774" on="0"/>
        <pt x="261" y="711" on="1"/>
        <pt x="261" y="641" on="0"/>
        <pt x="357" y="546" on="0"/>
        <pt x="478" y="507" on="1"/>
        <pt x="423" y="356" on="1"/>
        <pt x="258" y="406" on="0"/>
        <pt x="94" y="588" on="0"/>
        <pt x="94" y="721" on="1"/>
        <pt x="94" y="838" on="0"/>
        <pt x="277" y="996" on="0"/>
        <pt x="407" y="996" on="1"/>
        <pt x="501" y="996" on="0"/>
        <pt x="639" y="930" on="0"/>
        <pt x="700" y="854" on="1"/>
        <pt x="726" y="906" on="0"/>
        <pt x="824" y="964" on="0"/>
        <pt x="885" y="964" on="1"/>
        <pt x="978" y="964" on="0"/>
        <pt x="1130" y="884" on="0"/>
        <pt x="1218" y="785" on="1"/>
      </contour>
    </TTGlyph>
    <TTGlyph name="glyph00157" xMin="-18" yMin="614" xMax="1207" yMax="1288">
      <contour>
        <pt x="-18" y="1269" on="1"/>
        <pt x="76" y="1288" on="0"/>
        <pt x="158" y="1288" on="1"/>
        <pt x="262" y="1288" on="0"/>
        <pt x="424" y="1194" on="0"/>
        <pt x="463" y="1108" on="1"/>
        <pt x="498" y="1196" on="0"/>
        <pt x="643" y="1288" on="0"/>
        <pt x="745" y="1288" on="1"/>
        <pt x="871" y="1288" on="0"/>
        <pt x="1083" y="1144" on="0"/>
        <pt x="1207" y="968" on="1"/>
        <pt x="1086" y="874" on="1"/>
        <pt x="981" y="1030" on="0"/>
        <pt x="828" y="1138" on="0"/>
        <pt x="744" y="1138" on="1"/>
        <pt x="660" y="1138" on="0"/>
        <pt x="565" y="1046" on="0"/>
        <pt x="565" y="964" on="1"/>
        <pt x="565" y="876" on="0"/>
        <pt x="707" y="779" on="0"/>
        <pt x="845" y="772" on="1"/>
        <pt x="831" y="614" on="1"/>
        <pt x="692" y="622" on="0"/>
        <pt x="511" y="722" on="0"/>
        <pt x="470" y="814" on="1"/>
        <pt x="430" y="719" on="0"/>
        <pt x="244" y="614" on="0"/>
        <pt x="111" y="614" on="1"/>
        <pt x="98" y="772" on="1"/>
        <pt x="231" y="774" on="0"/>
        <pt x="371" y="875" on="0"/>
        <pt x="371" y="958" on="1"/>
        <pt x="371" y="1044" on="0"/>
        <pt x="259" y="1138" on="0"/>
        <pt x="155" y="1138" on="1"/>
        <pt x="79" y="1138" on="0"/>
        <pt x="-2" y="1116" on="1"/>
      </contour>
    </TTGlyph>
    <TTGlyph name="glyph00158" xMin="-21" yMin="540" xMax="1054" yMax="1274">
      <contour>
        <pt x="911" y="1128" on="1"/>
        <pt x="974" y="1047" on="0"/>
        <pt x="974" y="928" on="1"/>
        <pt x="974" y="814" on="0"/>
        <pt x="851" y="638" on="0"/>
        <pt x="627" y="540" on="0"/>
        <pt x="495" y="540" on="1"/>
        <pt x="316" y="540" on="0"/>
        <pt x="94" y="732" on="0"/>
        <pt x="94" y="893" on="1"/>
        <pt x="94" y="1031" on="0"/>
        <pt x="193" y="1130" on="1"/>
        <pt x="158" y="1128" on="0"/>
        <pt x="75" y="1128" on="1"/>
        <pt x="-21" y="1128" on="1"/>
        <pt x="-21" y="1274" on="1"/>
        <pt x="1054" y="1274" on="1"/>
        <pt x="1054" y="1128" on="1"/>
      </contour>
      <contour>
        <pt x="361" y="1086" on="1"/>
        <pt x="606" y="978" on="0"/>
        <pt x="791" y="824" on="1"/>
        <pt x="820" y="878" on="0"/>
        <pt x="820" y="936" on="1"/>
        <pt x="820" y="1031" on="0"/>
        <pt x="690" y="1135" on="0"/>
        <pt x="562" y="1135" on="1"/>
        <pt x="443" y="1135" on="0"/>
      </contour>
      <contour>
        <pt x="692" y="730" on="1"/>
        <pt x="491" y="889" on="0"/>
        <pt x="266" y="983" on="1"/>
        <pt x="248" y="943" on="0"/>
        <pt x="248" y="893" on="1"/>
        <pt x="248" y="798" on="0"/>
        <pt x="387" y="686" on="0"/>
        <pt x="508" y="686" on="1"/>
        <pt x="614" y="686" on="0"/>
      </contour>
    </TTGlyph>
    <TTGlyph name="glyph00159" xMin="-20" yMin="614" xMax="1415" yMax="1274">
      <contour>
        <pt x="1263" y="1128" on="1"/>
        <pt x="1332" y="1021" on="0"/>
        <pt x="1332" y="905" on="1"/>
        <pt x="1332" y="768" on="0"/>
        <pt x="1168" y="614" on="0"/>
        <pt x="1023" y="614" on="1"/>
        <pt x="899" y="614" on="0"/>
        <pt x="710" y="739" on="0"/>
        <pt x="653" y="860" on="1"/>
        <pt x="617" y="740" on="0"/>
        <pt x="491" y="614" on="0"/>
        <pt x="403" y="614" on="1"/>
        <pt x="302" y="614" on="0"/>
        <pt x="152" y="730" on="0"/>
        <pt x="75" y="853" on="1"/>
        <pt x="201" y="928" on="1"/>
        <pt x="236" y="867" on="0"/>
        <pt x="293" y="800" on="0"/>
        <pt x="343" y="773" on="0"/>
        <pt x="381" y="773" on="1"/>
        <pt x="468" y="773" on="0"/>
        <pt x="550" y="952" on="0"/>
        <pt x="554" y="1128" on="1"/>
        <pt x="-20" y="1128" on="1"/>
        <pt x="-20" y="1274" on="1"/>
        <pt x="1415" y="1274" on="1"/>
        <pt x="1415" y="1128" on="1"/>
      </contour>
      <contour>
        <pt x="1079" y="1128" on="1"/>
        <pt x="697" y="1128" on="1"/>
        <pt x="738" y="944" on="0"/>
        <pt x="903" y="760" on="0"/>
        <pt x="1026" y="760" on="1"/>
        <pt x="1098" y="760" on="0"/>
        <pt x="1176" y="836" on="0"/>
        <pt x="1176" y="905" on="1"/>
        <pt x="1176" y="1014" on="0"/>
      </contour>
    </TTGlyph>
    <TTGlyph name="glyph00160" xMin="-21" yMin="-549" xMax="1169" yMax="1274">
      <component glyphName="uni09B9" x="0" y="0" flags="0x204"/>
      <component glyphName="uni09CD" x="937" y="0" flags="0x4"/>
    </TTGlyph>
    <TTGlyph name="glyph00161" xMin="-21" yMin="-549" xMax="1453" yMax="1274">
      <component glyphName="uni09F0" x="0" y="0" flags="0x204"/>
      <component glyphName="uni09CD" x="1221" y="0" flags="0x4"/>
    </TTGlyph>
    <TTGlyph name="glyph00162" xMin="-21" yMin="-549" xMax="1453" yMax="1274">
      <component glyphName="uni09F1" x="0" y="0" flags="0x204"/>
      <component glyphName="uni09CD" x="1221" y="0" flags="0x4"/>
    </TTGlyph>
    <TTGlyph name="glyph00163" xMin="-20" yMin="-549" xMax="1967" yMax="1274">
      <component glyphName="glyph00125" x="0" y="0" flags="0x200"/>
      <component glyphName="uni09CD" x="1511" y="0" flags="0x4"/>
    </TTGlyph>
    <TTGlyph name="glyph00164" xMin="-21" yMin="-549" xMax="2015" yMax="1274">
      <component glyphName="glyph00126" x="0" y="0" flags="0x204"/>
      <component glyphName="uni09CD" x="1337" y="0" flags="0x4"/>
    </TTGlyph>
    <TTGlyph name="glyph00165" xMin="-21" yMin="-549" xMax="1674" yMax="1274">
      <component glyphName="uni0995" x="0" y="0" flags="0x204"/>
      <component glyphName="uni09CD" x="1202" y="0" flags="0x4"/>
      <component glyphName="uni09BC" x="1033" y="363" flags="0x4"/>
    </TTGlyph>
    <TTGlyph name="glyph00166" xMin="100" yMin="-549" xMax="1657" yMax="1409">
      <component glyphName="uni0996" x="0" y="0" flags="0x204"/>
      <component glyphName="uni09CD" x="1425" y="0" flags="0x4"/>
      <component glyphName="uni09BC" x="1188" y="363" flags="0x4"/>
    </TTGlyph>
    <TTGlyph name="glyph00167" xMin="46" yMin="-549" xMax="1576" yMax="1409">
      <component glyphName="uni0997" x="0" y="0" flags="0x204"/>
      <component glyphName="uni09CD" x="1344" y="0" flags="0x4"/>
      <component glyphName="uni09BC" x="1076" y="318" flags="0x4"/>
    </TTGlyph>
    <TTGlyph name="glyph00168" xMin="-21" yMin="-549" xMax="1525" yMax="1274">
      <component glyphName="uni0998" x="0" y="0" flags="0x204"/>
      <component glyphName="uni09CD" x="1293" y="0" flags="0x4"/>
      <component glyphName="uni09BC" x="1043" y="363" flags="0x4"/>
    </TTGlyph>
    <TTGlyph name="glyph00169" xMin="59" yMin="-549" xMax="1623" yMax="1288">
      <component glyphName="uni0999" x="0" y="0" flags="0x204"/>
      <component glyphName="uni09CD" x="1391" y="0" flags="0x4"/>
      <component glyphName="uni09BC" x="1393" y="0" flags="0x4"/>
    </TTGlyph>
    <TTGlyph name="glyph00170" xMin="-21" yMin="-549" xMax="1310" yMax="1274">
      <component glyphName="uni099A" x="0" y="0" flags="0x204"/>
      <component glyphName="uni09CD" x="1078" y="0" flags="0x4"/>
      <component glyphName="uni09BC" x="1099" y="0" flags="0x4"/>
    </TTGlyph>
    <TTGlyph name="glyph00171" xMin="-21" yMin="-549" xMax="1427" yMax="1274">
      <component glyphName="uni099B" x="0" y="0" flags="0x204"/>
      <component glyphName="uni09CD" x="1163" y="0" flags="0x4"/>
      <component glyphName="uni09BC" x="1127" y="72" flags="0x4"/>
    </TTGlyph>
    <TTGlyph name="glyph00172" xMin="-21" yMin="-549" xMax="1898" yMax="1274">
      <component glyphName="uni099C" x="0" y="0" flags="0x204"/>
      <component glyphName="uni09CD" x="1562" y="0" flags="0x4"/>
      <component glyphName="uni09BC" x="1531" y="80" flags="0x4"/>
    </TTGlyph>
    <TTGlyph name="glyph00173" xMin="-21" yMin="-549" xMax="1647" yMax="1409">
      <component glyphName="uni099D" x="0" y="0" flags="0x204"/>
      <component glyphName="uni09CD" x="1199" y="0" flags="0x4"/>
      <component glyphName="uni09BC" x="1043" y="363" flags="0x4"/>
    </TTGlyph>
    <TTGlyph name="glyph00174" xMin="94" yMin="-549" xMax="1976" yMax="1286">
      <component glyphName="uni099E" x="0" y="0" flags="0x204"/>
      <component glyphName="uni09CD" x="1573" y="0" flags="0x4"/>
      <component glyphName="uni09BC" x="1469" y="80" flags="0x4"/>
    </TTGlyph>
    <TTGlyph name="glyph00175" xMin="-21" yMin="-549" xMax="1310" yMax="1868">
      <component glyphName="uni099F" x="0" y="0" flags="0x204"/>
      <component glyphName="uni09BC" x="1099" y="0" flags="0x4"/>
      <component glyphName="uni09CD" x="1078" y="0" flags="0x4"/>
    </TTGlyph>
    <TTGlyph name="glyph00176" xMin="-21" yMin="-549" xMax="1332" yMax="1878">
      <component glyphName="uni09A0" x="0" y="0" flags="0x204"/>
      <component glyphName="uni09CD" x="1100" y="0" flags="0x4"/>
      <component glyphName="uni09BC" x="1078" y="0" flags="0x4"/>
    </TTGlyph>
    <TTGlyph name="glyph00177" xMin="-21" yMin="-95" xMax="1279" yMax="1274">
      <component glyphName="glyph00142" x="0" y="0" flags="0x204"/>
      <component glyphName="uni09BC" x="1332" y="280" flags="0x4"/>
    </TTGlyph>
    <TTGlyph name="glyph00178" xMin="-21" yMin="-107" xMax="1034" yMax="1274">
      <component glyphName="glyph00143" x="0" y="0" flags="0x204"/>
      <component glyphName="uni09BC" x="1165" y="268" flags="0x4"/>
    </TTGlyph>
    <TTGlyph name="glyph00179" xMin="92" yMin="-549" xMax="1466" yMax="1409">
      <component glyphName="uni09A3" x="0" y="0" flags="0x204"/>
      <component glyphName="uni09CD" x="1234" y="0" flags="0x4"/>
      <component glyphName="uni09BC" x="1112" y="365" flags="0x4"/>
    </TTGlyph>
    <TTGlyph name="glyph00180" xMin="-21" yMin="-549" xMax="1580" yMax="1274">
      <component glyphName="uni09A4" x="0" y="0" flags="0x204"/>
      <component glyphName="uni09CD" x="1348" y="0" flags="0x4"/>
      <component glyphName="uni09BC" x="1316" y="50" flags="0x4"/>
    </TTGlyph>
    <TTGlyph name="glyph00181" xMin="78" yMin="-549" xMax="1552" yMax="1409">
      <component glyphName="uni09A5" x="0" y="0" flags="0x204"/>
      <component glyphName="uni09CD" x="1320" y="0" flags="0x4"/>
      <component glyphName="uni09BC" x="1096" y="363" flags="0x4"/>
    </TTGlyph>
    <TTGlyph name="glyph00182" xMin="-21" yMin="-549" xMax="1457" yMax="1274">
      <component glyphName="uni09A6" x="0" y="0" flags="0x204"/>
      <component glyphName="uni09CD" x="1225" y="0" flags="0x4"/>
      <component glyphName="uni09BC" x="1205" y="122" flags="0x4"/>
    </TTGlyph>
    <TTGlyph name="glyph00183" xMin="75" yMin="-549" xMax="1453" yMax="1288">
      <component glyphName="uni09A7" x="0" y="0" flags="0x204"/>
      <component glyphName="uni09CD" x="1221" y="0" flags="0x4"/>
      <component glyphName="uni09BC" x="1043" y="363" flags="0x4"/>
    </TTGlyph>
    <TTGlyph name="glyph00184" xMin="-21" yMin="-549" xMax="1468" yMax="1274">
      <component glyphName="uni09A8" x="0" y="0" flags="0x204"/>
      <component glyphName="uni09CD" x="1236" y="0" flags="0x4"/>
      <component glyphName="uni09BC" x="1124" y="188" flags="0x4"/>
    </TTGlyph>
    <TTGlyph name="glyph00185" xMin="45" yMin="-549" xMax="1699" yMax="1409">
      <component glyphName="uni09AA" x="0" y="0" flags="0x204"/>
      <component glyphName="uni09CD" x="1467" y="0" flags="0x4"/>
      <component glyphName="uni09BC" x="1201" y="363" flags="0x4"/>
    </TTGlyph>
    <TTGlyph name="glyph00186" xMin="-21" yMin="-549" xMax="1737" yMax="1274">
      <component glyphName="uni09AB" x="0" y="0" flags="0x204"/>
      <component glyphName="uni09BC" x="1031" y="363" flags="0x4"/>
      <component glyphName="uni09CD" x="1275" y="0" flags="0x4"/>
    </TTGlyph>
    <TTGlyph name="glyph00187" xMin="-21" yMin="-549" xMax="1452" yMax="1274">
      <component glyphName="uni09AC" x="0" y="0" flags="0x200"/>
      <component glyphName="uni09CD" x="1220" y="0" flags="0x4"/>
      <component glyphName="uni09BC" x="1043" y="363" flags="0x4"/>
    </TTGlyph>
    <TTGlyph name="glyph00188" xMin="-21" yMin="-549" xMax="1497" yMax="1274">
      <component glyphName="uni09AD" x="0" y="0" flags="0x204"/>
      <component glyphName="uni09CD" x="1199" y="0" flags="0x4"/>
      <component glyphName="uni09BC" x="1172" y="100" flags="0x4"/>
    </TTGlyph>
    <TTGlyph name="glyph00189" xMin="-21" yMin="-549" xMax="1505" yMax="1274">
      <component glyphName="uni09AE" x="0" y="0" flags="0x204"/>
      <component glyphName="uni09CD" x="1273" y="0" flags="0x4"/>
      <component glyphName="uni09BC" x="1124" y="118" flags="0x4"/>
    </TTGlyph>
    <TTGlyph name="glyph00190" xMin="-21" yMin="-549" xMax="1514" yMax="1274">
      <component glyphName="uni09AF" x="0" y="0" flags="0x200"/>
      <component glyphName="uni09CD" x="1282" y="0" flags="0x4"/>
      <component glyphName="uni09BC" x="1032" y="363" flags="0x4"/>
    </TTGlyph>
    <TTGlyph name="glyph00191" xMin="-21" yMin="-549" xMax="1730" yMax="1274">
      <component glyphName="uni09B2" x="0" y="0" flags="0x204"/>
      <component glyphName="uni09CD" x="1498" y="0" flags="0x4"/>
      <component glyphName="uni09BC" x="1343" y="363" flags="0x4"/>
    </TTGlyph>
    <TTGlyph name="glyph00192" xMin="-18" yMin="-549" xMax="1618" yMax="1409">
      <component glyphName="uni09B6" x="0" y="0" flags="0x204"/>
      <component glyphName="uni09CD" x="1386" y="0" flags="0x4"/>
      <component glyphName="uni09BC" x="1164" y="363" flags="0x4"/>
    </TTGlyph>
    <TTGlyph name="glyph00193" xMin="-21" yMin="-549" xMax="1528" yMax="1274">
      <component glyphName="uni09B7" x="0" y="0" flags="0x204"/>
      <component glyphName="uni09CD" x="1296" y="0" flags="0x4"/>
      <component glyphName="uni09BC" x="1032" y="363" flags="0x4"/>
    </TTGlyph>
    <TTGlyph name="glyph00194" xMin="-21" yMin="-549" xMax="1629" yMax="1274">
      <component glyphName="uni09B8" x="0" y="0" flags="0x204"/>
      <component glyphName="uni09CD" x="1397" y="0" flags="0x4"/>
      <component glyphName="uni09BC" x="1126" y="251" flags="0x4"/>
    </TTGlyph>
    <TTGlyph name="glyph00195" xMin="-21" yMin="-549" xMax="1169" yMax="1274">
      <component glyphName="uni09B9" x="0" y="0" flags="0x204"/>
      <component glyphName="uni09CD" x="937" y="0" flags="0x4"/>
      <component glyphName="uni09BC" x="1019" y="152" flags="0x4"/>
    </TTGlyph>
    <TTGlyph name="glyph00196" xMin="-21" yMin="-549" xMax="1453" yMax="1274">
      <component glyphName="uni09F0" x="0" y="0" flags="0x204"/>
      <component glyphName="uni09CD" x="1221" y="0" flags="0x4"/>
      <component glyphName="uni09BC" x="1043" y="363" flags="0x4"/>
    </TTGlyph>
    <TTGlyph name="glyph00197" xMin="-21" yMin="-549" xMax="1453" yMax="1274">
      <component glyphName="uni09F1" x="0" y="0" flags="0x204"/>
      <component glyphName="uni09CD" x="1221" y="0" flags="0x4"/>
      <component glyphName="uni09BC" x="952" y="198" flags="0x4"/>
    </TTGlyph>
    <TTGlyph name="glyph00198" xMin="-64" yMin="-107" xMax="543" yMax="1274">
      <contour>
        <pt x="-21" y="1274" on="1"/>
        <pt x="543" y="1274" on="1"/>
        <pt x="543" y="1128" on="1"/>
        <pt x="470" y="1128" on="1"/>
        <pt x="401" y="1067" on="0"/>
        <pt x="324" y="938" on="0"/>
        <pt x="324" y="809" on="1"/>
        <pt x="324" y="738" on="0"/>
        <pt x="358" y="589" on="1"/>
        <pt x="392" y="440" on="0"/>
        <pt x="392" y="339" on="1"/>
        <pt x="392" y="202" on="0"/>
        <pt x="295" y="28" on="0"/>
        <pt x="109" y="-80" on="0"/>
        <pt x="-20" y="-107" on="1"/>
        <pt x="-64" y="35" on="1"/>
        <pt x="20" y="55" on="0"/>
        <pt x="142" y="114" on="0"/>
        <pt x="204" y="187" on="0"/>
        <pt x="231" y="274" on="0"/>
        <pt x="231" y="345" on="1"/>
        <pt x="231" y="437" on="0"/>
        <pt x="197" y="581" on="1"/>
        <pt x="163" y="726" on="0"/>
        <pt x="163" y="805" on="1"/>
        <pt x="163" y="912" on="0"/>
        <pt x="218" y="1055" on="0"/>
        <pt x="282" y="1128" on="1"/>
        <pt x="-21" y="1128" on="1"/>
      </contour>
    </TTGlyph>
    <TTGlyph name="glyph00199" xMin="-20" yMin="0" xMax="1925" yMax="1274">
      <contour>
        <pt x="-20" y="1128" on="1"/>
        <pt x="-20" y="1274" on="1"/>
        <pt x="1925" y="1274" on="1"/>
        <pt x="1925" y="1128" on="1"/>
      </contour>
      <contour>
        <pt x="1271" y="495" on="1"/>
        <pt x="1271" y="0" on="1"/>
        <pt x="1118" y="0" on="1"/>
        <pt x="1095" y="93" on="0"/>
        <pt x="994" y="178" on="0"/>
        <pt x="911" y="178" on="1"/>
        <pt x="843" y="178" on="0"/>
        <pt x="729" y="161" on="1"/>
        <pt x="615" y="143" on="0"/>
        <pt x="550" y="143" on="1"/>
        <pt x="313" y="143" on="0"/>
        <pt x="94" y="340" on="0"/>
        <pt x="94" y="535" on="1"/>
        <pt x="94" y="623" on="0"/>
        <pt x="114" y="722" on="1"/>
        <pt x="269" y="699" on="1"/>
        <pt x="251" y="634" on="0"/>
        <pt x="251" y="543" on="1"/>
        <pt x="251" y="418" on="0"/>
        <pt x="385" y="294" on="0"/>
        <pt x="535" y="294" on="1"/>
        <pt x="594" y="294" on="0"/>
        <pt x="703" y="312" on="1"/>
        <pt x="812" y="329" on="0"/>
        <pt x="877" y="329" on="1"/>
        <pt x="1041" y="329" on="0"/>
        <pt x="1114" y="218" on="1"/>
        <pt x="1114" y="770" on="1"/>
        <pt x="1114" y="839" on="0"/>
        <pt x="1089" y="903" on="0"/>
        <pt x="1022" y="936" on="0"/>
        <pt x="965" y="936" on="1"/>
        <pt x="893" y="936" on="0"/>
        <pt x="754" y="863" on="0"/>
        <pt x="666" y="746" on="0"/>
        <pt x="666" y="697" on="1"/>
        <pt x="666" y="654" on="0"/>
        <pt x="719" y="617" on="0"/>
        <pt x="773" y="617" on="1"/>
        <pt x="815" y="617" on="0"/>
        <pt x="864" y="624" on="1"/>
        <pt x="878" y="480" on="1"/>
        <pt x="828" y="464" on="0"/>
        <pt x="742" y="464" on="1"/>
        <pt x="636" y="464" on="0"/>
        <pt x="505" y="578" on="0"/>
        <pt x="505" y="681" on="1"/>
        <pt x="505" y="772" on="0"/>
        <pt x="636" y="962" on="0"/>
        <pt x="851" y="1081" on="0"/>
        <pt x="967" y="1081" on="1"/>
        <pt x="1069" y="1081" on="0"/>
        <pt x="1201" y="1020" on="0"/>
        <pt x="1271" y="914" on="0"/>
        <pt x="1271" y="809" on="1"/>
        <pt x="1271" y="781" on="1"/>
        <pt x="1271" y="746" on="0"/>
        <pt x="1268" y="710" on="1"/>
        <pt x="1330" y="794" on="0"/>
        <pt x="1468" y="870" on="0"/>
        <pt x="1555" y="870" on="1"/>
        <pt x="1678" y="870" on="0"/>
        <pt x="1830" y="729" on="0"/>
        <pt x="1830" y="617" on="1"/>
        <pt x="1830" y="495" on="0"/>
        <pt x="1671" y="325" on="0"/>
        <pt x="1512" y="277" on="1"/>
        <pt x="1463" y="424" on="1"/>
        <pt x="1569" y="451" on="0"/>
        <pt x="1675" y="539" on="0"/>
        <pt x="1675" y="600" on="1"/>
        <pt x="1675" y="662" on="0"/>
        <pt x="1601" y="728" on="0"/>
        <pt x="1539" y="728" on="1"/>
        <pt x="1466" y="728" on="0"/>
        <pt x="1335" y="613" on="0"/>
      </contour>
      <contour>
        <pt x="1114" y="1274" on="1"/>
      </contour>
    </TTGlyph>
    <TTGlyph name="glyph00200" xMin="94" yMin="-240" xMax="1446" yMax="1409">
      <contour>
        <pt x="1446" y="1128" on="1"/>
        <pt x="1231" y="1128" on="1"/>
        <pt x="1231" y="-240" on="1"/>
        <pt x="1078" y="-240" on="1"/>
        <pt x="1049" y="-146" on="0"/>
        <pt x="932" y="-62" on="0"/>
        <pt x="836" y="-62" on="1"/>
        <pt x="779" y="-62" on="0"/>
        <pt x="661" y="-79" on="1"/>
        <pt x="543" y="-97" on="0"/>
        <pt x="475" y="-97" on="1"/>
        <pt x="300" y="-97" on="0"/>
        <pt x="94" y="64" on="0"/>
        <pt x="94" y="221" on="1"/>
        <pt x="94" y="289" on="0"/>
        <pt x="113" y="356" on="1"/>
        <pt x="270" y="337" on="1"/>
        <pt x="254" y="279" on="0"/>
        <pt x="254" y="227" on="1"/>
        <pt x="254" y="136" on="0"/>
        <pt x="361" y="50" on="0"/>
        <pt x="476" y="50" on="1"/>
        <pt x="533" y="50" on="0"/>
        <pt x="632" y="68" on="1"/>
        <pt x="730" y="85" on="0"/>
        <pt x="787" y="85" on="1"/>
        <pt x="979" y="85" on="0"/>
        <pt x="1074" y="-36" on="1"/>
        <pt x="1074" y="0" on="1"/>
        <pt x="932" y="203" on="0"/>
        <pt x="565" y="447" on="0"/>
        <pt x="340" y="488" on="1"/>
        <pt x="291" y="677" on="1"/>
        <pt x="529" y="695" on="0"/>
        <pt x="768" y="834" on="0"/>
        <pt x="768" y="954" on="1"/>
        <pt x="768" y="1033" on="0"/>
        <pt x="721" y="1096" on="1"/>
        <pt x="654" y="988" on="0"/>
        <pt x="480" y="881" on="0"/>
        <pt x="373" y="881" on="1"/>
        <pt x="248" y="881" on="0"/>
        <pt x="100" y="1010" on="0"/>
        <pt x="100" y="1123" on="1"/>
        <pt x="100" y="1207" on="0"/>
        <pt x="145" y="1287" on="1"/>
        <pt x="302" y="1243" on="1"/>
        <pt x="266" y="1187" on="0"/>
        <pt x="266" y="1131" on="1"/>
        <pt x="266" y="1080" on="0"/>
        <pt x="322" y="1027" on="0"/>
        <pt x="373" y="1027" on="1"/>
        <pt x="461" y="1027" on="0"/>
        <pt x="595" y="1149" on="0"/>
        <pt x="647" y="1253" on="1"/>
        <pt x="759" y="1281" on="1"/>
        <pt x="922" y="1127" on="0"/>
        <pt x="922" y="962" on="1"/>
        <pt x="922" y="815" on="0"/>
        <pt x="713" y="619" on="0"/>
        <pt x="516" y="578" on="1"/>
        <pt x="695" y="528" on="0"/>
        <pt x="976" y="338" on="0"/>
        <pt x="1078" y="198" on="1"/>
        <pt x="1074" y="252" on="0"/>
        <pt x="1074" y="395" on="1"/>
        <pt x="1074" y="1409" on="1"/>
        <pt x="1182" y="1409" on="1"/>
        <pt x="1229" y="1274" on="1"/>
        <pt x="1446" y="1274" on="1"/>
      </contour>
      <contour>
        <pt x="949" y="1274" on="1"/>
      </contour>
    </TTGlyph>
    <TTGlyph name="glyph00201" xMin="94" yMin="-89" xMax="1510" yMax="1409">
      <contour>
        <pt x="1295" y="1128" on="1"/>
        <pt x="1295" y="-89" on="1"/>
        <pt x="1142" y="-89" on="1"/>
        <pt x="1114" y="-3" on="0"/>
        <pt x="997" y="89" on="0"/>
        <pt x="914" y="89" on="1"/>
        <pt x="847" y="89" on="0"/>
        <pt x="725" y="72" on="1"/>
        <pt x="603" y="54" on="0"/>
        <pt x="535" y="54" on="1"/>
        <pt x="317" y="54" on="0"/>
        <pt x="94" y="247" on="0"/>
        <pt x="94" y="435" on="1"/>
        <pt x="94" y="530" on="0"/>
        <pt x="113" y="587" on="1"/>
        <pt x="270" y="568" on="1"/>
        <pt x="254" y="513" on="0"/>
        <pt x="254" y="433" on="1"/>
        <pt x="254" y="316" on="0"/>
        <pt x="392" y="201" on="0"/>
        <pt x="538" y="201" on="1"/>
        <pt x="597" y="201" on="0"/>
        <pt x="706" y="219" on="1"/>
        <pt x="815" y="236" on="0"/>
        <pt x="880" y="236" on="1"/>
        <pt x="970" y="236" on="0"/>
        <pt x="1089" y="181" on="0"/>
        <pt x="1138" y="125" on="1"/>
        <pt x="1138" y="800" on="1"/>
        <pt x="1002" y="986" on="0"/>
        <pt x="797" y="1138" on="0"/>
        <pt x="684" y="1138" on="1"/>
        <pt x="601" y="1138" on="0"/>
        <pt x="464" y="1059" on="0"/>
        <pt x="394" y="958" on="1"/>
        <pt x="468" y="997" on="0"/>
        <pt x="588" y="997" on="1"/>
        <pt x="711" y="997" on="0"/>
        <pt x="853" y="856" on="0"/>
        <pt x="853" y="755" on="1"/>
        <pt x="853" y="638" on="0"/>
        <pt x="705" y="457" on="0"/>
        <pt x="540" y="364" on="1"/>
        <pt x="436" y="513" on="1"/>
        <pt x="578" y="575" on="0"/>
        <pt x="689" y="683" on="0"/>
        <pt x="689" y="747" on="1"/>
        <pt x="689" y="795" on="0"/>
        <pt x="616" y="854" on="0"/>
        <pt x="555" y="854" on="1"/>
        <pt x="507" y="854" on="0"/>
        <pt x="417" y="832" on="0"/>
        <pt x="356" y="803" on="1"/>
        <pt x="191" y="937" on="1"/>
        <pt x="293" y="1115" on="0"/>
        <pt x="529" y="1288" on="0"/>
        <pt x="668" y="1288" on="1"/>
        <pt x="801" y="1288" on="0"/>
        <pt x="1026" y="1157" on="0"/>
        <pt x="1145" y="1013" on="1"/>
        <pt x="1144" y="1039" on="0"/>
        <pt x="1138" y="1131" on="0"/>
        <pt x="1138" y="1199" on="1"/>
        <pt x="1138" y="1409" on="1"/>
        <pt x="1246" y="1409" on="1"/>
        <pt x="1293" y="1274" on="1"/>
        <pt x="1510" y="1274" on="1"/>
        <pt x="1510" y="1128" on="1"/>
      </contour>
      <contour>
        <pt x="1013" y="1274" on="1"/>
      </contour>
    </TTGlyph>
    <TTGlyph name="glyph00202" xMin="-21" yMin="-240" xMax="1434" yMax="1274">
      <contour>
        <pt x="1062" y="-36" on="1"/>
        <pt x="1062" y="0" on="1"/>
        <pt x="948" y="153" on="0"/>
        <pt x="571" y="353" on="0"/>
        <pt x="362" y="367" on="1"/>
        <pt x="289" y="545" on="1"/>
        <pt x="398" y="627" on="0"/>
        <pt x="527" y="707" on="1"/>
        <pt x="385" y="721" on="0"/>
        <pt x="234" y="853" on="0"/>
        <pt x="234" y="960" on="1"/>
        <pt x="234" y="1053" on="0"/>
        <pt x="300" y="1128" on="1"/>
        <pt x="-21" y="1128" on="1"/>
        <pt x="-21" y="1274" on="1"/>
        <pt x="1434" y="1274" on="1"/>
        <pt x="1434" y="1128" on="1"/>
        <pt x="1219" y="1128" on="1"/>
        <pt x="1219" y="-240" on="1"/>
        <pt x="1066" y="-240" on="1"/>
        <pt x="1039" y="-149" on="0"/>
        <pt x="924" y="-62" on="0"/>
        <pt x="827" y="-62" on="1"/>
        <pt x="771" y="-62" on="0"/>
        <pt x="654" y="-79" on="1"/>
        <pt x="537" y="-97" on="0"/>
        <pt x="471" y="-97" on="1"/>
        <pt x="297" y="-97" on="0"/>
        <pt x="94" y="58" on="0"/>
        <pt x="94" y="207" on="1"/>
        <pt x="94" y="272" on="0"/>
        <pt x="113" y="336" on="1"/>
        <pt x="270" y="317" on="1"/>
        <pt x="254" y="262" on="0"/>
        <pt x="254" y="215" on="1"/>
        <pt x="254" y="131" on="0"/>
        <pt x="357" y="50" on="0"/>
        <pt x="473" y="50" on="1"/>
        <pt x="529" y="50" on="0"/>
        <pt x="626" y="68" on="1"/>
        <pt x="722" y="85" on="0"/>
        <pt x="779" y="85" on="1"/>
        <pt x="968" y="85" on="0"/>
      </contour>
      <contour>
        <pt x="885" y="781" on="1"/>
        <pt x="779" y="717" on="0"/>
        <pt x="574" y="578" on="0"/>
        <pt x="474" y="504" on="1"/>
        <pt x="653" y="470" on="0"/>
        <pt x="941" y="324" on="0"/>
        <pt x="1066" y="189" on="1"/>
        <pt x="1062" y="307" on="0"/>
        <pt x="1062" y="337" on="1"/>
        <pt x="1062" y="1128" on="1"/>
        <pt x="496" y="1128" on="1"/>
        <pt x="400" y="1058" on="0"/>
        <pt x="400" y="966" on="1"/>
        <pt x="400" y="899" on="0"/>
        <pt x="495" y="827" on="0"/>
        <pt x="578" y="827" on="1"/>
        <pt x="687" y="827" on="0"/>
        <pt x="798" y="903" on="1"/>
      </contour>
    </TTGlyph>
    <TTGlyph name="glyph00203" xMin="59" yMin="-440" xMax="1366" yMax="1288">
      <contour>
        <pt x="1120" y="-226" on="1"/>
        <pt x="1120" y="66" on="1"/>
        <pt x="1006" y="19" on="0"/>
        <pt x="859" y="19" on="1"/>
        <pt x="647" y="19" on="0"/>
        <pt x="351" y="214" on="0"/>
        <pt x="136" y="609" on="0"/>
        <pt x="59" y="902" on="1"/>
        <pt x="215" y="945" on="1"/>
        <pt x="282" y="685" on="0"/>
        <pt x="451" y="342" on="0"/>
        <pt x="684" y="174" on="0"/>
        <pt x="856" y="174" on="1"/>
        <pt x="1024" y="174" on="0"/>
        <pt x="1213" y="315" on="0"/>
        <pt x="1213" y="437" on="1"/>
        <pt x="1213" y="533" on="0"/>
        <pt x="1164" y="620" on="1"/>
        <pt x="989" y="426" on="0"/>
        <pt x="824" y="426" on="1"/>
        <pt x="744" y="426" on="0"/>
        <pt x="630" y="496" on="0"/>
        <pt x="582" y="615" on="0"/>
        <pt x="582" y="721" on="1"/>
        <pt x="582" y="887" on="1"/>
        <pt x="388" y="984" on="0"/>
        <pt x="241" y="1191" on="1"/>
        <pt x="367" y="1276" on="1"/>
        <pt x="494" y="1111" on="0"/>
        <pt x="599" y="1040" on="1"/>
        <pt x="632" y="1157" on="0"/>
        <pt x="813" y="1288" on="0"/>
        <pt x="933" y="1288" on="1"/>
        <pt x="1053" y="1288" on="0"/>
        <pt x="1197" y="1168" on="0"/>
        <pt x="1197" y="1063" on="1"/>
        <pt x="1197" y="950" on="0"/>
        <pt x="1018" y="815" on="0"/>
        <pt x="882" y="815" on="1"/>
        <pt x="803" y="815" on="0"/>
        <pt x="732" y="832" on="1"/>
        <pt x="732" y="691" on="1"/>
        <pt x="732" y="629" on="0"/>
        <pt x="776" y="577" on="0"/>
        <pt x="818" y="577" on="1"/>
        <pt x="889" y="577" on="0"/>
        <pt x="1027" y="673" on="0"/>
        <pt x="1123" y="783" on="1"/>
        <pt x="1247" y="789" on="1"/>
        <pt x="1366" y="602" on="0"/>
        <pt x="1366" y="430" on="1"/>
        <pt x="1366" y="356" on="0"/>
        <pt x="1321" y="230" on="0"/>
        <pt x="1277" y="177" on="1"/>
        <pt x="1277" y="-440" on="1"/>
        <pt x="1124" y="-440" on="1"/>
        <pt x="1095" y="-348" on="0"/>
        <pt x="973" y="-262" on="0"/>
        <pt x="872" y="-262" on="1"/>
        <pt x="813" y="-262" on="0"/>
        <pt x="689" y="-279" on="1"/>
        <pt x="564" y="-297" on="0"/>
        <pt x="495" y="-297" on="1"/>
        <pt x="311" y="-297" on="0"/>
        <pt x="95" y="-112" on="0"/>
        <pt x="95" y="64" on="1"/>
        <pt x="95" y="149" on="0"/>
        <pt x="119" y="243" on="1"/>
        <pt x="276" y="224" on="1"/>
        <pt x="255" y="142" on="0"/>
        <pt x="255" y="65" on="1"/>
        <pt x="255" y="-44" on="0"/>
        <pt x="368" y="-150" on="0"/>
        <pt x="490" y="-150" on="1"/>
        <pt x="549" y="-150" on="0"/>
        <pt x="655" y="-132" on="1"/>
        <pt x="760" y="-115" on="0"/>
        <pt x="827" y="-115" on="1"/>
        <pt x="1020" y="-115" on="0"/>
      </contour>
      <contour>
        <pt x="738" y="972" on="1"/>
        <pt x="806" y="951" on="0"/>
        <pt x="884" y="951" on="1"/>
        <pt x="961" y="951" on="0"/>
        <pt x="1044" y="1012" on="0"/>
        <pt x="1044" y="1065" on="1"/>
        <pt x="1044" y="1106" on="0"/>
        <pt x="983" y="1152" on="0"/>
        <pt x="932" y="1152" on="1"/>
        <pt x="855" y="1152" on="0"/>
        <pt x="754" y="1053" on="0"/>
      </contour>
      <contour>
        <pt x="789" y="1274" on="1"/>
      </contour>
      <contour>
        <pt x="1120" y="0" on="1"/>
      </contour>
    </TTGlyph>
    <TTGlyph name="glyph00204" xMin="-21" yMin="-89" xMax="1454" yMax="1274">
      <contour>
        <pt x="1119" y="868" on="1"/>
        <pt x="1231" y="863" on="1"/>
        <pt x="1297" y="737" on="0"/>
        <pt x="1297" y="609" on="1"/>
        <pt x="1297" y="551" on="0"/>
        <pt x="1263" y="449" on="0"/>
        <pt x="1229" y="405" on="1"/>
        <pt x="1229" y="-89" on="1"/>
        <pt x="1076" y="-89" on="1"/>
        <pt x="1015" y="-14" on="0"/>
        <pt x="905" y="39" on="0"/>
        <pt x="828" y="39" on="1"/>
        <pt x="781" y="39" on="0"/>
        <pt x="666" y="22" on="1"/>
        <pt x="551" y="4" on="0"/>
        <pt x="481" y="4" on="1"/>
        <pt x="305" y="4" on="0"/>
        <pt x="94" y="161" on="0"/>
        <pt x="94" y="311" on="1"/>
        <pt x="94" y="385" on="0"/>
        <pt x="118" y="462" on="1"/>
        <pt x="275" y="443" on="1"/>
        <pt x="254" y="380" on="0"/>
        <pt x="254" y="319" on="1"/>
        <pt x="254" y="235" on="0"/>
        <pt x="364" y="151" on="0"/>
        <pt x="483" y="151" on="1"/>
        <pt x="540" y="151" on="0"/>
        <pt x="641" y="169" on="1"/>
        <pt x="741" y="186" on="0"/>
        <pt x="800" y="186" on="1"/>
        <pt x="875" y="186" on="0"/>
        <pt x="1006" y="130" on="0"/>
        <pt x="1072" y="67" on="1"/>
        <pt x="1072" y="202" on="1"/>
        <pt x="1072" y="249" on="0"/>
        <pt x="1074" y="296" on="1"/>
        <pt x="970" y="255" on="0"/>
        <pt x="825" y="255" on="1"/>
        <pt x="581" y="255" on="0"/>
        <pt x="238" y="591" on="0"/>
        <pt x="139" y="927" on="1"/>
        <pt x="290" y="970" on="1"/>
        <pt x="371" y="681" on="0"/>
        <pt x="626" y="405" on="0"/>
        <pt x="830" y="405" on="1"/>
        <pt x="979" y="405" on="0"/>
        <pt x="1145" y="515" on="0"/>
        <pt x="1145" y="617" on="1"/>
        <pt x="1145" y="657" on="0"/>
        <pt x="1132" y="703" on="1"/>
        <pt x="1062" y="642" on="0"/>
        <pt x="908" y="569" on="0"/>
        <pt x="807" y="569" on="1"/>
        <pt x="690" y="569" on="0"/>
        <pt x="553" y="723" on="0"/>
        <pt x="553" y="848" on="1"/>
        <pt x="553" y="1018" on="0"/>
        <pt x="644" y="1133" on="1"/>
        <pt x="581" y="1128" on="0"/>
        <pt x="487" y="1128" on="1"/>
        <pt x="-21" y="1128" on="1"/>
        <pt x="-21" y="1274" on="1"/>
        <pt x="1454" y="1274" on="1"/>
        <pt x="1454" y="1128" on="1"/>
        <pt x="1142" y="1128" on="1"/>
        <pt x="1150" y="1102" on="0"/>
        <pt x="1150" y="1072" on="1"/>
        <pt x="1150" y="972" on="0"/>
        <pt x="1000" y="856" on="0"/>
        <pt x="865" y="856" on="1"/>
        <pt x="782" y="856" on="0"/>
        <pt x="702" y="879" on="1"/>
        <pt x="700" y="853" on="0"/>
        <pt x="700" y="828" on="1"/>
        <pt x="700" y="767" on="0"/>
        <pt x="752" y="710" on="0"/>
        <pt x="809" y="710" on="1"/>
        <pt x="879" y="710" on="0"/>
        <pt x="1025" y="786" on="0"/>
      </contour>
      <contour>
        <pt x="729" y="999" on="1"/>
        <pt x="797" y="979" on="0"/>
        <pt x="867" y="979" on="1"/>
        <pt x="936" y="979" on="0"/>
        <pt x="1010" y="1032" on="0"/>
        <pt x="1010" y="1079" on="1"/>
        <pt x="1010" y="1118" on="0"/>
        <pt x="958" y="1158" on="0"/>
        <pt x="913" y="1158" on="1"/>
        <pt x="854" y="1158" on="0"/>
        <pt x="757" y="1074" on="0"/>
      </contour>
      <contour>
        <pt x="779" y="1274" on="1"/>
      </contour>
      <contour>
        <pt x="1072" y="0" on="1"/>
      </contour>
    </TTGlyph>
    <TTGlyph name="glyph00205" xMin="-21" yMin="-390" xMax="1404" yMax="1274">
      <contour>
        <pt x="571" y="1112" on="1"/>
        <pt x="645" y="981" on="0"/>
        <pt x="818" y="886" on="0"/>
        <pt x="959" y="886" on="1"/>
        <pt x="993" y="886" on="1"/>
        <pt x="1091" y="886" on="0"/>
        <pt x="1207" y="845" on="0"/>
        <pt x="1278" y="738" on="0"/>
        <pt x="1278" y="650" on="1"/>
        <pt x="1278" y="574" on="0"/>
        <pt x="1228" y="425" on="0"/>
        <pt x="1179" y="352" on="1"/>
        <pt x="1179" y="-390" on="1"/>
        <pt x="1026" y="-390" on="1"/>
        <pt x="1000" y="-297" on="0"/>
        <pt x="887" y="-212" on="0"/>
        <pt x="795" y="-212" on="1"/>
        <pt x="741" y="-212" on="0"/>
        <pt x="628" y="-229" on="1"/>
        <pt x="514" y="-247" on="0"/>
        <pt x="450" y="-247" on="1"/>
        <pt x="283" y="-247" on="0"/>
        <pt x="84" y="-52" on="0"/>
        <pt x="84" y="135" on="1"/>
        <pt x="84" y="226" on="0"/>
        <pt x="108" y="323" on="1"/>
        <pt x="265" y="304" on="1"/>
        <pt x="244" y="216" on="0"/>
        <pt x="244" y="132" on="1"/>
        <pt x="244" y="17" on="0"/>
        <pt x="345" y="-100" on="0"/>
        <pt x="456" y="-100" on="1"/>
        <pt x="510" y="-100" on="0"/>
        <pt x="603" y="-82" on="1"/>
        <pt x="695" y="-65" on="0"/>
        <pt x="750" y="-65" on="1"/>
        <pt x="940" y="-65" on="0"/>
        <pt x="1022" y="-176" on="1"/>
        <pt x="1022" y="34" on="1"/>
        <pt x="1022" y="120" on="0"/>
        <pt x="1025" y="192" on="1"/>
        <pt x="951" y="136" on="0"/>
        <pt x="792" y="80" on="0"/>
        <pt x="708" y="80" on="1"/>
        <pt x="615" y="80" on="0"/>
        <pt x="489" y="145" on="0"/>
        <pt x="414" y="274" on="0"/>
        <pt x="414" y="409" on="1"/>
        <pt x="414" y="1128" on="1"/>
        <pt x="-21" y="1128" on="1"/>
        <pt x="-21" y="1274" on="1"/>
        <pt x="1404" y="1274" on="1"/>
        <pt x="1404" y="1128" on="1"/>
        <pt x="571" y="1128" on="1"/>
      </contour>
      <contour>
        <pt x="569" y="904" on="1"/>
        <pt x="571" y="874" on="0"/>
        <pt x="571" y="834" on="1"/>
        <pt x="571" y="440" on="1"/>
        <pt x="571" y="347" on="0"/>
        <pt x="597" y="268" on="0"/>
        <pt x="660" y="226" on="0"/>
        <pt x="716" y="226" on="1"/>
        <pt x="816" y="226" on="0"/>
        <pt x="1002" y="353" on="0"/>
        <pt x="1115" y="543" on="0"/>
        <pt x="1115" y="628" on="1"/>
        <pt x="1115" y="682" on="0"/>
        <pt x="1057" y="735" on="0"/>
        <pt x="974" y="735" on="1"/>
        <pt x="963" y="735" on="1"/>
        <pt x="867" y="735" on="0"/>
        <pt x="740" y="769" on="0"/>
        <pt x="614" y="844" on="0"/>
      </contour>
      <contour>
        <pt x="743" y="1274" on="1"/>
      </contour>
      <contour>
        <pt x="1022" y="0" on="1"/>
      </contour>
    </TTGlyph>
    <TTGlyph name="glyph00206" xMin="-21" yMin="-330" xMax="1573" yMax="1274">
      <contour>
        <pt x="1163" y="-330" on="1"/>
        <pt x="1010" y="-330" on="1"/>
        <pt x="985" y="-239" on="0"/>
        <pt x="876" y="-152" on="0"/>
        <pt x="785" y="-152" on="1"/>
        <pt x="732" y="-152" on="0"/>
        <pt x="622" y="-169" on="1"/>
        <pt x="512" y="-187" on="0"/>
        <pt x="449" y="-187" on="1"/>
        <pt x="285" y="-187" on="0"/>
        <pt x="94" y="-4" on="0"/>
        <pt x="94" y="172" on="1"/>
        <pt x="94" y="251" on="0"/>
        <pt x="113" y="322" on="1"/>
        <pt x="270" y="303" on="1"/>
        <pt x="254" y="232" on="0"/>
        <pt x="254" y="172" on="1"/>
        <pt x="254" y="66" on="0"/>
        <pt x="350" y="-40" on="0"/>
        <pt x="458" y="-40" on="1"/>
        <pt x="510" y="-40" on="0"/>
        <pt x="600" y="-22" on="1"/>
        <pt x="690" y="-5" on="0"/>
        <pt x="743" y="-5" on="1"/>
        <pt x="927" y="-5" on="0"/>
        <pt x="1006" y="-116" on="1"/>
        <pt x="1006" y="89" on="1"/>
        <pt x="757" y="161" on="0"/>
        <pt x="438" y="193" on="1"/>
        <pt x="457" y="339" on="1"/>
        <pt x="598" y="312" on="0"/>
        <pt x="739" y="312" on="1"/>
        <pt x="983" y="312" on="0"/>
        <pt x="1249" y="494" on="0"/>
        <pt x="1249" y="635" on="1"/>
        <pt x="1249" y="724" on="0"/>
        <pt x="1150" y="837" on="0"/>
        <pt x="1057" y="853" on="1"/>
        <pt x="1067" y="823" on="0"/>
        <pt x="1067" y="794" on="1"/>
        <pt x="1067" y="697" on="0"/>
        <pt x="948" y="536" on="0"/>
        <pt x="737" y="444" on="0"/>
        <pt x="611" y="444" on="1"/>
        <pt x="526" y="444" on="0"/>
        <pt x="404" y="494" on="0"/>
        <pt x="334" y="611" on="0"/>
        <pt x="334" y="735" on="1"/>
        <pt x="334" y="1128" on="1"/>
        <pt x="-21" y="1128" on="1"/>
        <pt x="-21" y="1274" on="1"/>
        <pt x="1573" y="1274" on="1"/>
        <pt x="1573" y="1128" on="1"/>
        <pt x="491" y="1128" on="1"/>
        <pt x="491" y="1113" on="1"/>
        <pt x="554" y="1037" on="0"/>
        <pt x="698" y="985" on="0"/>
        <pt x="808" y="985" on="1"/>
        <pt x="908" y="985" on="1"/>
        <pt x="932" y="986" on="1"/>
        <pt x="981" y="989" on="0"/>
        <pt x="1012" y="989" on="1"/>
        <pt x="1138" y="989" on="0"/>
        <pt x="1315" y="897" on="0"/>
        <pt x="1406" y="728" on="0"/>
        <pt x="1406" y="635" on="1"/>
        <pt x="1406" y="473" on="0"/>
        <pt x="1211" y="259" on="0"/>
        <pt x="1033" y="217" on="1"/>
        <pt x="1154" y="190" on="0"/>
        <pt x="1411" y="92" on="0"/>
        <pt x="1547" y="22" on="1"/>
        <pt x="1475" y="-101" on="1"/>
        <pt x="1338" y="-25" on="0"/>
        <pt x="1158" y="40" on="1"/>
        <pt x="1163" y="-17" on="0"/>
        <pt x="1163" y="-72" on="1"/>
      </contour>
      <contour>
        <pt x="488" y="959" on="1"/>
        <pt x="491" y="895" on="0"/>
        <pt x="491" y="861" on="1"/>
        <pt x="491" y="736" on="1"/>
        <pt x="491" y="675" on="0"/>
        <pt x="513" y="620" on="0"/>
        <pt x="566" y="586" on="0"/>
        <pt x="623" y="586" on="1"/>
        <pt x="744" y="586" on="0"/>
        <pt x="912" y="715" on="0"/>
        <pt x="912" y="787" on="1"/>
        <pt x="912" y="814" on="0"/>
        <pt x="875" y="846" on="0"/>
        <pt x="806" y="846" on="1"/>
        <pt x="793" y="846" on="1"/>
        <pt x="606" y="846" on="0"/>
      </contour>
      <contour>
        <pt x="846" y="1274" on="1"/>
      </contour>
      <contour>
        <pt x="1006" y="0" on="1"/>
      </contour>
    </TTGlyph>
    <TTGlyph name="glyph00207" xMin="-21" yMin="-280" xMax="1898" yMax="1274">
      <contour>
        <pt x="1138" y="1128" on="1"/>
        <pt x="1191" y="1034" on="0"/>
        <pt x="1392" y="941" on="0"/>
        <pt x="1539" y="941" on="1"/>
        <pt x="1590" y="941" on="0"/>
        <pt x="1650" y="947" on="1"/>
        <pt x="1731" y="803" on="1"/>
        <pt x="1667" y="686" on="0"/>
        <pt x="1610" y="448" on="0"/>
        <pt x="1610" y="290" on="1"/>
        <pt x="1610" y="154" on="0"/>
        <pt x="1659" y="-98" on="0"/>
        <pt x="1712" y="-245" on="1"/>
        <pt x="1558" y="-280" on="1"/>
        <pt x="1464" y="-223" on="1"/>
        <pt x="1419" y="-196" on="0"/>
        <pt x="1334" y="-162" on="0"/>
        <pt x="1245" y="-145" on="0"/>
        <pt x="1192" y="-145" on="1"/>
        <pt x="1140" y="-145" on="0"/>
        <pt x="1020" y="-168" on="0"/>
        <pt x="925" y="-192" on="1"/>
        <pt x="741" y="-240" on="0"/>
        <pt x="586" y="-240" on="1"/>
        <pt x="369" y="-240" on="0"/>
        <pt x="144" y="-49" on="0"/>
        <pt x="144" y="138" on="1"/>
        <pt x="144" y="217" on="0"/>
        <pt x="160" y="288" on="1"/>
        <pt x="317" y="264" on="1"/>
        <pt x="304" y="209" on="0"/>
        <pt x="304" y="133" on="1"/>
        <pt x="304" y="22" on="0"/>
        <pt x="444" y="-89" on="0"/>
        <pt x="590" y="-89" on="1"/>
        <pt x="735" y="-89" on="0"/>
        <pt x="906" y="-41" on="1"/>
        <pt x="991" y="-18" on="0"/>
        <pt x="1112" y="6" on="0"/>
        <pt x="1170" y="6" on="1"/>
        <pt x="1256" y="6" on="0"/>
        <pt x="1412" y="-43" on="0"/>
        <pt x="1510" y="-106" on="1"/>
        <pt x="1450" y="122" on="0"/>
        <pt x="1450" y="338" on="1"/>
        <pt x="1450" y="617" on="0"/>
        <pt x="1547" y="795" on="1"/>
        <pt x="1342" y="796" on="0"/>
        <pt x="1071" y="931" on="0"/>
        <pt x="987" y="1082" on="1"/>
        <pt x="846" y="1011" on="0"/>
        <pt x="686" y="865" on="0"/>
        <pt x="686" y="778" on="1"/>
        <pt x="686" y="727" on="0"/>
        <pt x="745" y="672" on="0"/>
        <pt x="793" y="672" on="1"/>
        <pt x="859" y="672" on="0"/>
        <pt x="978" y="729" on="0"/>
        <pt x="1071" y="811" on="1"/>
        <pt x="1248" y="748" on="1"/>
        <pt x="1290" y="645" on="0"/>
        <pt x="1290" y="520" on="1"/>
        <pt x="1290" y="341" on="0"/>
        <pt x="1048" y="129" on="0"/>
        <pt x="822" y="129" on="1"/>
        <pt x="543" y="129" on="0"/>
        <pt x="169" y="545" on="0"/>
        <pt x="59" y="951" on="1"/>
        <pt x="216" y="996" on="1"/>
        <pt x="314" y="629" on="0"/>
        <pt x="602" y="284" on="0"/>
        <pt x="828" y="284" on="1"/>
        <pt x="978" y="284" on="0"/>
        <pt x="1134" y="416" on="0"/>
        <pt x="1134" y="549" on="1"/>
        <pt x="1134" y="607" on="0"/>
        <pt x="1118" y="658" on="1"/>
        <pt x="1037" y="588" on="0"/>
        <pt x="884" y="526" on="0"/>
        <pt x="800" y="526" on="1"/>
        <pt x="677" y="526" on="0"/>
        <pt x="529" y="666" on="0"/>
        <pt x="529" y="786" on="1"/>
        <pt x="529" y="889" on="0"/>
        <pt x="671" y="1069" on="0"/>
        <pt x="804" y="1131" on="1"/>
        <pt x="747" y="1128" on="0"/>
        <pt x="610" y="1128" on="1"/>
        <pt x="-21" y="1128" on="1"/>
        <pt x="-21" y="1274" on="1"/>
        <pt x="1898" y="1274" on="1"/>
        <pt x="1898" y="1128" on="1"/>
      </contour>
      <contour>
        <pt x="1376" y="1274" on="1"/>
      </contour>
      <contour>
        <pt x="1550" y="0" on="1"/>
      </contour>
    </TTGlyph>
    <TTGlyph name="glyph00208" xMin="-21" yMin="-240" xMax="1783" yMax="1409">
      <contour>
        <pt x="1142" y="641" on="1"/>
        <pt x="1219" y="593" on="0"/>
        <pt x="1374" y="438" on="0"/>
        <pt x="1417" y="363" on="1"/>
        <pt x="1411" y="430" on="0"/>
        <pt x="1411" y="527" on="1"/>
        <pt x="1411" y="1409" on="1"/>
        <pt x="1519" y="1409" on="1"/>
        <pt x="1566" y="1274" on="1"/>
        <pt x="1783" y="1274" on="1"/>
        <pt x="1783" y="1128" on="1"/>
        <pt x="1568" y="1128" on="1"/>
        <pt x="1568" y="150" on="1"/>
        <pt x="1411" y="150" on="1"/>
        <pt x="1319" y="334" on="0"/>
        <pt x="1142" y="473" on="1"/>
        <pt x="1142" y="-240" on="1"/>
        <pt x="989" y="-240" on="1"/>
        <pt x="964" y="-149" on="0"/>
        <pt x="855" y="-62" on="0"/>
        <pt x="764" y="-62" on="1"/>
        <pt x="712" y="-62" on="0"/>
        <pt x="609" y="-79" on="1"/>
        <pt x="505" y="-97" on="0"/>
        <pt x="439" y="-97" on="1"/>
        <pt x="274" y="-97" on="0"/>
        <pt x="95" y="65" on="0"/>
        <pt x="95" y="221" on="1"/>
        <pt x="95" y="289" on="0"/>
        <pt x="114" y="356" on="1"/>
        <pt x="271" y="337" on="1"/>
        <pt x="255" y="279" on="0"/>
        <pt x="255" y="227" on="1"/>
        <pt x="255" y="136" on="0"/>
        <pt x="348" y="50" on="0"/>
        <pt x="450" y="50" on="1"/>
        <pt x="499" y="50" on="0"/>
        <pt x="586" y="68" on="1"/>
        <pt x="672" y="85" on="0"/>
        <pt x="722" y="85" on="1"/>
        <pt x="897" y="85" on="0"/>
        <pt x="985" y="-36" on="1"/>
        <pt x="985" y="0" on="1"/>
        <pt x="890" y="190" on="0"/>
        <pt x="510" y="468" on="0"/>
        <pt x="291" y="498" on="1"/>
        <pt x="211" y="695" on="1"/>
        <pt x="424" y="820" on="0"/>
        <pt x="811" y="1002" on="0"/>
        <pt x="985" y="1059" on="1"/>
        <pt x="985" y="1128" on="1"/>
        <pt x="-21" y="1128" on="1"/>
        <pt x="-21" y="1274" on="1"/>
        <pt x="1142" y="1274" on="1"/>
      </contour>
      <contour>
        <pt x="985" y="899" on="1"/>
        <pt x="838" y="847" on="0"/>
        <pt x="547" y="709" on="0"/>
        <pt x="402" y="623" on="1"/>
        <pt x="573" y="588" on="0"/>
        <pt x="907" y="365" on="0"/>
        <pt x="992" y="222" on="1"/>
        <pt x="985" y="305" on="0"/>
        <pt x="985" y="388" on="1"/>
      </contour>
      <contour>
        <pt x="1286" y="1274" on="1"/>
      </contour>
    </TTGlyph>
    <TTGlyph name="glyph00209" xMin="94" yMin="-478" xMax="1976" yMax="1286">
      <component glyphName="uni099E" x="0" y="0" flags="0x204"/>
      <component glyphName="glyph00128" x="1569" y="0" flags="0x4"/>
    </TTGlyph>
    <TTGlyph name="glyph00210" xMin="-21" yMin="-390" xMax="1404" yMax="1868">
      <contour>
        <pt x="870" y="765" on="1"/>
        <pt x="847" y="911" on="1"/>
        <pt x="926" y="932" on="0"/>
        <pt x="1016" y="932" on="1"/>
        <pt x="1141" y="932" on="0"/>
        <pt x="1278" y="783" on="0"/>
        <pt x="1278" y="644" on="1"/>
        <pt x="1278" y="569" on="0"/>
        <pt x="1228" y="421" on="0"/>
        <pt x="1179" y="349" on="1"/>
        <pt x="1179" y="-390" on="1"/>
        <pt x="1026" y="-390" on="1"/>
        <pt x="1000" y="-297" on="0"/>
        <pt x="887" y="-212" on="0"/>
        <pt x="795" y="-212" on="1"/>
        <pt x="741" y="-212" on="0"/>
        <pt x="628" y="-229" on="1"/>
        <pt x="514" y="-247" on="0"/>
        <pt x="450" y="-247" on="1"/>
        <pt x="283" y="-247" on="0"/>
        <pt x="84" y="-52" on="0"/>
        <pt x="84" y="135" on="1"/>
        <pt x="84" y="226" on="0"/>
        <pt x="108" y="323" on="1"/>
        <pt x="265" y="304" on="1"/>
        <pt x="244" y="216" on="0"/>
        <pt x="244" y="132" on="1"/>
        <pt x="244" y="17" on="0"/>
        <pt x="345" y="-100" on="0"/>
        <pt x="456" y="-100" on="1"/>
        <pt x="510" y="-100" on="0"/>
        <pt x="603" y="-82" on="1"/>
        <pt x="695" y="-65" on="0"/>
        <pt x="750" y="-65" on="1"/>
        <pt x="940" y="-65" on="0"/>
        <pt x="1022" y="-176" on="1"/>
        <pt x="1022" y="72" on="1"/>
        <pt x="1022" y="117" on="0"/>
        <pt x="1025" y="191" on="1"/>
        <pt x="952" y="135" on="0"/>
        <pt x="793" y="80" on="0"/>
        <pt x="708" y="80" on="1"/>
        <pt x="615" y="80" on="0"/>
        <pt x="489" y="145" on="0"/>
        <pt x="414" y="274" on="0"/>
        <pt x="414" y="409" on="1"/>
        <pt x="414" y="1128" on="1"/>
        <pt x="-21" y="1128" on="1"/>
        <pt x="-21" y="1274" on="1"/>
        <pt x="1029" y="1274" on="1"/>
        <pt x="1025" y="1361" on="0"/>
        <pt x="950" y="1432" on="0"/>
        <pt x="866" y="1432" on="1"/>
        <pt x="673" y="1432" on="1"/>
        <pt x="482" y="1432" on="0"/>
        <pt x="311" y="1517" on="0"/>
        <pt x="232" y="1659" on="0"/>
        <pt x="232" y="1759" on="1"/>
        <pt x="232" y="1806" on="0"/>
        <pt x="243" y="1868" on="1"/>
        <pt x="394" y="1858" on="1"/>
        <pt x="385" y="1812" on="0"/>
        <pt x="385" y="1780" on="1"/>
        <pt x="385" y="1706" on="0"/>
        <pt x="440" y="1616" on="0"/>
        <pt x="552" y="1579" on="0"/>
        <pt x="662" y="1579" on="1"/>
        <pt x="822" y="1579" on="1"/>
        <pt x="945" y="1579" on="0"/>
        <pt x="1091" y="1532" on="0"/>
        <pt x="1172" y="1401" on="0"/>
        <pt x="1177" y="1274" on="1"/>
        <pt x="1404" y="1274" on="1"/>
        <pt x="1404" y="1128" on="1"/>
        <pt x="571" y="1128" on="1"/>
        <pt x="571" y="440" on="1"/>
        <pt x="571" y="365" on="0"/>
        <pt x="590" y="276" on="0"/>
        <pt x="654" y="226" on="0"/>
        <pt x="717" y="226" on="1"/>
        <pt x="864" y="226" on="0"/>
        <pt x="1118" y="488" on="0"/>
        <pt x="1118" y="640" on="1"/>
        <pt x="1118" y="712" on="0"/>
        <pt x="1048" y="779" on="0"/>
        <pt x="976" y="779" on="1"/>
        <pt x="930" y="779" on="0"/>
      </contour>
      <contour>
        <pt x="1022" y="0" on="1"/>
      </contour>
    </TTGlyph>
    <TTGlyph name="glyph00211" xMin="-21" yMin="-390" xMax="1511" yMax="1878">
      <contour>
        <pt x="-21" y="1128" on="1"/>
        <pt x="-21" y="1274" on="1"/>
        <pt x="690" y="1274" on="1"/>
        <pt x="610" y="1378" on="0"/>
        <pt x="543" y="1523" on="0"/>
        <pt x="543" y="1590" on="1"/>
        <pt x="543" y="1669" on="0"/>
        <pt x="631" y="1809" on="0"/>
        <pt x="726" y="1878" on="1"/>
        <pt x="831" y="1764" on="1"/>
        <pt x="764" y="1713" on="0"/>
        <pt x="705" y="1623" on="0"/>
        <pt x="705" y="1565" on="1"/>
        <pt x="705" y="1510" on="0"/>
        <pt x="779" y="1382" on="0"/>
        <pt x="875" y="1274" on="1"/>
        <pt x="1511" y="1274" on="1"/>
        <pt x="1511" y="1128" on="1"/>
        <pt x="1154" y="1128" on="1"/>
        <pt x="1088" y="1128" on="0"/>
        <pt x="1029" y="1132" on="1"/>
        <pt x="1213" y="961" on="0"/>
        <pt x="1362" y="685" on="0"/>
        <pt x="1362" y="537" on="1"/>
        <pt x="1362" y="432" on="0"/>
        <pt x="1295" y="266" on="0"/>
        <pt x="1228" y="205" on="1"/>
        <pt x="1228" y="-390" on="1"/>
        <pt x="1075" y="-390" on="1"/>
        <pt x="1046" y="-296" on="0"/>
        <pt x="927" y="-212" on="0"/>
        <pt x="832" y="-212" on="1"/>
        <pt x="775" y="-212" on="0"/>
        <pt x="656" y="-229" on="1"/>
        <pt x="537" y="-247" on="0"/>
        <pt x="469" y="-247" on="1"/>
        <pt x="293" y="-247" on="0"/>
        <pt x="84" y="-52" on="0"/>
        <pt x="84" y="135" on="1"/>
        <pt x="84" y="226" on="0"/>
        <pt x="108" y="323" on="1"/>
        <pt x="265" y="304" on="1"/>
        <pt x="244" y="216" on="0"/>
        <pt x="244" y="132" on="1"/>
        <pt x="244" y="15" on="0"/>
        <pt x="352" y="-100" on="0"/>
        <pt x="469" y="-100" on="1"/>
        <pt x="526" y="-100" on="0"/>
        <pt x="625" y="-82" on="1"/>
        <pt x="724" y="-65" on="0"/>
        <pt x="782" y="-65" on="1"/>
        <pt x="981" y="-65" on="0"/>
        <pt x="1071" y="-168" on="1"/>
        <pt x="1071" y="114" on="1"/>
        <pt x="1020" y="97" on="0"/>
        <pt x="908" y="80" on="0"/>
        <pt x="847" y="80" on="1"/>
        <pt x="681" y="80" on="0"/>
        <pt x="415" y="250" on="0"/>
        <pt x="354" y="396" on="1"/>
        <pt x="399" y="557" on="1"/>
        <pt x="608" y="575" on="0"/>
        <pt x="819" y="754" on="0"/>
        <pt x="819" y="936" on="1"/>
        <pt x="819" y="1032" on="0"/>
        <pt x="776" y="1128" on="1"/>
      </contour>
      <contour>
        <pt x="929" y="1047" on="1"/>
        <pt x="961" y="949" on="0"/>
        <pt x="961" y="848" on="1"/>
        <pt x="961" y="678" on="0"/>
        <pt x="741" y="459" on="0"/>
        <pt x="522" y="410" on="1"/>
        <pt x="563" y="328" on="0"/>
        <pt x="731" y="237" on="0"/>
        <pt x="845" y="237" on="1"/>
        <pt x="1012" y="237" on="0"/>
        <pt x="1197" y="410" on="0"/>
        <pt x="1197" y="549" on="1"/>
        <pt x="1197" y="680" on="0"/>
        <pt x="1066" y="911" on="0"/>
      </contour>
      <contour>
        <pt x="1071" y="0" on="1"/>
      </contour>
    </TTGlyph>
    <TTGlyph name="glyph00212" xMin="-21" yMin="-422" xMax="1480" yMax="1274">
      <contour>
        <pt x="728" y="762" on="1"/>
        <pt x="728" y="717" on="0"/>
        <pt x="741" y="676" on="0"/>
        <pt x="776" y="647" on="0"/>
        <pt x="804" y="647" on="1"/>
        <pt x="865" y="647" on="0"/>
        <pt x="999" y="762" on="0"/>
        <pt x="1084" y="886" on="1"/>
        <pt x="1206" y="906" on="1"/>
        <pt x="1344" y="709" on="0"/>
        <pt x="1344" y="514" on="1"/>
        <pt x="1344" y="434" on="0"/>
        <pt x="1299" y="300" on="0"/>
        <pt x="1255" y="245" on="1"/>
        <pt x="1255" y="-422" on="1"/>
        <pt x="1102" y="-422" on="1"/>
        <pt x="1073" y="-328" on="0"/>
        <pt x="956" y="-244" on="0"/>
        <pt x="860" y="-244" on="1"/>
        <pt x="803" y="-244" on="0"/>
        <pt x="684" y="-261" on="1"/>
        <pt x="565" y="-279" on="0"/>
        <pt x="498" y="-279" on="1"/>
        <pt x="323" y="-279" on="0"/>
        <pt x="114" y="-95" on="0"/>
        <pt x="114" y="82" on="1"/>
        <pt x="114" y="167" on="0"/>
        <pt x="138" y="261" on="1"/>
        <pt x="295" y="242" on="1"/>
        <pt x="274" y="160" on="0"/>
        <pt x="274" y="83" on="1"/>
        <pt x="274" y="-25" on="0"/>
        <pt x="382" y="-132" on="0"/>
        <pt x="498" y="-132" on="1"/>
        <pt x="555" y="-132" on="0"/>
        <pt x="654" y="-114" on="1"/>
        <pt x="753" y="-97" on="0"/>
        <pt x="810" y="-97" on="1"/>
        <pt x="1010" y="-97" on="0"/>
        <pt x="1098" y="-208" on="1"/>
        <pt x="1098" y="40" on="1"/>
        <pt x="1098" y="104" on="0"/>
        <pt x="1100" y="128" on="1"/>
        <pt x="1046" y="103" on="0"/>
        <pt x="918" y="79" on="0"/>
        <pt x="844" y="79" on="1"/>
        <pt x="556" y="79" on="0"/>
        <pt x="171" y="516" on="0"/>
        <pt x="59" y="952" on="1"/>
        <pt x="214" y="994" on="1"/>
        <pt x="310" y="606" on="0"/>
        <pt x="610" y="234" on="0"/>
        <pt x="842" y="234" on="1"/>
        <pt x="1001" y="234" on="0"/>
        <pt x="1189" y="386" on="0"/>
        <pt x="1189" y="512" on="1"/>
        <pt x="1189" y="636" on="0"/>
        <pt x="1134" y="717" on="1"/>
        <pt x="1053" y="604" on="0"/>
        <pt x="885" y="496" on="0"/>
        <pt x="806" y="496" on="1"/>
        <pt x="728" y="496" on="0"/>
        <pt x="618" y="566" on="0"/>
        <pt x="571" y="686" on="0"/>
        <pt x="571" y="790" on="1"/>
        <pt x="571" y="1128" on="1"/>
        <pt x="-21" y="1128" on="1"/>
        <pt x="-21" y="1274" on="1"/>
        <pt x="1480" y="1274" on="1"/>
        <pt x="1480" y="1128" on="1"/>
        <pt x="728" y="1128" on="1"/>
      </contour>
      <contour>
        <pt x="749" y="1274" on="1"/>
      </contour>
      <contour>
        <pt x="1098" y="0" on="1"/>
      </contour>
    </TTGlyph>
    <TTGlyph name="glyph00213" xMin="-21" yMin="-390" xMax="1404" yMax="1274">
      <contour>
        <pt x="870" y="765" on="1"/>
        <pt x="847" y="911" on="1"/>
        <pt x="926" y="932" on="0"/>
        <pt x="1016" y="932" on="1"/>
        <pt x="1141" y="932" on="0"/>
        <pt x="1278" y="783" on="0"/>
        <pt x="1278" y="644" on="1"/>
        <pt x="1278" y="569" on="0"/>
        <pt x="1228" y="421" on="0"/>
        <pt x="1179" y="349" on="1"/>
        <pt x="1179" y="-390" on="1"/>
        <pt x="1026" y="-390" on="1"/>
        <pt x="1000" y="-297" on="0"/>
        <pt x="887" y="-212" on="0"/>
        <pt x="795" y="-212" on="1"/>
        <pt x="741" y="-212" on="0"/>
        <pt x="628" y="-229" on="1"/>
        <pt x="514" y="-247" on="0"/>
        <pt x="450" y="-247" on="1"/>
        <pt x="283" y="-247" on="0"/>
        <pt x="84" y="-52" on="0"/>
        <pt x="84" y="135" on="1"/>
        <pt x="84" y="226" on="0"/>
        <pt x="108" y="323" on="1"/>
        <pt x="265" y="304" on="1"/>
        <pt x="244" y="216" on="0"/>
        <pt x="244" y="132" on="1"/>
        <pt x="244" y="17" on="0"/>
        <pt x="345" y="-100" on="0"/>
        <pt x="456" y="-100" on="1"/>
        <pt x="510" y="-100" on="0"/>
        <pt x="603" y="-82" on="1"/>
        <pt x="695" y="-65" on="0"/>
        <pt x="750" y="-65" on="1"/>
        <pt x="940" y="-65" on="0"/>
        <pt x="1022" y="-176" on="1"/>
        <pt x="1022" y="72" on="1"/>
        <pt x="1022" y="117" on="0"/>
        <pt x="1025" y="191" on="1"/>
        <pt x="952" y="135" on="0"/>
        <pt x="793" y="80" on="0"/>
        <pt x="708" y="80" on="1"/>
        <pt x="615" y="80" on="0"/>
        <pt x="489" y="145" on="0"/>
        <pt x="414" y="274" on="0"/>
        <pt x="414" y="409" on="1"/>
        <pt x="414" y="1128" on="1"/>
        <pt x="-21" y="1128" on="1"/>
        <pt x="-21" y="1274" on="1"/>
        <pt x="1404" y="1274" on="1"/>
        <pt x="1404" y="1128" on="1"/>
        <pt x="571" y="1128" on="1"/>
        <pt x="571" y="440" on="1"/>
        <pt x="571" y="365" on="0"/>
        <pt x="590" y="276" on="0"/>
        <pt x="654" y="226" on="0"/>
        <pt x="717" y="226" on="1"/>
        <pt x="864" y="226" on="0"/>
        <pt x="1118" y="488" on="0"/>
        <pt x="1118" y="640" on="1"/>
        <pt x="1118" y="712" on="0"/>
        <pt x="1048" y="779" on="0"/>
        <pt x="976" y="779" on="1"/>
        <pt x="930" y="779" on="0"/>
      </contour>
      <contour>
        <pt x="743" y="1274" on="1"/>
      </contour>
      <contour>
        <pt x="1022" y="0" on="1"/>
      </contour>
    </TTGlyph>
    <TTGlyph name="glyph00214" xMin="94" yMin="-89" xMax="1298" yMax="1409">
      <contour>
        <pt x="933" y="1014" on="1"/>
        <pt x="926" y="1140" on="0"/>
        <pt x="926" y="1200" on="1"/>
        <pt x="926" y="1409" on="1"/>
        <pt x="1034" y="1409" on="1"/>
        <pt x="1081" y="1274" on="1"/>
        <pt x="1298" y="1274" on="1"/>
        <pt x="1298" y="1128" on="1"/>
        <pt x="1083" y="1128" on="1"/>
        <pt x="1083" y="-89" on="1"/>
        <pt x="930" y="-89" on="1"/>
        <pt x="907" y="3" on="0"/>
        <pt x="808" y="89" on="0"/>
        <pt x="725" y="89" on="1"/>
        <pt x="677" y="89" on="0"/>
        <pt x="576" y="72" on="1"/>
        <pt x="475" y="54" on="0"/>
        <pt x="418" y="54" on="1"/>
        <pt x="269" y="54" on="0"/>
        <pt x="94" y="216" on="0"/>
        <pt x="94" y="372" on="1"/>
        <pt x="94" y="440" on="0"/>
        <pt x="113" y="507" on="1"/>
        <pt x="270" y="488" on="1"/>
        <pt x="254" y="430" on="0"/>
        <pt x="254" y="378" on="1"/>
        <pt x="254" y="288" on="0"/>
        <pt x="342" y="201" on="0"/>
        <pt x="436" y="201" on="1"/>
        <pt x="481" y="201" on="0"/>
        <pt x="564" y="219" on="1"/>
        <pt x="647" y="236" on="0"/>
        <pt x="698" y="236" on="1"/>
        <pt x="854" y="236" on="0"/>
        <pt x="926" y="125" on="1"/>
        <pt x="926" y="809" on="1"/>
        <pt x="807" y="973" on="0"/>
        <pt x="584" y="1138" on="0"/>
        <pt x="480" y="1138" on="1"/>
        <pt x="399" y="1138" on="0"/>
        <pt x="303" y="1055" on="0"/>
        <pt x="303" y="983" on="1"/>
        <pt x="303" y="922" on="0"/>
        <pt x="389" y="833" on="0"/>
        <pt x="480" y="798" on="1"/>
        <pt x="401" y="652" on="1"/>
        <pt x="271" y="706" on="0"/>
        <pt x="135" y="881" on="0"/>
        <pt x="135" y="989" on="1"/>
        <pt x="135" y="1125" on="0"/>
        <pt x="326" y="1288" on="0"/>
        <pt x="466" y="1288" on="1"/>
        <pt x="592" y="1288" on="0"/>
        <pt x="814" y="1158" on="0"/>
      </contour>
      <contour>
        <pt x="801" y="1274" on="1"/>
      </contour>
    </TTGlyph>
    <TTGlyph name="glyph00215" xMin="-20" yMin="0" xMax="1485" yMax="1274">
      <contour>
        <pt x="1271" y="809" on="1"/>
        <pt x="1271" y="0" on="1"/>
        <pt x="1118" y="0" on="1"/>
        <pt x="1095" y="93" on="0"/>
        <pt x="994" y="178" on="0"/>
        <pt x="911" y="178" on="1"/>
        <pt x="846" y="178" on="0"/>
        <pt x="727" y="161" on="1"/>
        <pt x="608" y="143" on="0"/>
        <pt x="532" y="143" on="1"/>
        <pt x="313" y="143" on="0"/>
        <pt x="94" y="339" on="0"/>
        <pt x="94" y="536" on="1"/>
        <pt x="94" y="623" on="0"/>
        <pt x="114" y="722" on="1"/>
        <pt x="269" y="699" on="1"/>
        <pt x="251" y="634" on="0"/>
        <pt x="251" y="543" on="1"/>
        <pt x="251" y="418" on="0"/>
        <pt x="385" y="294" on="0"/>
        <pt x="535" y="294" on="1"/>
        <pt x="594" y="294" on="0"/>
        <pt x="703" y="312" on="1"/>
        <pt x="812" y="329" on="0"/>
        <pt x="877" y="329" on="1"/>
        <pt x="1041" y="329" on="0"/>
        <pt x="1114" y="218" on="1"/>
        <pt x="1114" y="770" on="1"/>
        <pt x="1114" y="839" on="0"/>
        <pt x="1089" y="903" on="0"/>
        <pt x="1022" y="936" on="0"/>
        <pt x="965" y="936" on="1"/>
        <pt x="893" y="936" on="0"/>
        <pt x="754" y="863" on="0"/>
        <pt x="666" y="746" on="0"/>
        <pt x="666" y="697" on="1"/>
        <pt x="666" y="654" on="0"/>
        <pt x="719" y="617" on="0"/>
        <pt x="773" y="617" on="1"/>
        <pt x="815" y="617" on="0"/>
        <pt x="864" y="624" on="1"/>
        <pt x="878" y="480" on="1"/>
        <pt x="828" y="464" on="0"/>
        <pt x="742" y="464" on="1"/>
        <pt x="636" y="464" on="0"/>
        <pt x="505" y="578" on="0"/>
        <pt x="505" y="681" on="1"/>
        <pt x="505" y="772" on="0"/>
        <pt x="636" y="962" on="0"/>
        <pt x="851" y="1081" on="0"/>
        <pt x="967" y="1081" on="1"/>
        <pt x="1069" y="1081" on="0"/>
        <pt x="1201" y="1020" on="0"/>
        <pt x="1271" y="914" on="0"/>
      </contour>
      <contour>
        <pt x="-20" y="1128" on="1"/>
        <pt x="-20" y="1274" on="1"/>
        <pt x="1485" y="1274" on="1"/>
        <pt x="1485" y="1128" on="1"/>
      </contour>
      <contour>
        <pt x="1114" y="1274" on="1"/>
      </contour>
    </TTGlyph>
    <TTGlyph name="glyph00216" xMin="94" yMin="-240" xMax="1408" yMax="1409">
      <contour>
        <pt x="1408" y="1128" on="1"/>
        <pt x="1193" y="1128" on="1"/>
        <pt x="1193" y="-240" on="1"/>
        <pt x="1040" y="-240" on="1"/>
        <pt x="1015" y="-149" on="0"/>
        <pt x="906" y="-62" on="0"/>
        <pt x="815" y="-62" on="1"/>
        <pt x="760" y="-62" on="0"/>
        <pt x="645" y="-79" on="1"/>
        <pt x="530" y="-97" on="0"/>
        <pt x="464" y="-97" on="1"/>
        <pt x="292" y="-97" on="0"/>
        <pt x="94" y="65" on="0"/>
        <pt x="94" y="221" on="1"/>
        <pt x="94" y="289" on="0"/>
        <pt x="113" y="356" on="1"/>
        <pt x="270" y="337" on="1"/>
        <pt x="254" y="279" on="0"/>
        <pt x="254" y="227" on="1"/>
        <pt x="254" y="136" on="0"/>
        <pt x="358" y="50" on="0"/>
        <pt x="471" y="50" on="1"/>
        <pt x="526" y="50" on="0"/>
        <pt x="621" y="68" on="1"/>
        <pt x="716" y="85" on="0"/>
        <pt x="773" y="85" on="1"/>
        <pt x="948" y="85" on="0"/>
        <pt x="1036" y="-36" on="1"/>
        <pt x="1036" y="0" on="1"/>
        <pt x="894" y="203" on="0"/>
        <pt x="527" y="447" on="0"/>
        <pt x="302" y="488" on="1"/>
        <pt x="255" y="677" on="1"/>
        <pt x="487" y="694" on="0"/>
        <pt x="720" y="832" on="0"/>
        <pt x="720" y="954" on="1"/>
        <pt x="720" y="1043" on="0"/>
        <pt x="607" y="1137" on="0"/>
        <pt x="495" y="1137" on="1"/>
        <pt x="403" y="1137" on="0"/>
        <pt x="304" y="1065" on="0"/>
        <pt x="304" y="1011" on="1"/>
        <pt x="304" y="948" on="0"/>
        <pt x="374" y="914" on="1"/>
        <pt x="284" y="786" on="1"/>
        <pt x="145" y="877" on="0"/>
        <pt x="145" y="1017" on="1"/>
        <pt x="145" y="1132" on="0"/>
        <pt x="337" y="1281" on="0"/>
        <pt x="499" y="1281" on="1"/>
        <pt x="680" y="1281" on="0"/>
        <pt x="886" y="1099" on="0"/>
        <pt x="886" y="950" on="1"/>
        <pt x="886" y="811" on="0"/>
        <pt x="677" y="616" on="0"/>
        <pt x="483" y="578" on="1"/>
        <pt x="664" y="525" on="0"/>
        <pt x="942" y="335" on="0"/>
        <pt x="1040" y="198" on="1"/>
        <pt x="1036" y="252" on="0"/>
        <pt x="1036" y="395" on="1"/>
        <pt x="1036" y="1409" on="1"/>
        <pt x="1144" y="1409" on="1"/>
        <pt x="1191" y="1274" on="1"/>
        <pt x="1408" y="1274" on="1"/>
      </contour>
      <contour>
        <pt x="911" y="1274" on="1"/>
      </contour>
    </TTGlyph>
    <TTGlyph name="glyph00217" xMin="-21" yMin="-120" xMax="1496" yMax="1274">
      <contour>
        <pt x="-21" y="1128" on="1"/>
        <pt x="-21" y="1274" on="1"/>
        <pt x="1496" y="1274" on="1"/>
        <pt x="1496" y="1128" on="1"/>
        <pt x="565" y="1128" on="1"/>
        <pt x="565" y="590" on="1"/>
        <pt x="689" y="719" on="0"/>
        <pt x="1012" y="922" on="0"/>
        <pt x="1212" y="996" on="1"/>
        <pt x="1345" y="864" on="1"/>
        <pt x="1290" y="772" on="0"/>
        <pt x="1238" y="559" on="0"/>
        <pt x="1238" y="401" on="1"/>
        <pt x="1238" y="271" on="0"/>
        <pt x="1268" y="63" on="0"/>
        <pt x="1309" y="-81" on="1"/>
        <pt x="1155" y="-120" on="1"/>
        <pt x="1128" y="-31" on="0"/>
        <pt x="992" y="58" on="0"/>
        <pt x="891" y="58" on="1"/>
        <pt x="843" y="58" on="0"/>
        <pt x="745" y="41" on="0"/>
        <pt x="694" y="31" on="1"/>
        <pt x="563" y="3" on="0"/>
        <pt x="489" y="3" on="1"/>
        <pt x="377" y="3" on="0"/>
        <pt x="192" y="82" on="0"/>
        <pt x="94" y="235" on="0"/>
        <pt x="94" y="341" on="1"/>
        <pt x="94" y="409" on="0"/>
        <pt x="113" y="476" on="1"/>
        <pt x="270" y="457" on="1"/>
        <pt x="254" y="399" on="0"/>
        <pt x="254" y="347" on="1"/>
        <pt x="254" y="249" on="0"/>
        <pt x="366" y="150" on="0"/>
        <pt x="472" y="150" on="1"/>
        <pt x="517" y="150" on="0"/>
        <pt x="606" y="166" on="0"/>
        <pt x="657" y="178" on="1"/>
        <pt x="783" y="205" on="0"/>
        <pt x="864" y="205" on="1"/>
        <pt x="999" y="205" on="0"/>
        <pt x="1106" y="121" on="1"/>
        <pt x="1078" y="265" on="0"/>
        <pt x="1078" y="456" on="1"/>
        <pt x="1078" y="552" on="0"/>
        <pt x="1118" y="745" on="0"/>
        <pt x="1152" y="812" on="1"/>
        <pt x="1001" y="746" on="0"/>
        <pt x="689" y="519" on="0"/>
        <pt x="529" y="358" on="1"/>
        <pt x="408" y="440" on="1"/>
        <pt x="408" y="1128" on="1"/>
      </contour>
      <contour>
        <pt x="889" y="1274" on="1"/>
      </contour>
      <contour>
        <pt x="1142" y="0" on="1"/>
      </contour>
    </TTGlyph>
    <TTGlyph name="glyph00218" xMin="94" yMin="-240" xMax="1378" yMax="1288">
      <contour>
        <pt x="1163" y="-240" on="1"/>
        <pt x="1010" y="-240" on="1"/>
        <pt x="985" y="-149" on="0"/>
        <pt x="876" y="-62" on="0"/>
        <pt x="785" y="-62" on="1"/>
        <pt x="732" y="-62" on="0"/>
        <pt x="622" y="-79" on="1"/>
        <pt x="512" y="-97" on="0"/>
        <pt x="449" y="-97" on="1"/>
        <pt x="284" y="-97" on="0"/>
        <pt x="94" y="65" on="0"/>
        <pt x="94" y="221" on="1"/>
        <pt x="94" y="289" on="0"/>
        <pt x="113" y="356" on="1"/>
        <pt x="270" y="337" on="1"/>
        <pt x="254" y="279" on="0"/>
        <pt x="254" y="227" on="1"/>
        <pt x="254" y="137" on="0"/>
        <pt x="351" y="50" on="0"/>
        <pt x="458" y="50" on="1"/>
        <pt x="510" y="50" on="0"/>
        <pt x="600" y="68" on="1"/>
        <pt x="690" y="85" on="0"/>
        <pt x="743" y="85" on="1"/>
        <pt x="918" y="85" on="0"/>
        <pt x="1006" y="-36" on="1"/>
        <pt x="1006" y="0" on="1"/>
        <pt x="906" y="191" on="0"/>
        <pt x="525" y="459" on="0"/>
        <pt x="291" y="498" on="1"/>
        <pt x="211" y="695" on="1"/>
        <pt x="355" y="780" on="0"/>
        <pt x="490" y="847" on="1"/>
        <pt x="360" y="943" on="0"/>
        <pt x="360" y="1073" on="1"/>
        <pt x="360" y="1166" on="0"/>
        <pt x="502" y="1288" on="0"/>
        <pt x="627" y="1288" on="1"/>
        <pt x="687" y="1288" on="0"/>
        <pt x="736" y="1278" on="1"/>
        <pt x="723" y="1131" on="1"/>
        <pt x="691" y="1135" on="0"/>
        <pt x="650" y="1135" on="1"/>
        <pt x="588" y="1135" on="0"/>
        <pt x="522" y="1085" on="0"/>
        <pt x="522" y="1043" on="1"/>
        <pt x="522" y="1000" on="0"/>
        <pt x="573" y="940" on="0"/>
        <pt x="627" y="913" on="1"/>
        <pt x="813" y="998" on="0"/>
        <pt x="1006" y="1059" on="1"/>
        <pt x="1006" y="1274" on="1"/>
        <pt x="1378" y="1274" on="1"/>
        <pt x="1378" y="1128" on="1"/>
        <pt x="1163" y="1128" on="1"/>
      </contour>
      <contour>
        <pt x="1006" y="899" on="1"/>
        <pt x="838" y="841" on="0"/>
        <pt x="536" y="703" on="0"/>
        <pt x="402" y="623" on="1"/>
        <pt x="591" y="580" on="0"/>
        <pt x="927" y="365" on="0"/>
        <pt x="1013" y="222" on="1"/>
        <pt x="1006" y="305" on="0"/>
        <pt x="1006" y="388" on="1"/>
      </contour>
    </TTGlyph>
    <TTGlyph name="glyph00219" xMin="-21" yMin="-89" xMax="1378" yMax="1274">
      <contour>
        <pt x="1010" y="804" on="1"/>
        <pt x="1006" y="852" on="0"/>
        <pt x="1006" y="932" on="1"/>
        <pt x="1006" y="1128" on="1"/>
        <pt x="-21" y="1128" on="1"/>
        <pt x="-21" y="1274" on="1"/>
        <pt x="1378" y="1274" on="1"/>
        <pt x="1378" y="1128" on="1"/>
        <pt x="1163" y="1128" on="1"/>
        <pt x="1163" y="-89" on="1"/>
        <pt x="1010" y="-89" on="1"/>
        <pt x="985" y="2" on="0"/>
        <pt x="876" y="89" on="0"/>
        <pt x="785" y="89" on="1"/>
        <pt x="732" y="89" on="0"/>
        <pt x="622" y="72" on="1"/>
        <pt x="512" y="54" on="0"/>
        <pt x="449" y="54" on="1"/>
        <pt x="284" y="54" on="0"/>
        <pt x="94" y="216" on="0"/>
        <pt x="94" y="372" on="1"/>
        <pt x="94" y="440" on="0"/>
        <pt x="113" y="507" on="1"/>
        <pt x="270" y="488" on="1"/>
        <pt x="254" y="430" on="0"/>
        <pt x="254" y="378" on="1"/>
        <pt x="254" y="288" on="0"/>
        <pt x="351" y="201" on="0"/>
        <pt x="458" y="201" on="1"/>
        <pt x="510" y="201" on="0"/>
        <pt x="600" y="219" on="1"/>
        <pt x="690" y="236" on="0"/>
        <pt x="743" y="236" on="1"/>
        <pt x="927" y="236" on="0"/>
        <pt x="1006" y="125" on="1"/>
        <pt x="1006" y="630" on="1"/>
        <pt x="917" y="729" on="0"/>
        <pt x="740" y="838" on="0"/>
        <pt x="662" y="838" on="1"/>
        <pt x="588" y="838" on="0"/>
        <pt x="500" y="763" on="0"/>
        <pt x="500" y="698" on="1"/>
        <pt x="500" y="643" on="0"/>
        <pt x="572" y="565" on="0"/>
        <pt x="649" y="533" on="1"/>
        <pt x="576" y="387" on="1"/>
        <pt x="458" y="438" on="0"/>
        <pt x="332" y="603" on="0"/>
        <pt x="332" y="705" on="1"/>
        <pt x="332" y="833" on="0"/>
        <pt x="507" y="986" on="0"/>
        <pt x="629" y="986" on="1"/>
        <pt x="729" y="986" on="0"/>
        <pt x="913" y="900" on="0"/>
      </contour>
    </TTGlyph>
    <TTGlyph name="glyph00220" xMin="92" yMin="-89" xMax="1568" yMax="1409">
      <contour>
        <pt x="1353" y="-89" on="1"/>
        <pt x="1200" y="-89" on="1"/>
        <pt x="1141" y="89" on="0"/>
        <pt x="972" y="89" on="1"/>
        <pt x="905" y="89" on="0"/>
        <pt x="767" y="72" on="1"/>
        <pt x="629" y="54" on="0"/>
        <pt x="551" y="54" on="1"/>
        <pt x="322" y="54" on="0"/>
        <pt x="92" y="247" on="0"/>
        <pt x="92" y="435" on="1"/>
        <pt x="92" y="530" on="0"/>
        <pt x="111" y="587" on="1"/>
        <pt x="268" y="568" on="1"/>
        <pt x="252" y="513" on="0"/>
        <pt x="252" y="433" on="1"/>
        <pt x="252" y="316" on="0"/>
        <pt x="397" y="201" on="0"/>
        <pt x="550" y="201" on="1"/>
        <pt x="612" y="201" on="0"/>
        <pt x="741" y="219" on="1"/>
        <pt x="870" y="236" on="0"/>
        <pt x="938" y="236" on="1"/>
        <pt x="1105" y="236" on="0"/>
        <pt x="1196" y="125" on="1"/>
        <pt x="1196" y="741" on="1"/>
        <pt x="1122" y="845" on="0"/>
        <pt x="1074" y="902" on="1"/>
        <pt x="543" y="399" on="1"/>
        <pt x="421" y="513" on="1"/>
        <pt x="484" y="572" on="1"/>
        <pt x="528" y="635" on="0"/>
        <pt x="528" y="702" on="1"/>
        <pt x="528" y="756" on="0"/>
        <pt x="466" y="816" on="0"/>
        <pt x="407" y="816" on="1"/>
        <pt x="344" y="816" on="0"/>
        <pt x="281" y="778" on="1"/>
        <pt x="125" y="926" on="1"/>
        <pt x="271" y="1117" on="0"/>
        <pt x="534" y="1288" on="0"/>
        <pt x="675" y="1288" on="1"/>
        <pt x="822" y="1288" on="0"/>
        <pt x="1060" y="1139" on="0"/>
        <pt x="1203" y="954" on="1"/>
        <pt x="1196" y="1026" on="0"/>
        <pt x="1196" y="1142" on="1"/>
        <pt x="1196" y="1409" on="1"/>
        <pt x="1305" y="1409" on="1"/>
        <pt x="1351" y="1274" on="1"/>
        <pt x="1568" y="1274" on="1"/>
        <pt x="1568" y="1128" on="1"/>
        <pt x="1353" y="1128" on="1"/>
      </contour>
      <contour>
        <pt x="665" y="713" on="1"/>
        <pt x="713" y="764" on="0"/>
        <pt x="771" y="819" on="1"/>
        <pt x="975" y="1011" on="1"/>
        <pt x="905" y="1077" on="0"/>
        <pt x="770" y="1138" on="0"/>
        <pt x="691" y="1138" on="1"/>
        <pt x="590" y="1138" on="0"/>
        <pt x="412" y="1034" on="0"/>
        <pt x="322" y="923" on="1"/>
        <pt x="380" y="952" on="0"/>
        <pt x="437" y="952" on="1"/>
        <pt x="545" y="952" on="0"/>
        <pt x="665" y="832" on="0"/>
        <pt x="665" y="729" on="1"/>
      </contour>
      <contour>
        <pt x="1071" y="1274" on="1"/>
      </contour>
    </TTGlyph>
    <TTGlyph name="glyph00221" xMin="-21" yMin="-240" xMax="1863" yMax="1274">
      <contour>
        <pt x="1194" y="-240" on="1"/>
        <pt x="1041" y="-240" on="1"/>
        <pt x="1016" y="-149" on="0"/>
        <pt x="902" y="-62" on="0"/>
        <pt x="808" y="-62" on="1"/>
        <pt x="753" y="-62" on="0"/>
        <pt x="640" y="-79" on="1"/>
        <pt x="527" y="-97" on="0"/>
        <pt x="462" y="-97" on="1"/>
        <pt x="291" y="-97" on="0"/>
        <pt x="94" y="65" on="0"/>
        <pt x="94" y="221" on="1"/>
        <pt x="94" y="289" on="0"/>
        <pt x="113" y="356" on="1"/>
        <pt x="270" y="337" on="1"/>
        <pt x="254" y="279" on="0"/>
        <pt x="254" y="227" on="1"/>
        <pt x="254" y="136" on="0"/>
        <pt x="356" y="50" on="0"/>
        <pt x="467" y="50" on="1"/>
        <pt x="521" y="50" on="0"/>
        <pt x="614" y="68" on="1"/>
        <pt x="708" y="85" on="0"/>
        <pt x="763" y="85" on="1"/>
        <pt x="946" y="85" on="0"/>
        <pt x="1040" y="-39" on="1"/>
        <pt x="1040" y="2" on="1"/>
        <pt x="894" y="193" on="0"/>
        <pt x="554" y="392" on="0"/>
        <pt x="298" y="434" on="1"/>
        <pt x="224" y="620" on="1"/>
        <pt x="301" y="672" on="0"/>
        <pt x="510" y="788" on="0"/>
        <pt x="642" y="852" on="1"/>
        <pt x="557" y="915" on="0"/>
        <pt x="348" y="1003" on="0"/>
        <pt x="224" y="1029" on="1"/>
        <pt x="269" y="1128" on="1"/>
        <pt x="-21" y="1128" on="1"/>
        <pt x="-21" y="1274" on="1"/>
        <pt x="1863" y="1274" on="1"/>
        <pt x="1863" y="1128" on="1"/>
        <pt x="420" y="1128" on="1"/>
        <pt x="528" y="1090" on="0"/>
        <pt x="747" y="953" on="0"/>
        <pt x="815" y="884" on="1"/>
        <pt x="825" y="770" on="1"/>
        <pt x="691" y="710" on="0"/>
        <pt x="486" y="607" on="0"/>
        <pt x="415" y="564" on="1"/>
        <pt x="611" y="518" on="0"/>
        <pt x="905" y="351" on="0"/>
        <pt x="1041" y="202" on="1"/>
        <pt x="1037" y="320" on="0"/>
        <pt x="1037" y="350" on="1"/>
        <pt x="1037" y="1044" on="1"/>
        <pt x="1064" y="1044" on="1"/>
        <pt x="1272" y="1044" on="0"/>
        <pt x="1576" y="928" on="0"/>
        <pt x="1748" y="718" on="0"/>
        <pt x="1748" y="589" on="1"/>
        <pt x="1748" y="468" on="0"/>
        <pt x="1601" y="323" on="0"/>
        <pt x="1468" y="323" on="1"/>
        <pt x="1392" y="323" on="0"/>
        <pt x="1349" y="333" on="1"/>
        <pt x="1359" y="480" on="1"/>
        <pt x="1394" y="476" on="0"/>
        <pt x="1429" y="476" on="1"/>
        <pt x="1507" y="476" on="0"/>
        <pt x="1588" y="534" on="0"/>
        <pt x="1588" y="606" on="1"/>
        <pt x="1588" y="711" on="0"/>
        <pt x="1376" y="869" on="0"/>
        <pt x="1194" y="888" on="1"/>
      </contour>
      <contour>
        <pt x="1037" y="1274" on="1"/>
      </contour>
      <contour>
        <pt x="1037" y="0" on="1"/>
      </contour>
    </TTGlyph>
    <TTGlyph name="glyph00222" xMin="-21" yMin="-240" xMax="1378" yMax="1274">
      <contour>
        <pt x="1163" y="-240" on="1"/>
        <pt x="1010" y="-240" on="1"/>
        <pt x="985" y="-149" on="0"/>
        <pt x="876" y="-62" on="0"/>
        <pt x="785" y="-62" on="1"/>
        <pt x="732" y="-62" on="0"/>
        <pt x="622" y="-79" on="1"/>
        <pt x="512" y="-97" on="0"/>
        <pt x="449" y="-97" on="1"/>
        <pt x="284" y="-97" on="0"/>
        <pt x="94" y="65" on="0"/>
        <pt x="94" y="221" on="1"/>
        <pt x="94" y="289" on="0"/>
        <pt x="113" y="356" on="1"/>
        <pt x="270" y="337" on="1"/>
        <pt x="254" y="279" on="0"/>
        <pt x="254" y="227" on="1"/>
        <pt x="254" y="137" on="0"/>
        <pt x="351" y="50" on="0"/>
        <pt x="458" y="50" on="1"/>
        <pt x="510" y="50" on="0"/>
        <pt x="600" y="68" on="1"/>
        <pt x="690" y="85" on="0"/>
        <pt x="743" y="85" on="1"/>
        <pt x="918" y="85" on="0"/>
        <pt x="1006" y="-36" on="1"/>
        <pt x="1006" y="0" on="1"/>
        <pt x="906" y="191" on="0"/>
        <pt x="525" y="459" on="0"/>
        <pt x="291" y="498" on="1"/>
        <pt x="211" y="695" on="1"/>
        <pt x="418" y="817" on="0"/>
        <pt x="816" y="999" on="0"/>
        <pt x="1006" y="1059" on="1"/>
        <pt x="1006" y="1128" on="1"/>
        <pt x="-21" y="1128" on="1"/>
        <pt x="-21" y="1274" on="1"/>
        <pt x="1378" y="1274" on="1"/>
        <pt x="1378" y="1128" on="1"/>
        <pt x="1163" y="1128" on="1"/>
      </contour>
      <contour>
        <pt x="1006" y="899" on="1"/>
        <pt x="838" y="841" on="0"/>
        <pt x="536" y="703" on="0"/>
        <pt x="402" y="623" on="1"/>
        <pt x="591" y="580" on="0"/>
        <pt x="927" y="365" on="0"/>
        <pt x="1013" y="222" on="1"/>
        <pt x="1006" y="305" on="0"/>
        <pt x="1006" y="388" on="1"/>
      </contour>
    </TTGlyph>
    <TTGlyph name="glyph00223" xMin="-21" yMin="0" xMax="1466" yMax="1274">
      <contour>
        <pt x="-21" y="1128" on="1"/>
        <pt x="-21" y="1274" on="1"/>
        <pt x="1466" y="1274" on="1"/>
        <pt x="1466" y="1128" on="1"/>
      </contour>
      <contour>
        <pt x="1251" y="928" on="1"/>
        <pt x="1251" y="0" on="1"/>
        <pt x="1098" y="0" on="1"/>
        <pt x="1076" y="91" on="0"/>
        <pt x="978" y="178" on="0"/>
        <pt x="895" y="178" on="1"/>
        <pt x="832" y="178" on="0"/>
        <pt x="715" y="161" on="1"/>
        <pt x="597" y="143" on="0"/>
        <pt x="523" y="143" on="1"/>
        <pt x="308" y="143" on="0"/>
        <pt x="94" y="339" on="0"/>
        <pt x="94" y="536" on="1"/>
        <pt x="94" y="623" on="0"/>
        <pt x="114" y="722" on="1"/>
        <pt x="269" y="699" on="1"/>
        <pt x="251" y="634" on="0"/>
        <pt x="251" y="543" on="1"/>
        <pt x="251" y="419" on="0"/>
        <pt x="380" y="294" on="0"/>
        <pt x="528" y="294" on="1"/>
        <pt x="587" y="294" on="0"/>
        <pt x="693" y="312" on="1"/>
        <pt x="798" y="329" on="0"/>
        <pt x="862" y="329" on="1"/>
        <pt x="1023" y="329" on="0"/>
        <pt x="1094" y="218" on="1"/>
        <pt x="1094" y="668" on="1"/>
        <pt x="1094" y="741" on="0"/>
        <pt x="1099" y="792" on="1"/>
        <pt x="1018" y="679" on="0"/>
        <pt x="852" y="581" on="0"/>
        <pt x="743" y="581" on="1"/>
        <pt x="615" y="581" on="0"/>
        <pt x="466" y="710" on="0"/>
        <pt x="466" y="823" on="1"/>
        <pt x="466" y="906" on="0"/>
        <pt x="513" y="995" on="1"/>
        <pt x="675" y="946" on="1"/>
        <pt x="637" y="886" on="0"/>
        <pt x="637" y="831" on="1"/>
        <pt x="637" y="780" on="0"/>
        <pt x="695" y="727" on="0"/>
        <pt x="748" y="727" on="1"/>
        <pt x="838" y="727" on="0"/>
        <pt x="981" y="857" on="0"/>
        <pt x="1045" y="972" on="1"/>
      </contour>
    </TTGlyph>
    <TTGlyph name="glyph00224" xMin="-20" yMin="0" xMax="1475" yMax="1274">
      <contour>
        <pt x="422" y="519" on="1"/>
        <pt x="292" y="624" on="0"/>
        <pt x="292" y="756" on="1"/>
        <pt x="292" y="852" on="0"/>
        <pt x="426" y="963" on="0"/>
        <pt x="528" y="963" on="1"/>
        <pt x="537" y="963" on="1"/>
        <pt x="541" y="963" on="0"/>
        <pt x="545" y="962" on="1"/>
        <pt x="518" y="1084" on="0"/>
        <pt x="380" y="1128" on="1"/>
        <pt x="-20" y="1128" on="1"/>
        <pt x="-20" y="1274" on="1"/>
        <pt x="1475" y="1274" on="1"/>
        <pt x="1475" y="1128" on="1"/>
        <pt x="1243" y="1128" on="1"/>
        <pt x="1312" y="1021" on="0"/>
        <pt x="1312" y="905" on="1"/>
        <pt x="1312" y="841" on="0"/>
        <pt x="1281" y="741" on="0"/>
        <pt x="1250" y="704" on="1"/>
        <pt x="1250" y="0" on="1"/>
        <pt x="1097" y="0" on="1"/>
        <pt x="1068" y="94" on="0"/>
        <pt x="949" y="178" on="0"/>
        <pt x="851" y="178" on="1"/>
        <pt x="794" y="178" on="0"/>
        <pt x="671" y="161" on="1"/>
        <pt x="547" y="143" on="0"/>
        <pt x="472" y="143" on="1"/>
        <pt x="298" y="143" on="0"/>
        <pt x="94" y="305" on="0"/>
        <pt x="94" y="461" on="1"/>
        <pt x="94" y="529" on="0"/>
        <pt x="113" y="596" on="1"/>
        <pt x="270" y="577" on="1"/>
        <pt x="254" y="519" on="0"/>
        <pt x="254" y="467" on="1"/>
        <pt x="254" y="377" on="0"/>
        <pt x="360" y="290" on="0"/>
        <pt x="473" y="290" on="1"/>
        <pt x="536" y="290" on="0"/>
        <pt x="639" y="308" on="1"/>
        <pt x="742" y="325" on="0"/>
        <pt x="800" y="325" on="1"/>
        <pt x="1004" y="325" on="0"/>
        <pt x="1093" y="214" on="1"/>
        <pt x="1093" y="620" on="1"/>
        <pt x="1057" y="614" on="0"/>
        <pt x="1016" y="614" on="1"/>
        <pt x="930" y="614" on="0"/>
        <pt x="784" y="673" on="0"/>
        <pt x="686" y="748" on="1"/>
        <pt x="623" y="795" on="0"/>
        <pt x="572" y="817" on="0"/>
        <pt x="542" y="817" on="1"/>
        <pt x="505" y="817" on="0"/>
        <pt x="460" y="780" on="0"/>
        <pt x="460" y="743" on="1"/>
        <pt x="460" y="688" on="0"/>
        <pt x="534" y="631" on="1"/>
      </contour>
      <contour>
        <pt x="1059" y="1128" on="1"/>
        <pt x="618" y="1128" on="1"/>
        <pt x="664" y="1089" on="0"/>
        <pt x="708" y="985" on="0"/>
        <pt x="708" y="905" on="1"/>
        <pt x="708" y="902" on="1"/>
        <pt x="776" y="856" on="1"/>
        <pt x="860" y="795" on="0"/>
        <pt x="952" y="760" on="0"/>
        <pt x="1002" y="760" on="1"/>
        <pt x="1079" y="760" on="0"/>
        <pt x="1156" y="832" on="0"/>
        <pt x="1156" y="905" on="1"/>
        <pt x="1156" y="1014" on="0"/>
      </contour>
      <contour>
        <pt x="1093" y="1274" on="1"/>
      </contour>
      <contour>
        <pt x="1093" y="0" on="1"/>
      </contour>
    </TTGlyph>
    <TTGlyph name="glyph00225" xMin="-21" yMin="-240" xMax="1429" yMax="1274">
      <contour>
        <pt x="-21" y="1274" on="1"/>
        <pt x="1429" y="1274" on="1"/>
        <pt x="1429" y="1128" on="1"/>
        <pt x="1214" y="1128" on="1"/>
        <pt x="1214" y="-240" on="1"/>
        <pt x="1061" y="-240" on="1"/>
        <pt x="1035" y="-149" on="0"/>
        <pt x="919" y="-62" on="0"/>
        <pt x="823" y="-62" on="1"/>
        <pt x="767" y="-62" on="0"/>
        <pt x="652" y="-79" on="1"/>
        <pt x="536" y="-97" on="0"/>
        <pt x="470" y="-97" on="1"/>
        <pt x="296" y="-97" on="0"/>
        <pt x="94" y="64" on="0"/>
        <pt x="94" y="220" on="1"/>
        <pt x="94" y="289" on="0"/>
        <pt x="113" y="356" on="1"/>
        <pt x="270" y="337" on="1"/>
        <pt x="254" y="279" on="0"/>
        <pt x="254" y="227" on="1"/>
        <pt x="254" y="137" on="0"/>
        <pt x="358" y="50" on="0"/>
        <pt x="472" y="50" on="1"/>
        <pt x="527" y="50" on="0"/>
        <pt x="623" y="68" on="1"/>
        <pt x="720" y="85" on="0"/>
        <pt x="776" y="85" on="1"/>
        <pt x="963" y="85" on="0"/>
        <pt x="1057" y="-36" on="1"/>
        <pt x="1057" y="0" on="1"/>
        <pt x="906" y="199" on="0"/>
        <pt x="540" y="399" on="0"/>
        <pt x="298" y="434" on="1"/>
        <pt x="224" y="620" on="1"/>
        <pt x="301" y="672" on="0"/>
        <pt x="510" y="788" on="0"/>
        <pt x="642" y="852" on="1"/>
        <pt x="557" y="915" on="0"/>
        <pt x="348" y="1003" on="0"/>
        <pt x="224" y="1029" on="1"/>
        <pt x="269" y="1128" on="1"/>
        <pt x="-21" y="1128" on="1"/>
      </contour>
      <contour>
        <pt x="825" y="770" on="1"/>
        <pt x="691" y="710" on="0"/>
        <pt x="486" y="607" on="0"/>
        <pt x="415" y="564" on="1"/>
        <pt x="605" y="529" on="0"/>
        <pt x="920" y="358" on="0"/>
        <pt x="1061" y="202" on="1"/>
        <pt x="1057" y="320" on="0"/>
        <pt x="1057" y="350" on="1"/>
        <pt x="1057" y="1128" on="1"/>
        <pt x="420" y="1128" on="1"/>
        <pt x="528" y="1090" on="0"/>
        <pt x="747" y="953" on="0"/>
        <pt x="815" y="884" on="1"/>
      </contour>
    </TTGlyph>
    <TTGlyph name="glyph00226" xMin="-21" yMin="-329" xMax="1378" yMax="1274">
      <contour>
        <pt x="1163" y="-329" on="1"/>
        <pt x="1010" y="-329" on="1"/>
        <pt x="985" y="-238" on="0"/>
        <pt x="876" y="-151" on="0"/>
        <pt x="785" y="-151" on="1"/>
        <pt x="732" y="-151" on="0"/>
        <pt x="622" y="-168" on="1"/>
        <pt x="512" y="-186" on="0"/>
        <pt x="449" y="-186" on="1"/>
        <pt x="284" y="-186" on="0"/>
        <pt x="94" y="-24" on="0"/>
        <pt x="94" y="132" on="1"/>
        <pt x="94" y="200" on="0"/>
        <pt x="113" y="267" on="1"/>
        <pt x="270" y="248" on="1"/>
        <pt x="254" y="190" on="0"/>
        <pt x="254" y="138" on="1"/>
        <pt x="254" y="48" on="0"/>
        <pt x="351" y="-39" on="0"/>
        <pt x="458" y="-39" on="1"/>
        <pt x="510" y="-39" on="0"/>
        <pt x="600" y="-21" on="1"/>
        <pt x="690" y="-4" on="0"/>
        <pt x="743" y="-4" on="1"/>
        <pt x="927" y="-4" on="0"/>
        <pt x="1006" y="-115" on="1"/>
        <pt x="1006" y="0" on="1"/>
        <pt x="906" y="191" on="0"/>
        <pt x="525" y="459" on="0"/>
        <pt x="291" y="498" on="1"/>
        <pt x="211" y="695" on="1"/>
        <pt x="418" y="817" on="0"/>
        <pt x="816" y="999" on="0"/>
        <pt x="1006" y="1059" on="1"/>
        <pt x="1006" y="1128" on="1"/>
        <pt x="-21" y="1128" on="1"/>
        <pt x="-21" y="1274" on="1"/>
        <pt x="1378" y="1274" on="1"/>
        <pt x="1378" y="1128" on="1"/>
        <pt x="1163" y="1128" on="1"/>
      </contour>
      <contour>
        <pt x="1006" y="899" on="1"/>
        <pt x="838" y="841" on="0"/>
        <pt x="536" y="703" on="0"/>
        <pt x="402" y="623" on="1"/>
        <pt x="591" y="580" on="0"/>
        <pt x="927" y="365" on="0"/>
        <pt x="1013" y="222" on="1"/>
        <pt x="1006" y="305" on="0"/>
        <pt x="1006" y="388" on="1"/>
      </contour>
      <contour>
        <pt x="509" y="66" on="1"/>
        <pt x="459" y="66" on="0"/>
        <pt x="385" y="134" on="0"/>
        <pt x="385" y="186" on="1"/>
        <pt x="385" y="237" on="0"/>
        <pt x="456" y="307" on="0"/>
        <pt x="509" y="307" on="1"/>
        <pt x="559" y="307" on="0"/>
        <pt x="629" y="237" on="0"/>
        <pt x="629" y="186" on="1"/>
        <pt x="629" y="134" on="0"/>
        <pt x="559" y="66" on="0"/>
      </contour>
    </TTGlyph>
    <TTGlyph name="glyph00227" xMin="-21" yMin="-240" xMax="1510" yMax="1274">
      <contour>
        <pt x="-21" y="1128" on="1"/>
        <pt x="-21" y="1274" on="1"/>
        <pt x="1510" y="1274" on="1"/>
        <pt x="1510" y="1128" on="1"/>
        <pt x="1295" y="1128" on="1"/>
        <pt x="1295" y="-240" on="1"/>
        <pt x="1142" y="-240" on="1"/>
        <pt x="1116" y="-147" on="0"/>
        <pt x="1003" y="-62" on="0"/>
        <pt x="911" y="-62" on="1"/>
        <pt x="850" y="-62" on="0"/>
        <pt x="695" y="-79" on="1"/>
        <pt x="540" y="-97" on="0"/>
        <pt x="480" y="-97" on="1"/>
        <pt x="294" y="-97" on="0"/>
        <pt x="94" y="69" on="0"/>
        <pt x="94" y="234" on="1"/>
        <pt x="94" y="313" on="0"/>
        <pt x="118" y="397" on="1"/>
        <pt x="275" y="378" on="1"/>
        <pt x="254" y="308" on="0"/>
        <pt x="254" y="238" on="1"/>
        <pt x="254" y="137" on="0"/>
        <pt x="361" y="50" on="0"/>
        <pt x="494" y="50" on="1"/>
        <pt x="536" y="50" on="0"/>
        <pt x="671" y="68" on="1"/>
        <pt x="806" y="85" on="0"/>
        <pt x="866" y="85" on="1"/>
        <pt x="1056" y="85" on="0"/>
        <pt x="1138" y="-26" on="1"/>
        <pt x="1138" y="764" on="1"/>
        <pt x="1079" y="819" on="0"/>
        <pt x="1018" y="819" on="1"/>
        <pt x="966" y="819" on="0"/>
        <pt x="895" y="754" on="0"/>
        <pt x="895" y="693" on="1"/>
        <pt x="895" y="671" on="0"/>
        <pt x="900" y="644" on="1"/>
        <pt x="767" y="637" on="1"/>
        <pt x="748" y="734" on="0"/>
        <pt x="620" y="848" on="0"/>
        <pt x="538" y="848" on="1"/>
        <pt x="464" y="848" on="0"/>
        <pt x="376" y="774" on="0"/>
        <pt x="376" y="711" on="1"/>
        <pt x="376" y="641" on="0"/>
        <pt x="472" y="546" on="0"/>
        <pt x="593" y="507" on="1"/>
        <pt x="538" y="356" on="1"/>
        <pt x="373" y="406" on="0"/>
        <pt x="209" y="588" on="0"/>
        <pt x="209" y="721" on="1"/>
        <pt x="209" y="838" on="0"/>
        <pt x="392" y="996" on="0"/>
        <pt x="522" y="996" on="1"/>
        <pt x="616" y="996" on="0"/>
        <pt x="754" y="930" on="0"/>
        <pt x="815" y="854" on="1"/>
        <pt x="841" y="906" on="0"/>
        <pt x="939" y="964" on="0"/>
        <pt x="1000" y="964" on="1"/>
        <pt x="1071" y="964" on="0"/>
        <pt x="1141" y="913" on="1"/>
        <pt x="1138" y="941" on="0"/>
        <pt x="1138" y="1028" on="1"/>
        <pt x="1138" y="1128" on="1"/>
      </contour>
    </TTGlyph>
    <TTGlyph name="glyph00228" xMin="-18" yMin="-89" xMax="1406" yMax="1409">
      <contour>
        <pt x="-18" y="1269" on="1"/>
        <pt x="76" y="1288" on="0"/>
        <pt x="158" y="1288" on="1"/>
        <pt x="262" y="1288" on="0"/>
        <pt x="424" y="1194" on="0"/>
        <pt x="463" y="1108" on="1"/>
        <pt x="498" y="1195" on="0"/>
        <pt x="646" y="1288" on="0"/>
        <pt x="739" y="1288" on="1"/>
        <pt x="825" y="1288" on="0"/>
        <pt x="980" y="1211" on="0"/>
        <pt x="1039" y="1135" on="1"/>
        <pt x="1035" y="1171" on="0"/>
        <pt x="1035" y="1244" on="1"/>
        <pt x="1035" y="1409" on="1"/>
        <pt x="1143" y="1409" on="1"/>
        <pt x="1191" y="1274" on="1"/>
        <pt x="1406" y="1274" on="1"/>
        <pt x="1406" y="1128" on="1"/>
        <pt x="1192" y="1128" on="1"/>
        <pt x="1192" y="-89" on="1"/>
        <pt x="1039" y="-89" on="1"/>
        <pt x="990" y="89" on="0"/>
        <pt x="822" y="89" on="1"/>
        <pt x="762" y="89" on="0"/>
        <pt x="647" y="72" on="1"/>
        <pt x="532" y="54" on="0"/>
        <pt x="468" y="54" on="1"/>
        <pt x="317" y="54" on="0"/>
        <pt x="131" y="220" on="0"/>
        <pt x="131" y="375" on="1"/>
        <pt x="131" y="449" on="0"/>
        <pt x="150" y="507" on="1"/>
        <pt x="307" y="488" on="1"/>
        <pt x="291" y="436" on="0"/>
        <pt x="291" y="379" on="1"/>
        <pt x="291" y="287" on="0"/>
        <pt x="373" y="201" on="0"/>
        <pt x="472" y="201" on="1"/>
        <pt x="525" y="201" on="0"/>
        <pt x="626" y="219" on="1"/>
        <pt x="728" y="236" on="0"/>
        <pt x="774" y="236" on="1"/>
        <pt x="956" y="236" on="0"/>
        <pt x="1035" y="125" on="1"/>
        <pt x="1035" y="930" on="1"/>
        <pt x="973" y="1034" on="0"/>
        <pt x="828" y="1138" on="0"/>
        <pt x="744" y="1138" on="1"/>
        <pt x="660" y="1138" on="0"/>
        <pt x="565" y="1046" on="0"/>
        <pt x="565" y="964" on="1"/>
        <pt x="565" y="876" on="0"/>
        <pt x="707" y="779" on="0"/>
        <pt x="845" y="772" on="1"/>
        <pt x="831" y="614" on="1"/>
        <pt x="692" y="622" on="0"/>
        <pt x="511" y="722" on="0"/>
        <pt x="470" y="814" on="1"/>
        <pt x="430" y="719" on="0"/>
        <pt x="244" y="614" on="0"/>
        <pt x="111" y="614" on="1"/>
        <pt x="98" y="772" on="1"/>
        <pt x="231" y="774" on="0"/>
        <pt x="371" y="875" on="0"/>
        <pt x="371" y="958" on="1"/>
        <pt x="371" y="1044" on="0"/>
        <pt x="259" y="1138" on="0"/>
        <pt x="155" y="1138" on="1"/>
        <pt x="79" y="1138" on="0"/>
        <pt x="-2" y="1116" on="1"/>
      </contour>
      <contour>
        <pt x="911" y="1274" on="1"/>
      </contour>
    </TTGlyph>
    <TTGlyph name="glyph00229" xMin="-21" yMin="-240" xMax="1443" yMax="1274">
      <contour>
        <pt x="267" y="1128" on="1"/>
        <pt x="-21" y="1128" on="1"/>
        <pt x="-21" y="1274" on="1"/>
        <pt x="1443" y="1274" on="1"/>
        <pt x="1443" y="1128" on="1"/>
        <pt x="1228" y="1128" on="1"/>
        <pt x="1228" y="-240" on="1"/>
        <pt x="1075" y="-240" on="1"/>
        <pt x="1048" y="-149" on="0"/>
        <pt x="931" y="-62" on="0"/>
        <pt x="834" y="-62" on="1"/>
        <pt x="777" y="-62" on="0"/>
        <pt x="659" y="-79" on="1"/>
        <pt x="541" y="-97" on="0"/>
        <pt x="475" y="-97" on="1"/>
        <pt x="299" y="-97" on="0"/>
        <pt x="94" y="65" on="0"/>
        <pt x="94" y="221" on="1"/>
        <pt x="94" y="289" on="0"/>
        <pt x="113" y="356" on="1"/>
        <pt x="270" y="337" on="1"/>
        <pt x="254" y="279" on="0"/>
        <pt x="254" y="227" on="1"/>
        <pt x="254" y="136" on="0"/>
        <pt x="361" y="50" on="0"/>
        <pt x="476" y="50" on="1"/>
        <pt x="532" y="50" on="0"/>
        <pt x="630" y="68" on="1"/>
        <pt x="727" y="85" on="0"/>
        <pt x="785" y="85" on="1"/>
        <pt x="975" y="85" on="0"/>
        <pt x="1071" y="-36" on="1"/>
        <pt x="1071" y="0" on="1"/>
        <pt x="897" y="206" on="0"/>
        <pt x="539" y="399" on="0"/>
        <pt x="298" y="434" on="1"/>
        <pt x="224" y="620" on="1"/>
        <pt x="324" y="684" on="0"/>
        <pt x="546" y="803" on="0"/>
        <pt x="668" y="857" on="1"/>
        <pt x="553" y="920" on="0"/>
        <pt x="331" y="1006" on="0"/>
        <pt x="224" y="1029" on="1"/>
      </contour>
      <contour>
        <pt x="399" y="1128" on="1"/>
        <pt x="579" y="1072" on="0"/>
        <pt x="938" y="863" on="0"/>
        <pt x="1075" y="735" on="1"/>
        <pt x="1071" y="792" on="0"/>
        <pt x="1071" y="889" on="1"/>
        <pt x="1071" y="1128" on="1"/>
      </contour>
      <contour>
        <pt x="1075" y="202" on="1"/>
        <pt x="1071" y="320" on="0"/>
        <pt x="1071" y="350" on="1"/>
        <pt x="1071" y="553" on="1"/>
        <pt x="969" y="663" on="0"/>
        <pt x="817" y="766" on="1"/>
        <pt x="690" y="709" on="0"/>
        <pt x="490" y="608" on="0"/>
        <pt x="416" y="564" on="1"/>
        <pt x="595" y="530" on="0"/>
        <pt x="918" y="362" on="0"/>
      </contour>
    </TTGlyph>
    <TTGlyph name="glyph00230" xMin="-20" yMin="-89" xMax="1495" yMax="1274">
      <contour>
        <pt x="201" y="928" on="1"/>
        <pt x="236" y="867" on="0"/>
        <pt x="293" y="800" on="0"/>
        <pt x="343" y="773" on="0"/>
        <pt x="381" y="773" on="1"/>
        <pt x="468" y="773" on="0"/>
        <pt x="550" y="952" on="0"/>
        <pt x="554" y="1128" on="1"/>
        <pt x="-20" y="1128" on="1"/>
        <pt x="-20" y="1274" on="1"/>
        <pt x="1495" y="1274" on="1"/>
        <pt x="1495" y="1128" on="1"/>
        <pt x="1263" y="1128" on="1"/>
        <pt x="1332" y="1021" on="0"/>
        <pt x="1332" y="905" on="1"/>
        <pt x="1332" y="846" on="0"/>
        <pt x="1301" y="749" on="0"/>
        <pt x="1270" y="712" on="1"/>
        <pt x="1270" y="-89" on="1"/>
        <pt x="1117" y="-89" on="1"/>
        <pt x="1089" y="4" on="0"/>
        <pt x="970" y="89" on="0"/>
        <pt x="873" y="89" on="1"/>
        <pt x="818" y="89" on="0"/>
        <pt x="695" y="72" on="1"/>
        <pt x="573" y="54" on="0"/>
        <pt x="498" y="54" on="1"/>
        <pt x="326" y="54" on="0"/>
        <pt x="124" y="216" on="0"/>
        <pt x="124" y="372" on="1"/>
        <pt x="124" y="440" on="0"/>
        <pt x="143" y="507" on="1"/>
        <pt x="300" y="488" on="1"/>
        <pt x="284" y="430" on="0"/>
        <pt x="284" y="378" on="1"/>
        <pt x="284" y="288" on="0"/>
        <pt x="389" y="201" on="0"/>
        <pt x="500" y="201" on="1"/>
        <pt x="564" y="201" on="0"/>
        <pt x="665" y="219" on="1"/>
        <pt x="765" y="236" on="0"/>
        <pt x="823" y="236" on="1"/>
        <pt x="1025" y="236" on="0"/>
        <pt x="1113" y="125" on="1"/>
        <pt x="1113" y="623" on="1"/>
        <pt x="1071" y="614" on="0"/>
        <pt x="1023" y="614" on="1"/>
        <pt x="899" y="614" on="0"/>
        <pt x="710" y="739" on="0"/>
        <pt x="653" y="860" on="1"/>
        <pt x="617" y="740" on="0"/>
        <pt x="491" y="614" on="0"/>
        <pt x="403" y="614" on="1"/>
        <pt x="302" y="614" on="0"/>
        <pt x="152" y="730" on="0"/>
        <pt x="75" y="853" on="1"/>
      </contour>
      <contour>
        <pt x="1079" y="1128" on="1"/>
        <pt x="697" y="1128" on="1"/>
        <pt x="738" y="944" on="0"/>
        <pt x="903" y="760" on="0"/>
        <pt x="1026" y="760" on="1"/>
        <pt x="1098" y="760" on="0"/>
        <pt x="1176" y="836" on="0"/>
        <pt x="1176" y="905" on="1"/>
        <pt x="1176" y="1014" on="0"/>
      </contour>
      <contour>
        <pt x="1113" y="1274" on="1"/>
      </contour>
      <contour>
        <pt x="1113" y="0" on="1"/>
      </contour>
    </TTGlyph>
    <TTGlyph name="glyph00231" xMin="-21" yMin="-330" xMax="1327" yMax="1274">
      <contour>
        <pt x="1327" y="1128" on="1"/>
        <pt x="653" y="1128" on="1"/>
        <pt x="703" y="1085" on="0"/>
        <pt x="725" y="1024" on="1"/>
        <pt x="858" y="1022" on="0"/>
        <pt x="1061" y="930" on="0"/>
        <pt x="1170" y="762" on="0"/>
        <pt x="1170" y="665" on="1"/>
        <pt x="1170" y="510" on="0"/>
        <pt x="968" y="319" on="0"/>
        <pt x="779" y="294" on="1"/>
        <pt x="915" y="244" on="0"/>
        <pt x="1189" y="87" on="0"/>
        <pt x="1326" y="-21" on="1"/>
        <pt x="1231" y="-130" on="1"/>
        <pt x="1105" y="-36" on="0"/>
        <pt x="1053" y="-2" on="1"/>
        <pt x="1057" y="-54" on="0"/>
        <pt x="1057" y="-137" on="1"/>
        <pt x="1057" y="-330" on="1"/>
        <pt x="904" y="-330" on="1"/>
        <pt x="881" y="-237" on="0"/>
        <pt x="778" y="-152" on="0"/>
        <pt x="690" y="-152" on="1"/>
        <pt x="639" y="-152" on="0"/>
        <pt x="542" y="-169" on="1"/>
        <pt x="446" y="-187" on="0"/>
        <pt x="390" y="-187" on="1"/>
        <pt x="239" y="-187" on="0"/>
        <pt x="64" y="-25" on="0"/>
        <pt x="64" y="131" on="1"/>
        <pt x="64" y="199" on="0"/>
        <pt x="83" y="266" on="1"/>
        <pt x="240" y="247" on="1"/>
        <pt x="224" y="189" on="0"/>
        <pt x="224" y="137" on="1"/>
        <pt x="224" y="46" on="0"/>
        <pt x="311" y="-40" on="0"/>
        <pt x="407" y="-40" on="1"/>
        <pt x="459" y="-40" on="0"/>
        <pt x="546" y="-22" on="1"/>
        <pt x="633" y="-5" on="0"/>
        <pt x="683" y="-5" on="1"/>
        <pt x="820" y="-5" on="0"/>
        <pt x="900" y="-116" on="1"/>
        <pt x="900" y="95" on="1"/>
        <pt x="775" y="168" on="0"/>
        <pt x="505" y="271" on="0"/>
        <pt x="315" y="315" on="1"/>
        <pt x="344" y="457" on="1"/>
        <pt x="414" y="435" on="0"/>
        <pt x="548" y="418" on="0"/>
        <pt x="643" y="418" on="1"/>
        <pt x="825" y="418" on="0"/>
        <pt x="1009" y="542" on="0"/>
        <pt x="1009" y="656" on="1"/>
        <pt x="1009" y="759" on="0"/>
        <pt x="855" y="880" on="0"/>
        <pt x="726" y="880" on="1"/>
        <pt x="623" y="880" on="0"/>
        <pt x="522" y="821" on="0"/>
        <pt x="522" y="758" on="1"/>
        <pt x="522" y="724" on="0"/>
        <pt x="535" y="692" on="1"/>
        <pt x="386" y="662" on="1"/>
        <pt x="363" y="729" on="0"/>
        <pt x="363" y="787" on="1"/>
        <pt x="363" y="865" on="0"/>
        <pt x="463" y="978" on="0"/>
        <pt x="562" y="1005" on="1"/>
        <pt x="520" y="1092" on="0"/>
        <pt x="410" y="1128" on="1"/>
        <pt x="-21" y="1128" on="1"/>
        <pt x="-21" y="1274" on="1"/>
        <pt x="1327" y="1274" on="1"/>
      </contour>
      <contour>
        <pt x="698" y="1274" on="1"/>
      </contour>
      <contour>
        <pt x="900" y="0" on="1"/>
      </contour>
    </TTGlyph>
    <TTGlyph name="glyph00232" xMin="-21" yMin="-240" xMax="1378" yMax="1274">
      <contour>
        <pt x="1163" y="-240" on="1"/>
        <pt x="1010" y="-240" on="1"/>
        <pt x="985" y="-149" on="0"/>
        <pt x="876" y="-62" on="0"/>
        <pt x="785" y="-62" on="1"/>
        <pt x="732" y="-62" on="0"/>
        <pt x="622" y="-79" on="1"/>
        <pt x="512" y="-97" on="0"/>
        <pt x="449" y="-97" on="1"/>
        <pt x="284" y="-97" on="0"/>
        <pt x="94" y="65" on="0"/>
        <pt x="94" y="221" on="1"/>
        <pt x="94" y="289" on="0"/>
        <pt x="113" y="356" on="1"/>
        <pt x="270" y="337" on="1"/>
        <pt x="254" y="279" on="0"/>
        <pt x="254" y="227" on="1"/>
        <pt x="254" y="137" on="0"/>
        <pt x="351" y="50" on="0"/>
        <pt x="458" y="50" on="1"/>
        <pt x="510" y="50" on="0"/>
        <pt x="600" y="68" on="1"/>
        <pt x="690" y="85" on="0"/>
        <pt x="743" y="85" on="1"/>
        <pt x="918" y="85" on="0"/>
        <pt x="1006" y="-36" on="1"/>
        <pt x="1006" y="0" on="1"/>
        <pt x="904" y="192" on="0"/>
        <pt x="524" y="459" on="0"/>
        <pt x="291" y="498" on="1"/>
        <pt x="211" y="695" on="1"/>
        <pt x="418" y="817" on="0"/>
        <pt x="816" y="999" on="0"/>
        <pt x="1006" y="1059" on="1"/>
        <pt x="1006" y="1128" on="1"/>
        <pt x="-21" y="1128" on="1"/>
        <pt x="-21" y="1274" on="1"/>
        <pt x="1378" y="1274" on="1"/>
        <pt x="1378" y="1128" on="1"/>
        <pt x="1163" y="1128" on="1"/>
      </contour>
      <contour>
        <pt x="1006" y="898" on="1"/>
        <pt x="863" y="854" on="0"/>
        <pt x="709" y="784" on="1"/>
        <pt x="885" y="722" on="0"/>
        <pt x="1006" y="611" on="1"/>
      </contour>
      <contour>
        <pt x="1006" y="447" on="1"/>
        <pt x="825" y="641" on="0"/>
        <pt x="563" y="714" on="1"/>
        <pt x="491" y="677" on="0"/>
        <pt x="399" y="622" on="1"/>
        <pt x="595" y="576" on="0"/>
        <pt x="930" y="361" on="0"/>
        <pt x="1013" y="222" on="1"/>
        <pt x="1006" y="283" on="0"/>
        <pt x="1006" y="390" on="1"/>
      </contour>
    </TTGlyph>
    <TTGlyph name="glyph00233" xMin="-22" yMin="-372" xMax="1378" yMax="1274">
      <contour>
        <pt x="1163" y="-372" on="1"/>
        <pt x="1010" y="-372" on="1"/>
        <pt x="985" y="-281" on="0"/>
        <pt x="876" y="-194" on="0"/>
        <pt x="785" y="-194" on="1"/>
        <pt x="732" y="-194" on="0"/>
        <pt x="622" y="-211" on="1"/>
        <pt x="512" y="-229" on="0"/>
        <pt x="449" y="-229" on="1"/>
        <pt x="284" y="-229" on="0"/>
        <pt x="94" y="-75" on="0"/>
        <pt x="94" y="71" on="1"/>
        <pt x="94" y="136" on="0"/>
        <pt x="113" y="199" on="1"/>
        <pt x="270" y="180" on="1"/>
        <pt x="254" y="126" on="0"/>
        <pt x="254" y="80" on="1"/>
        <pt x="254" y="-2" on="0"/>
        <pt x="351" y="-82" on="0"/>
        <pt x="458" y="-82" on="1"/>
        <pt x="510" y="-82" on="0"/>
        <pt x="600" y="-64" on="1"/>
        <pt x="690" y="-47" on="0"/>
        <pt x="743" y="-47" on="1"/>
        <pt x="927" y="-47" on="0"/>
        <pt x="1006" y="-158" on="1"/>
        <pt x="1006" y="0" on="1"/>
        <pt x="906" y="191" on="0"/>
        <pt x="525" y="459" on="0"/>
        <pt x="291" y="498" on="1"/>
        <pt x="211" y="695" on="1"/>
        <pt x="418" y="817" on="0"/>
        <pt x="816" y="999" on="0"/>
        <pt x="1006" y="1059" on="1"/>
        <pt x="1006" y="1128" on="1"/>
        <pt x="-22" y="1128" on="1"/>
        <pt x="-22" y="1274" on="1"/>
        <pt x="1378" y="1274" on="1"/>
        <pt x="1378" y="1128" on="1"/>
        <pt x="1163" y="1128" on="1"/>
      </contour>
      <contour>
        <pt x="1006" y="899" on="1"/>
        <pt x="838" y="841" on="0"/>
        <pt x="536" y="703" on="0"/>
        <pt x="402" y="623" on="1"/>
        <pt x="591" y="580" on="0"/>
        <pt x="927" y="365" on="0"/>
        <pt x="1013" y="222" on="1"/>
        <pt x="1006" y="305" on="0"/>
        <pt x="1006" y="388" on="1"/>
      </contour>
      <contour>
        <pt x="312" y="380" on="1"/>
        <pt x="461" y="352" on="0"/>
        <pt x="722" y="200" on="0"/>
        <pt x="816" y="84" on="1"/>
        <pt x="721" y="-1" on="1"/>
        <pt x="550" y="184" on="0"/>
        <pt x="280" y="234" on="1"/>
      </contour>
    </TTGlyph>
    <TTGlyph name="glyph00234" xMin="-21" yMin="-555" xMax="1480" yMax="1274">
      <contour>
        <pt x="728" y="807" on="1"/>
        <pt x="728" y="762" on="0"/>
        <pt x="741" y="721" on="0"/>
        <pt x="776" y="692" on="0"/>
        <pt x="804" y="692" on="1"/>
        <pt x="865" y="692" on="0"/>
        <pt x="999" y="807" on="0"/>
        <pt x="1084" y="931" on="1"/>
        <pt x="1206" y="951" on="1"/>
        <pt x="1344" y="754" on="0"/>
        <pt x="1344" y="559" on="1"/>
        <pt x="1344" y="479" on="0"/>
        <pt x="1299" y="345" on="0"/>
        <pt x="1255" y="290" on="1"/>
        <pt x="1255" y="-555" on="1"/>
        <pt x="1102" y="-555" on="1"/>
        <pt x="1073" y="-461" on="0"/>
        <pt x="956" y="-377" on="0"/>
        <pt x="860" y="-377" on="1"/>
        <pt x="803" y="-377" on="0"/>
        <pt x="684" y="-394" on="1"/>
        <pt x="565" y="-412" on="0"/>
        <pt x="498" y="-412" on="1"/>
        <pt x="323" y="-412" on="0"/>
        <pt x="114" y="-228" on="0"/>
        <pt x="114" y="-51" on="1"/>
        <pt x="114" y="34" on="0"/>
        <pt x="138" y="128" on="1"/>
        <pt x="295" y="109" on="1"/>
        <pt x="274" y="27" on="0"/>
        <pt x="274" y="-50" on="1"/>
        <pt x="274" y="-158" on="0"/>
        <pt x="382" y="-265" on="0"/>
        <pt x="498" y="-265" on="1"/>
        <pt x="555" y="-265" on="0"/>
        <pt x="654" y="-247" on="1"/>
        <pt x="753" y="-230" on="0"/>
        <pt x="810" y="-230" on="1"/>
        <pt x="1010" y="-230" on="0"/>
        <pt x="1098" y="-341" on="1"/>
        <pt x="1098" y="85" on="1"/>
        <pt x="1098" y="149" on="0"/>
        <pt x="1100" y="173" on="1"/>
        <pt x="1046" y="148" on="0"/>
        <pt x="918" y="124" on="0"/>
        <pt x="844" y="124" on="1"/>
        <pt x="556" y="124" on="0"/>
        <pt x="171" y="538" on="0"/>
        <pt x="59" y="952" on="1"/>
        <pt x="214" y="994" on="1"/>
        <pt x="311" y="628" on="0"/>
        <pt x="611" y="279" on="0"/>
        <pt x="842" y="279" on="1"/>
        <pt x="1001" y="279" on="0"/>
        <pt x="1189" y="431" on="0"/>
        <pt x="1189" y="557" on="1"/>
        <pt x="1189" y="681" on="0"/>
        <pt x="1134" y="762" on="1"/>
        <pt x="1053" y="649" on="0"/>
        <pt x="885" y="541" on="0"/>
        <pt x="806" y="541" on="1"/>
        <pt x="728" y="541" on="0"/>
        <pt x="618" y="611" on="0"/>
        <pt x="571" y="731" on="0"/>
        <pt x="571" y="835" on="1"/>
        <pt x="571" y="1128" on="1"/>
        <pt x="-21" y="1128" on="1"/>
        <pt x="-21" y="1274" on="1"/>
        <pt x="1480" y="1274" on="1"/>
        <pt x="1480" y="1128" on="1"/>
        <pt x="728" y="1128" on="1"/>
      </contour>
      <contour>
        <pt x="669" y="-170" on="1"/>
        <pt x="619" y="-170" on="0"/>
        <pt x="545" y="-102" on="0"/>
        <pt x="545" y="-50" on="1"/>
        <pt x="545" y="1" on="0"/>
        <pt x="616" y="71" on="0"/>
        <pt x="669" y="71" on="1"/>
        <pt x="719" y="71" on="0"/>
        <pt x="789" y="1" on="0"/>
        <pt x="789" y="-50" on="1"/>
        <pt x="789" y="-102" on="0"/>
        <pt x="719" y="-170" on="0"/>
      </contour>
      <contour>
        <pt x="699" y="1274" on="1"/>
      </contour>
    </TTGlyph>
    <TTGlyph name="glyph00235" xMin="-21" yMin="-305" xMax="1454" yMax="1274">
      <component glyphName="glyph00527" x="0" y="0" flags="0x204"/>
      <component glyphName="uni09BC" x="1050" y="70" flags="0x4"/>
    </TTGlyph>
    <TTGlyph name="glyph00236" xMin="-21" yMin="-555" xMax="1394" yMax="1274">
      <contour>
        <pt x="860" y="765" on="1"/>
        <pt x="837" y="911" on="1"/>
        <pt x="916" y="932" on="0"/>
        <pt x="1006" y="932" on="1"/>
        <pt x="1130" y="932" on="0"/>
        <pt x="1268" y="793" on="0"/>
        <pt x="1268" y="659" on="1"/>
        <pt x="1268" y="588" on="0"/>
        <pt x="1218" y="449" on="0"/>
        <pt x="1169" y="380" on="1"/>
        <pt x="1169" y="-555" on="1"/>
        <pt x="1016" y="-555" on="1"/>
        <pt x="990" y="-462" on="0"/>
        <pt x="877" y="-377" on="0"/>
        <pt x="785" y="-377" on="1"/>
        <pt x="731" y="-377" on="0"/>
        <pt x="618" y="-394" on="1"/>
        <pt x="504" y="-412" on="0"/>
        <pt x="440" y="-412" on="1"/>
        <pt x="273" y="-412" on="0"/>
        <pt x="74" y="-217" on="0"/>
        <pt x="74" y="-30" on="1"/>
        <pt x="74" y="61" on="0"/>
        <pt x="98" y="158" on="1"/>
        <pt x="255" y="139" on="1"/>
        <pt x="234" y="51" on="0"/>
        <pt x="234" y="-33" on="1"/>
        <pt x="234" y="-148" on="0"/>
        <pt x="335" y="-265" on="0"/>
        <pt x="446" y="-265" on="1"/>
        <pt x="500" y="-265" on="0"/>
        <pt x="593" y="-247" on="1"/>
        <pt x="685" y="-230" on="0"/>
        <pt x="740" y="-230" on="1"/>
        <pt x="930" y="-230" on="0"/>
        <pt x="1012" y="-341" on="1"/>
        <pt x="1012" y="228" on="1"/>
        <pt x="938" y="176" on="0"/>
        <pt x="781" y="125" on="0"/>
        <pt x="698" y="125" on="1"/>
        <pt x="605" y="125" on="0"/>
        <pt x="479" y="190" on="0"/>
        <pt x="404" y="319" on="0"/>
        <pt x="404" y="454" on="1"/>
        <pt x="404" y="1128" on="1"/>
        <pt x="-21" y="1128" on="1"/>
        <pt x="-21" y="1274" on="1"/>
        <pt x="1394" y="1274" on="1"/>
        <pt x="1394" y="1128" on="1"/>
        <pt x="561" y="1128" on="1"/>
        <pt x="561" y="485" on="1"/>
        <pt x="561" y="410" on="0"/>
        <pt x="580" y="321" on="0"/>
        <pt x="644" y="271" on="0"/>
        <pt x="707" y="271" on="1"/>
        <pt x="856" y="271" on="0"/>
        <pt x="1108" y="513" on="0"/>
        <pt x="1108" y="651" on="1"/>
        <pt x="1108" y="718" on="0"/>
        <pt x="1037" y="779" on="0"/>
        <pt x="966" y="779" on="1"/>
        <pt x="920" y="779" on="0"/>
      </contour>
      <contour>
        <pt x="629" y="-172" on="1"/>
        <pt x="579" y="-172" on="0"/>
        <pt x="505" y="-104" on="0"/>
        <pt x="505" y="-52" on="1"/>
        <pt x="505" y="-1" on="0"/>
        <pt x="576" y="69" on="0"/>
        <pt x="629" y="69" on="1"/>
        <pt x="679" y="69" on="0"/>
        <pt x="749" y="-1" on="0"/>
        <pt x="749" y="-52" on="1"/>
        <pt x="749" y="-104" on="0"/>
        <pt x="679" y="-172" on="0"/>
      </contour>
      <contour>
        <pt x="733" y="1274" on="1"/>
      </contour>
    </TTGlyph>
    <TTGlyph name="glyph00237" xMin="-21" yMin="-305" xMax="1414" yMax="1274">
      <component glyphName="glyph00528" x="0" y="0" flags="0x204"/>
      <component glyphName="uni09BC" x="1010" y="70" flags="0x4"/>
    </TTGlyph>
    <TTGlyph name="glyph00238" xMin="-21" yMin="-329" xMax="1429" yMax="1274">
      <contour>
        <pt x="-21" y="1274" on="1"/>
        <pt x="1429" y="1274" on="1"/>
        <pt x="1429" y="1128" on="1"/>
        <pt x="1214" y="1128" on="1"/>
        <pt x="1214" y="-329" on="1"/>
        <pt x="1061" y="-329" on="1"/>
        <pt x="1035" y="-238" on="0"/>
        <pt x="919" y="-151" on="0"/>
        <pt x="823" y="-151" on="1"/>
        <pt x="767" y="-151" on="0"/>
        <pt x="652" y="-168" on="1"/>
        <pt x="536" y="-186" on="0"/>
        <pt x="470" y="-186" on="1"/>
        <pt x="296" y="-186" on="0"/>
        <pt x="94" y="-24" on="0"/>
        <pt x="94" y="132" on="1"/>
        <pt x="94" y="200" on="0"/>
        <pt x="113" y="267" on="1"/>
        <pt x="270" y="248" on="1"/>
        <pt x="254" y="190" on="0"/>
        <pt x="254" y="138" on="1"/>
        <pt x="254" y="48" on="0"/>
        <pt x="358" y="-39" on="0"/>
        <pt x="472" y="-39" on="1"/>
        <pt x="527" y="-39" on="0"/>
        <pt x="623" y="-21" on="1"/>
        <pt x="720" y="-4" on="0"/>
        <pt x="776" y="-4" on="1"/>
        <pt x="963" y="-4" on="0"/>
        <pt x="1057" y="-125" on="1"/>
        <pt x="1057" y="0" on="1"/>
        <pt x="906" y="199" on="0"/>
        <pt x="540" y="399" on="0"/>
        <pt x="298" y="434" on="1"/>
        <pt x="224" y="620" on="1"/>
        <pt x="301" y="672" on="0"/>
        <pt x="510" y="788" on="0"/>
        <pt x="642" y="852" on="1"/>
        <pt x="557" y="915" on="0"/>
        <pt x="348" y="1003" on="0"/>
        <pt x="224" y="1029" on="1"/>
        <pt x="269" y="1128" on="1"/>
        <pt x="-21" y="1128" on="1"/>
      </contour>
      <contour>
        <pt x="825" y="770" on="1"/>
        <pt x="691" y="710" on="0"/>
        <pt x="486" y="607" on="0"/>
        <pt x="415" y="564" on="1"/>
        <pt x="605" y="529" on="0"/>
        <pt x="920" y="358" on="0"/>
        <pt x="1061" y="202" on="1"/>
        <pt x="1057" y="320" on="0"/>
        <pt x="1057" y="350" on="1"/>
        <pt x="1057" y="1128" on="1"/>
        <pt x="420" y="1128" on="1"/>
        <pt x="528" y="1090" on="0"/>
        <pt x="747" y="953" on="0"/>
        <pt x="815" y="884" on="1"/>
      </contour>
      <contour>
        <pt x="540" y="35" on="1"/>
        <pt x="490" y="35" on="0"/>
        <pt x="416" y="103" on="0"/>
        <pt x="416" y="155" on="1"/>
        <pt x="416" y="206" on="0"/>
        <pt x="487" y="276" on="0"/>
        <pt x="540" y="276" on="1"/>
        <pt x="590" y="276" on="0"/>
        <pt x="660" y="206" on="0"/>
        <pt x="660" y="155" on="1"/>
        <pt x="660" y="103" on="0"/>
        <pt x="590" y="35" on="0"/>
      </contour>
    </TTGlyph>
    <TTGlyph name="glyph00239" xMin="-20" yMin="-329" xMax="1967" yMax="1274">
      <contour>
        <pt x="1320" y="-329" on="1"/>
        <pt x="1167" y="-329" on="1"/>
        <pt x="1138" y="-235" on="0"/>
        <pt x="1019" y="-151" on="0"/>
        <pt x="924" y="-151" on="1"/>
        <pt x="862" y="-151" on="0"/>
        <pt x="732" y="-168" on="1"/>
        <pt x="601" y="-186" on="0"/>
        <pt x="521" y="-186" on="1"/>
        <pt x="345" y="-186" on="0"/>
        <pt x="136" y="-9" on="0"/>
        <pt x="136" y="161" on="1"/>
        <pt x="136" y="241" on="0"/>
        <pt x="160" y="334" on="1"/>
        <pt x="317" y="315" on="1"/>
        <pt x="296" y="238" on="0"/>
        <pt x="296" y="164" on="1"/>
        <pt x="296" y="61" on="0"/>
        <pt x="405" y="-39" on="0"/>
        <pt x="521" y="-39" on="1"/>
        <pt x="587" y="-39" on="0"/>
        <pt x="698" y="-21" on="1"/>
        <pt x="809" y="-4" on="0"/>
        <pt x="874" y="-4" on="1"/>
        <pt x="1073" y="-4" on="0"/>
        <pt x="1163" y="-107" on="1"/>
        <pt x="1163" y="168" on="1"/>
        <pt x="1052" y="328" on="0"/>
        <pt x="860" y="470" on="0"/>
        <pt x="762" y="470" on="1"/>
        <pt x="691" y="470" on="0"/>
        <pt x="618" y="407" on="0"/>
        <pt x="618" y="353" on="1"/>
        <pt x="618" y="297" on="0"/>
        <pt x="654" y="248" on="1"/>
        <pt x="502" y="186" on="1"/>
        <pt x="450" y="272" on="0"/>
        <pt x="450" y="370" on="1"/>
        <pt x="450" y="468" on="0"/>
        <pt x="590" y="596" on="0"/>
        <pt x="709" y="611" on="1"/>
        <pt x="672" y="723" on="0"/>
        <pt x="507" y="851" on="0"/>
        <pt x="406" y="851" on="1"/>
        <pt x="335" y="851" on="0"/>
        <pt x="262" y="788" on="0"/>
        <pt x="262" y="734" on="1"/>
        <pt x="262" y="680" on="0"/>
        <pt x="297" y="629" on="1"/>
        <pt x="146" y="567" on="1"/>
        <pt x="94" y="654" on="0"/>
        <pt x="94" y="751" on="1"/>
        <pt x="94" y="851" on="0"/>
        <pt x="241" y="978" on="0"/>
        <pt x="364" y="992" on="1"/>
        <pt x="342" y="1071" on="0"/>
        <pt x="285" y="1128" on="1"/>
        <pt x="-20" y="1128" on="1"/>
        <pt x="-20" y="1274" on="1"/>
        <pt x="1967" y="1274" on="1"/>
        <pt x="1967" y="1128" on="1"/>
        <pt x="1320" y="1128" on="1"/>
        <pt x="1320" y="903" on="1"/>
        <pt x="1601" y="897" on="0"/>
        <pt x="1859" y="705" on="0"/>
        <pt x="1859" y="556" on="1"/>
        <pt x="1859" y="443" on="0"/>
        <pt x="1718" y="303" on="0"/>
        <pt x="1590" y="303" on="1"/>
        <pt x="1517" y="303" on="0"/>
        <pt x="1475" y="313" on="1"/>
        <pt x="1486" y="460" on="1"/>
        <pt x="1520" y="456" on="0"/>
        <pt x="1555" y="456" on="1"/>
        <pt x="1700" y="456" on="0"/>
        <pt x="1700" y="562" on="1"/>
        <pt x="1700" y="656" on="0"/>
        <pt x="1525" y="756" on="0"/>
        <pt x="1320" y="760" on="1"/>
      </contour>
      <contour>
        <pt x="1163" y="762" on="1"/>
        <pt x="977" y="767" on="0"/>
        <pt x="791" y="936" on="0"/>
        <pt x="791" y="1087" on="1"/>
        <pt x="791" y="1106" on="1"/>
        <pt x="791" y="1117" on="0"/>
        <pt x="792" y="1128" on="1"/>
        <pt x="465" y="1128" on="1"/>
        <pt x="510" y="1057" on="0"/>
        <pt x="514" y="980" on="1"/>
        <pt x="654" y="942" on="0"/>
        <pt x="851" y="727" on="0"/>
        <pt x="860" y="600" on="1"/>
        <pt x="946" y="577" on="0"/>
        <pt x="1100" y="460" on="0"/>
        <pt x="1167" y="365" on="1"/>
        <pt x="1163" y="396" on="0"/>
        <pt x="1163" y="501" on="1"/>
      </contour>
      <contour>
        <pt x="948" y="1128" on="1"/>
        <pt x="947" y="1112" on="1"/>
        <pt x="942" y="1028" on="0"/>
        <pt x="1028" y="911" on="0"/>
        <pt x="1163" y="905" on="1"/>
        <pt x="1163" y="1128" on="1"/>
      </contour>
      <contour>
        <pt x="1163" y="1274" on="1"/>
      </contour>
      <contour>
        <pt x="1163" y="0" on="1"/>
      </contour>
    </TTGlyph>
    <TTGlyph name="glyph00240" xMin="-21" yMin="-547" xMax="2015" yMax="1274">
      <component glyphName="glyph00126" x="0" y="0" flags="0x204"/>
      <component glyphName="glyph00128" x="1880" y="-69" flags="0x4"/>
    </TTGlyph>
    <TTGlyph name="glyph00241" xMin="-21" yMin="-89" xMax="1515" yMax="1274">
      <contour>
        <pt x="939" y="1128" on="1"/>
        <pt x="939" y="1059" on="1"/>
        <pt x="1166" y="1019" on="0"/>
        <pt x="1420" y="814" on="0"/>
        <pt x="1420" y="666" on="1"/>
        <pt x="1420" y="560" on="0"/>
        <pt x="1286" y="431" on="0"/>
        <pt x="1167" y="431" on="1"/>
        <pt x="1104" y="431" on="0"/>
        <pt x="1060" y="441" on="1"/>
        <pt x="1069" y="584" on="1"/>
        <pt x="1100" y="580" on="0"/>
        <pt x="1127" y="580" on="1"/>
        <pt x="1194" y="580" on="0"/>
        <pt x="1263" y="625" on="0"/>
        <pt x="1263" y="681" on="1"/>
        <pt x="1263" y="763" on="0"/>
        <pt x="1094" y="887" on="0"/>
        <pt x="939" y="912" on="1"/>
        <pt x="939" y="-89" on="1"/>
        <pt x="782" y="-89" on="1"/>
        <pt x="685" y="10" on="0"/>
        <pt x="445" y="134" on="0"/>
        <pt x="270" y="162" on="1"/>
        <pt x="197" y="326" on="1"/>
        <pt x="325" y="400" on="0"/>
        <pt x="502" y="481" on="1"/>
        <pt x="429" y="522" on="0"/>
        <pt x="260" y="574" on="0"/>
        <pt x="163" y="585" on="1"/>
        <pt x="86" y="769" on="1"/>
        <pt x="265" y="860" on="0"/>
        <pt x="613" y="1002" on="0"/>
        <pt x="782" y="1052" on="1"/>
        <pt x="782" y="1128" on="1"/>
        <pt x="-21" y="1128" on="1"/>
        <pt x="-21" y="1274" on="1"/>
        <pt x="1515" y="1274" on="1"/>
        <pt x="1515" y="1128" on="1"/>
      </contour>
      <contour>
        <pt x="782" y="900" on="1"/>
        <pt x="650" y="858" on="0"/>
        <pt x="402" y="761" on="0"/>
        <pt x="287" y="705" on="1"/>
        <pt x="382" y="684" on="0"/>
        <pt x="560" y="603" on="0"/>
        <pt x="642" y="542" on="1"/>
        <pt x="703" y="567" on="0"/>
        <pt x="782" y="596" on="1"/>
      </contour>
      <contour>
        <pt x="782" y="449" on="1"/>
        <pt x="581" y="372" on="0"/>
        <pt x="384" y="271" on="1"/>
        <pt x="507" y="242" on="0"/>
        <pt x="710" y="144" on="0"/>
        <pt x="789" y="76" on="1"/>
        <pt x="782" y="160" on="0"/>
        <pt x="782" y="228" on="1"/>
      </contour>
      <contour>
        <pt x="782" y="1274" on="1"/>
      </contour>
      <contour>
        <pt x="782" y="0" on="1"/>
      </contour>
    </TTGlyph>
    <TTGlyph name="glyph00242" xMin="100" yMin="-548" xMax="1446" yMax="1409">
      <component glyphName="uni0996" x="0" y="0" flags="0x204"/>
      <component glyphName="glyph00129" x="1435" y="0" flags="0x4"/>
    </TTGlyph>
    <TTGlyph name="glyph00243" xMin="46" yMin="-89" xMax="1365" yMax="1409">
      <contour>
        <pt x="242" y="627" on="1"/>
        <pt x="376" y="675" on="0"/>
        <pt x="497" y="770" on="0"/>
        <pt x="497" y="824" on="1"/>
        <pt x="497" y="860" on="0"/>
        <pt x="437" y="901" on="0"/>
        <pt x="389" y="901" on="1"/>
        <pt x="340" y="901" on="0"/>
        <pt x="253" y="880" on="0"/>
        <pt x="190" y="851" on="1"/>
        <pt x="46" y="968" on="1"/>
        <pt x="151" y="1128" on="0"/>
        <pt x="390" y="1288" on="0"/>
        <pt x="523" y="1288" on="1"/>
        <pt x="658" y="1288" on="0"/>
        <pt x="885" y="1156" on="0"/>
        <pt x="1000" y="1013" on="1"/>
        <pt x="993" y="1104" on="0"/>
        <pt x="993" y="1199" on="1"/>
        <pt x="993" y="1409" on="1"/>
        <pt x="1101" y="1409" on="1"/>
        <pt x="1148" y="1274" on="1"/>
        <pt x="1365" y="1274" on="1"/>
        <pt x="1365" y="1128" on="1"/>
        <pt x="1150" y="1128" on="1"/>
        <pt x="1150" y="-89" on="1"/>
        <pt x="993" y="-89" on="1"/>
        <pt x="896" y="10" on="0"/>
        <pt x="656" y="134" on="0"/>
        <pt x="481" y="162" on="1"/>
        <pt x="408" y="326" on="1"/>
        <pt x="552" y="408" on="0"/>
        <pt x="873" y="556" on="0"/>
        <pt x="993" y="596" on="1"/>
        <pt x="993" y="800" on="1"/>
        <pt x="854" y="991" on="0"/>
        <pt x="650" y="1138" on="0"/>
        <pt x="532" y="1138" on="1"/>
        <pt x="455" y="1138" on="0"/>
        <pt x="331" y="1080" on="0"/>
        <pt x="268" y="1012" on="1"/>
        <pt x="341" y="1038" on="0"/>
        <pt x="412" y="1038" on="1"/>
        <pt x="529" y="1038" on="0"/>
        <pt x="661" y="919" on="0"/>
        <pt x="661" y="836" on="1"/>
        <pt x="661" y="725" on="0"/>
        <pt x="493" y="557" on="0"/>
        <pt x="334" y="484" on="1"/>
      </contour>
      <contour>
        <pt x="993" y="449" on="1"/>
        <pt x="892" y="410" on="0"/>
        <pt x="693" y="321" on="0"/>
        <pt x="595" y="271" on="1"/>
        <pt x="718" y="242" on="0"/>
        <pt x="921" y="144" on="0"/>
        <pt x="1000" y="76" on="1"/>
        <pt x="993" y="160" on="0"/>
        <pt x="993" y="228" on="1"/>
      </contour>
      <contour>
        <pt x="868" y="1274" on="1"/>
      </contour>
    </TTGlyph>
    <TTGlyph name="glyph00244" xMin="-21" yMin="-548" xMax="1314" yMax="1274">
      <component glyphName="uni0998" x="0" y="0" flags="0x204"/>
      <component glyphName="glyph00129" x="1303" y="0" flags="0x4"/>
    </TTGlyph>
    <TTGlyph name="glyph00245" xMin="59" yMin="-508" xMax="1366" yMax="1288">
      <component glyphName="uni0999" x="0" y="0" flags="0x204"/>
      <component glyphName="glyph00129" x="1362" y="40" flags="0x4"/>
    </TTGlyph>
    <TTGlyph name="glyph00246" xMin="-21" yMin="-433" xMax="1184" yMax="1274">
      <component glyphName="uni099A" x="0" y="0" flags="0x204"/>
      <component glyphName="glyph00129" x="1098" y="115" flags="0x4"/>
    </TTGlyph>
    <TTGlyph name="glyph00247" xMin="-21" yMin="-548" xMax="1427" yMax="1274">
      <component glyphName="uni099B" x="0" y="0" flags="0x204"/>
      <component glyphName="glyph00129" x="1297" y="0" flags="0x4"/>
    </TTGlyph>
    <TTGlyph name="glyph00248" xMin="-21" yMin="-240" xMax="2021" yMax="1274">
      <contour>
        <pt x="1129" y="1128" on="1"/>
        <pt x="1190" y="1034" on="0"/>
        <pt x="1417" y="941" on="0"/>
        <pt x="1584" y="941" on="1"/>
        <pt x="1643" y="941" on="0"/>
        <pt x="1710" y="947" on="1"/>
        <pt x="1805" y="808" on="1"/>
        <pt x="1806" y="808" on="1"/>
        <pt x="1806" y="-240" on="1"/>
        <pt x="1649" y="-240" on="1"/>
        <pt x="1552" y="-141" on="0"/>
        <pt x="1312" y="-17" on="0"/>
        <pt x="1137" y="11" on="1"/>
        <pt x="1065" y="172" on="1"/>
        <pt x="1013" y="150" on="0"/>
        <pt x="892" y="129" on="0"/>
        <pt x="822" y="129" on="1"/>
        <pt x="543" y="129" on="0"/>
        <pt x="169" y="545" on="0"/>
        <pt x="59" y="951" on="1"/>
        <pt x="215" y="996" on="1"/>
        <pt x="313" y="630" on="0"/>
        <pt x="601" y="284" on="0"/>
        <pt x="827" y="284" on="1"/>
        <pt x="978" y="284" on="0"/>
        <pt x="1134" y="416" on="0"/>
        <pt x="1134" y="549" on="1"/>
        <pt x="1134" y="607" on="0"/>
        <pt x="1118" y="658" on="1"/>
        <pt x="1037" y="588" on="0"/>
        <pt x="884" y="526" on="0"/>
        <pt x="800" y="526" on="1"/>
        <pt x="677" y="526" on="0"/>
        <pt x="529" y="666" on="0"/>
        <pt x="529" y="786" on="1"/>
        <pt x="529" y="889" on="0"/>
        <pt x="671" y="1069" on="0"/>
        <pt x="804" y="1131" on="1"/>
        <pt x="747" y="1128" on="0"/>
        <pt x="610" y="1128" on="1"/>
        <pt x="-21" y="1128" on="1"/>
        <pt x="-21" y="1274" on="1"/>
        <pt x="2021" y="1274" on="1"/>
        <pt x="2021" y="1128" on="1"/>
      </contour>
      <contour>
        <pt x="981" y="1079" on="1"/>
        <pt x="838" y="1006" on="0"/>
        <pt x="686" y="862" on="0"/>
        <pt x="686" y="778" on="1"/>
        <pt x="686" y="727" on="0"/>
        <pt x="745" y="672" on="0"/>
        <pt x="793" y="672" on="1"/>
        <pt x="859" y="672" on="0"/>
        <pt x="978" y="729" on="0"/>
        <pt x="1071" y="811" on="1"/>
        <pt x="1248" y="748" on="1"/>
        <pt x="1290" y="645" on="0"/>
        <pt x="1290" y="520" on="1"/>
        <pt x="1290" y="427" on="0"/>
        <pt x="1226" y="282" on="0"/>
        <pt x="1163" y="230" on="1"/>
        <pt x="1301" y="302" on="0"/>
        <pt x="1544" y="409" on="0"/>
        <pt x="1649" y="445" on="1"/>
        <pt x="1649" y="796" on="1"/>
        <pt x="1617" y="795" on="1"/>
        <pt x="1405" y="788" on="0"/>
        <pt x="1082" y="917" on="0"/>
      </contour>
      <contour>
        <pt x="1649" y="298" on="1"/>
        <pt x="1548" y="259" on="0"/>
        <pt x="1349" y="170" on="0"/>
        <pt x="1251" y="120" on="1"/>
        <pt x="1374" y="91" on="0"/>
        <pt x="1577" y="-6" on="0"/>
        <pt x="1656" y="-75" on="1"/>
        <pt x="1649" y="9" on="0"/>
        <pt x="1649" y="77" on="1"/>
      </contour>
      <contour>
        <pt x="1376" y="1274" on="1"/>
      </contour>
      <contour>
        <pt x="1649" y="0" on="1"/>
      </contour>
    </TTGlyph>
    <TTGlyph name="glyph00249" xMin="-21" yMin="-548" xMax="1647" yMax="1409">
      <component glyphName="uni099D" x="0" y="0" flags="0x204"/>
      <component glyphName="glyph00129" x="1210" y="0" flags="0x4"/>
    </TTGlyph>
    <TTGlyph name="glyph00250" xMin="94" yMin="-548" xMax="1976" yMax="1286">
      <component glyphName="uni099E" x="0" y="0" flags="0x204"/>
      <component glyphName="glyph00129" x="1569" y="0" flags="0x4"/>
    </TTGlyph>
    <TTGlyph name="glyph00251" xMin="-21" yMin="-432" xMax="1184" yMax="1868">
      <component glyphName="uni099F" x="0" y="0" flags="0x204"/>
      <component glyphName="glyph00129" x="1098" y="116" flags="0x4"/>
    </TTGlyph>
    <TTGlyph name="glyph00252" xMin="-21" yMin="-520" xMax="1231" yMax="1878">
      <component glyphName="uni09A0" x="0" y="0" flags="0x204"/>
      <component glyphName="glyph00129" x="1105" y="28" flags="0x4"/>
    </TTGlyph>
    <TTGlyph name="glyph00253" xMin="-21" yMin="-497" xMax="1480" yMax="1274">
      <component glyphName="uni09A1" x="0" y="0" flags="0x204"/>
      <component glyphName="glyph00129" x="1311" y="51" flags="0x4"/>
    </TTGlyph>
    <TTGlyph name="glyph00254" xMin="-21" yMin="-432" xMax="1184" yMax="1274">
      <component glyphName="uni09A2" x="0" y="0" flags="0x204"/>
      <component glyphName="glyph00129" x="1098" y="116" flags="0x4"/>
    </TTGlyph>
    <TTGlyph name="glyph00255" xMin="92" yMin="0" xMax="1255" yMax="1409">
      <contour>
        <pt x="883" y="809" on="1"/>
        <pt x="764" y="973" on="0"/>
        <pt x="541" y="1138" on="0"/>
        <pt x="437" y="1138" on="1"/>
        <pt x="356" y="1138" on="0"/>
        <pt x="260" y="1055" on="0"/>
        <pt x="260" y="983" on="1"/>
        <pt x="260" y="922" on="0"/>
        <pt x="346" y="833" on="0"/>
        <pt x="437" y="798" on="1"/>
        <pt x="358" y="652" on="1"/>
        <pt x="228" y="706" on="0"/>
        <pt x="92" y="881" on="0"/>
        <pt x="92" y="989" on="1"/>
        <pt x="92" y="1125" on="0"/>
        <pt x="283" y="1288" on="0"/>
        <pt x="423" y="1288" on="1"/>
        <pt x="549" y="1288" on="0"/>
        <pt x="771" y="1158" on="0"/>
        <pt x="890" y="1014" on="1"/>
        <pt x="883" y="1066" on="0"/>
        <pt x="883" y="1180" on="1"/>
        <pt x="883" y="1409" on="1"/>
        <pt x="991" y="1409" on="1"/>
        <pt x="1038" y="1274" on="1"/>
        <pt x="1255" y="1274" on="1"/>
        <pt x="1255" y="1128" on="1"/>
        <pt x="1040" y="1128" on="1"/>
        <pt x="1040" y="0" on="1"/>
        <pt x="883" y="0" on="1"/>
        <pt x="786" y="99" on="0"/>
        <pt x="546" y="223" on="0"/>
        <pt x="371" y="251" on="1"/>
        <pt x="298" y="415" on="1"/>
        <pt x="419" y="485" on="0"/>
        <pt x="753" y="642" on="0"/>
        <pt x="883" y="685" on="1"/>
      </contour>
      <contour>
        <pt x="883" y="538" on="1"/>
        <pt x="782" y="499" on="0"/>
        <pt x="583" y="410" on="0"/>
        <pt x="485" y="360" on="1"/>
        <pt x="608" y="331" on="0"/>
        <pt x="811" y="233" on="0"/>
        <pt x="890" y="165" on="1"/>
        <pt x="883" y="249" on="0"/>
        <pt x="883" y="317" on="1"/>
      </contour>
      <contour>
        <pt x="758" y="1274" on="1"/>
      </contour>
    </TTGlyph>
    <TTGlyph name="glyph00256" xMin="-21" yMin="-89" xMax="1300" yMax="1274">
      <contour>
        <pt x="-21" y="1128" on="1"/>
        <pt x="-21" y="1274" on="1"/>
        <pt x="1300" y="1274" on="1"/>
        <pt x="1300" y="1128" on="1"/>
      </contour>
      <contour>
        <pt x="1043" y="524" on="1"/>
        <pt x="1043" y="-89" on="1"/>
        <pt x="886" y="-89" on="1"/>
        <pt x="789" y="10" on="0"/>
        <pt x="549" y="134" on="0"/>
        <pt x="374" y="162" on="1"/>
        <pt x="301" y="326" on="1"/>
        <pt x="352" y="355" on="0"/>
        <pt x="489" y="420" on="0"/>
        <pt x="576" y="456" on="1"/>
        <pt x="395" y="492" on="0"/>
        <pt x="136" y="768" on="0"/>
        <pt x="59" y="1008" on="1"/>
        <pt x="207" y="1051" on="1"/>
        <pt x="289" y="806" on="0"/>
        <pt x="526" y="584" on="0"/>
        <pt x="718" y="584" on="1"/>
        <pt x="860" y="584" on="0"/>
        <pt x="1009" y="677" on="0"/>
        <pt x="1009" y="766" on="1"/>
        <pt x="1009" y="844" on="0"/>
        <pt x="890" y="944" on="0"/>
        <pt x="790" y="944" on="1"/>
        <pt x="667" y="944" on="0"/>
        <pt x="667" y="863" on="1"/>
        <pt x="667" y="827" on="0"/>
        <pt x="684" y="791" on="1"/>
        <pt x="538" y="762" on="1"/>
        <pt x="507" y="832" on="0"/>
        <pt x="507" y="898" on="1"/>
        <pt x="507" y="985" on="0"/>
        <pt x="655" y="1080" on="0"/>
        <pt x="780" y="1080" on="1"/>
        <pt x="954" y="1080" on="0"/>
        <pt x="1164" y="897" on="0"/>
        <pt x="1164" y="763" on="1"/>
        <pt x="1164" y="687" on="0"/>
        <pt x="1103" y="567" on="0"/>
      </contour>
      <contour>
        <pt x="886" y="449" on="1"/>
        <pt x="785" y="410" on="0"/>
        <pt x="586" y="321" on="0"/>
        <pt x="488" y="271" on="1"/>
        <pt x="611" y="242" on="0"/>
        <pt x="814" y="144" on="0"/>
        <pt x="893" y="76" on="1"/>
        <pt x="886" y="160" on="0"/>
        <pt x="886" y="228" on="1"/>
      </contour>
      <contour>
        <pt x="689" y="1274" on="1"/>
      </contour>
      <contour>
        <pt x="886" y="0" on="1"/>
      </contour>
    </TTGlyph>
    <TTGlyph name="glyph00257" xMin="78" yMin="-241" xMax="1341" yMax="1409">
      <contour>
        <pt x="969" y="1409" on="1"/>
        <pt x="1077" y="1409" on="1"/>
        <pt x="1124" y="1274" on="1"/>
        <pt x="1341" y="1274" on="1"/>
        <pt x="1341" y="1128" on="1"/>
        <pt x="1126" y="1128" on="1"/>
        <pt x="1126" y="-241" on="1"/>
        <pt x="969" y="-241" on="1"/>
        <pt x="872" y="-142" on="0"/>
        <pt x="632" y="-18" on="0"/>
        <pt x="457" y="10" on="1"/>
        <pt x="384" y="174" on="1"/>
        <pt x="473" y="225" on="0"/>
        <pt x="663" y="320" on="0"/>
        <pt x="764" y="364" on="1"/>
        <pt x="643" y="438" on="0"/>
        <pt x="410" y="510" on="0"/>
        <pt x="258" y="530" on="1"/>
        <pt x="211" y="719" on="1"/>
        <pt x="429" y="730" on="0"/>
        <pt x="653" y="856" on="0"/>
        <pt x="653" y="970" on="1"/>
        <pt x="653" y="1137" on="0"/>
        <pt x="434" y="1137" on="1"/>
        <pt x="341" y="1137" on="0"/>
        <pt x="237" y="1071" on="0"/>
        <pt x="237" y="1024" on="1"/>
        <pt x="237" y="975" on="0"/>
        <pt x="307" y="941" on="1"/>
        <pt x="217" y="816" on="1"/>
        <pt x="78" y="901" on="0"/>
        <pt x="78" y="1020" on="1"/>
        <pt x="78" y="1135" on="0"/>
        <pt x="272" y="1281" on="0"/>
        <pt x="432" y="1281" on="1"/>
        <pt x="614" y="1281" on="0"/>
        <pt x="819" y="1109" on="0"/>
        <pt x="819" y="968" on="1"/>
        <pt x="819" y="838" on="0"/>
        <pt x="626" y="660" on="0"/>
        <pt x="445" y="626" on="1"/>
        <pt x="572" y="603" on="0"/>
        <pt x="809" y="503" on="0"/>
        <pt x="919" y="426" on="1"/>
        <pt x="969" y="444" on="1"/>
      </contour>
      <contour>
        <pt x="969" y="297" on="1"/>
        <pt x="868" y="258" on="0"/>
        <pt x="669" y="169" on="0"/>
        <pt x="571" y="119" on="1"/>
        <pt x="694" y="90" on="0"/>
        <pt x="897" y="-7" on="0"/>
        <pt x="976" y="-76" on="1"/>
        <pt x="969" y="8" on="0"/>
        <pt x="969" y="76" on="1"/>
      </contour>
      <contour>
        <pt x="844" y="1274" on="1"/>
      </contour>
    </TTGlyph>
</ttFont>
